{"glyphs":{"0":{"ha":806,"x_min":50,"x_max":756,"o":"m 403 -25 q 199 40 276 -25 q 85 219 121 105 q 50 482 50 333 q 143 867 50 742 q 403 992 235 992 q 663 867 571 992 q 756 482 756 742 q 720 219 756 333 q 607 40 685 105 q 403 -25 529 -25 m 404 124 q 498 171 464 124 q 547 300 533 219 q 561 483 561 382 q 546 672 561 590 q 497 800 531 753 q 404 846 463 846 q 310 800 345 846 q 260 672 275 753 q 244 483 244 590 q 259 300 244 382 q 309 171 274 219 q 404 124 344 124 z "},"1":{"ha":435,"x_min":124,"x_max":311,"o":"m 124 0 l 124 906 l 311 993 l 311 0 l 124 0 z "},"2":{"ha":779,"x_min":54,"x_max":711,"o":"m 260 158 l 711 158 l 711 0 l 88 0 q 81 45 83 22 q 78 97 78 67 q 107 248 78 185 q 191 360 135 310 q 329 457 247 409 q 419 515 374 483 q 495 591 465 547 q 525 699 525 635 q 491 795 525 753 q 383 838 458 838 q 260 788 306 838 q 201 658 214 738 l 54 728 q 110 860 65 800 q 228 956 156 920 q 396 992 301 992 q 552 959 482 992 q 664 865 622 927 q 706 715 706 803 q 673 559 706 625 q 577 439 640 493 q 421 329 513 385 q 314 255 356 290 q 260 158 272 221 z "},"3":{"ha":757,"x_min":53,"x_max":703,"o":"m 343 -21 q 190 -1 264 -21 q 58 60 117 18 l 117 218 q 213 159 156 180 q 325 138 270 138 q 463 182 419 138 q 507 293 507 226 q 480 379 507 349 q 408 419 452 408 q 313 431 363 431 l 239 431 l 239 568 l 314 568 q 441 610 399 568 q 482 715 482 652 q 441 809 482 784 q 325 833 400 833 q 260 824 298 833 q 185 795 222 814 q 122 749 147 776 l 53 896 q 175 963 96 933 q 363 992 253 992 q 591 927 506 992 q 676 743 676 862 q 658 640 676 690 q 603 551 639 589 q 515 500 567 513 q 616 467 574 500 q 681 383 658 435 q 703 272 703 331 q 654 115 703 181 q 524 14 606 49 q 343 -21 442 -21 z "},"4":{"ha":849,"x_min":46,"x_max":813,"o":"m 46 190 l 403 968 l 696 968 l 696 310 l 813 310 l 813 175 l 696 175 l 696 0 l 514 0 l 514 175 l 56 175 l 46 190 m 293 310 l 522 310 l 528 869 l 372 482 l 293 310 z "},"5":{"ha":758,"x_min":63,"x_max":701,"o":"m 319 -18 q 185 -4 256 -18 q 63 44 114 10 l 114 200 q 196 153 144 172 q 296 133 247 133 q 367 139 329 133 q 438 161 405 144 q 493 216 472 179 q 514 314 514 252 q 459 445 514 397 q 303 494 404 494 q 224 487 264 494 q 152 469 184 480 q 106 450 120 459 l 124 968 l 660 968 l 660 821 l 282 821 l 268 614 q 332 627 301 624 q 401 631 364 631 q 625 550 549 631 q 701 332 701 469 q 653 145 701 224 q 519 24 605 67 q 319 -18 433 -18 z "},"6":{"ha":865,"x_min":81,"x_max":807,"o":"m 450 -21 q 316 4 382 -21 q 197 86 250 29 q 112 236 144 142 q 81 467 81 330 q 135 747 81 629 q 285 928 190 865 q 503 992 381 992 q 654 973 601 992 q 740 921 707 953 l 672 788 q 598 829 644 818 q 513 840 551 840 q 387 797 440 840 q 303 687 334 754 q 268 549 273 620 q 267 522 267 534 q 267 497 267 509 q 373 602 304 569 q 517 635 441 635 q 675 593 610 635 q 774 483 740 552 q 807 329 807 413 q 762 144 807 222 q 637 22 717 65 q 450 -21 557 -21 m 460 122 q 573 173 526 122 q 621 313 621 223 q 585 443 621 394 q 475 493 550 493 q 387 470 429 493 q 318 410 345 448 q 288 328 290 373 q 308 226 288 273 q 367 151 328 179 q 460 122 406 122 z "},"7":{"ha":732,"x_min":63,"x_max":697,"o":"m 186 0 l 465 804 l 63 804 l 63 968 l 697 968 l 385 0 l 186 0 z "},"8":{"ha":860,"x_min":65,"x_max":794,"o":"m 431 -25 q 300 -9 365 -25 q 182 41 235 7 q 97 131 129 76 q 65 265 65 187 q 117 417 65 357 q 251 506 168 476 q 145 593 184 535 q 107 740 107 651 q 155 887 107 832 q 277 967 202 942 q 432 992 351 992 q 585 967 512 992 q 706 887 659 942 q 753 740 753 832 q 713 595 753 653 q 608 506 672 537 q 743 417 691 477 q 794 265 794 357 q 763 131 794 187 q 677 41 731 76 q 560 -9 624 7 q 431 -25 496 -25 m 433 569 q 533 611 498 569 q 568 728 568 653 q 536 830 568 796 q 433 864 503 864 q 293 728 293 864 q 331 611 293 653 q 433 569 369 569 m 431 115 q 593 268 593 115 q 569 367 593 331 q 508 418 545 403 q 431 433 470 433 q 352 418 390 433 q 290 367 315 403 q 265 268 265 331 q 308 153 265 191 q 431 115 351 115 z "},"9":{"ha":865,"x_min":81,"x_max":807,"o":"m 385 -21 q 234 -1 287 -21 q 147 50 181 18 l 215 189 q 290 148 244 159 q 375 136 337 136 q 502 173 447 136 q 588 274 556 209 q 624 422 620 338 q 625 450 625 437 q 625 474 625 463 q 517 369 588 402 q 371 336 447 336 q 213 379 277 336 q 114 492 148 422 q 81 647 81 563 q 127 831 81 754 q 256 950 174 908 q 444 992 338 992 q 570 967 506 992 q 688 885 634 942 q 774 735 742 828 q 807 504 807 641 q 752 224 807 342 q 602 43 698 106 q 385 -21 507 -21 m 417 478 q 503 500 463 478 q 571 560 544 523 q 600 643 597 598 q 582 744 600 697 q 528 820 564 791 q 440 849 492 849 q 357 827 397 849 q 292 765 317 806 q 267 664 267 724 q 304 530 267 583 q 417 478 342 478 z "},"A":{"ha":788,"x_min":-24,"x_max":811,"o":"m -24 0 l 386 985 l 400 985 l 811 0 l 622 0 l 568 140 l 222 140 l 171 0 l -24 0 m 369 539 l 272 275 l 517 275 l 415 539 l 392 617 l 369 539 z "},"Á":{"ha":788,"x_min":-24,"x_max":811,"o":"m -24 0 l 386 985 l 400 985 l 811 0 l 622 0 l 568 140 l 222 140 l 171 0 l -24 0 m 369 539 l 272 275 l 517 275 l 415 539 l 392 617 l 369 539 m 313 1058 l 449 1313 l 619 1313 l 446 1058 l 313 1058 z "},"Ă":{"ha":788,"x_min":-24,"x_max":811,"o":"m -24 0 l 386 985 l 400 985 l 811 0 l 622 0 l 568 140 l 222 140 l 171 0 l -24 0 m 369 539 l 272 275 l 517 275 l 415 539 l 392 617 l 369 539 m 392 1058 q 224 1121 289 1058 q 158 1307 158 1184 l 285 1307 q 309 1217 287 1246 q 392 1189 331 1189 q 476 1219 456 1189 q 499 1307 497 1249 l 626 1307 q 560 1120 626 1182 q 392 1058 494 1058 z "},"Ắ":{"ha":788,"x_min":-24,"x_max":811,"o":"m -24 0 l 386 985 l 400 985 l 811 0 l 622 0 l 568 140 l 222 140 l 171 0 l -24 0 m 369 539 l 272 275 l 517 275 l 415 539 l 392 617 l 369 539 m 311 1319 l 417 1514 l 565 1514 l 428 1319 l 311 1319 m 392 1058 q 245 1111 300 1058 q 190 1274 190 1165 l 293 1274 q 316 1193 295 1219 q 392 1167 338 1167 q 467 1195 448 1167 q 489 1274 487 1223 l 593 1274 q 538 1111 593 1163 q 392 1058 483 1058 z "},"Ặ":{"ha":788,"x_min":-24,"x_max":811,"o":"m -24 0 l 386 985 l 400 985 l 811 0 l 622 0 l 568 140 l 222 140 l 171 0 l -24 0 m 369 539 l 272 275 l 517 275 l 415 539 l 392 617 l 369 539 m 307 -314 l 307 -128 l 496 -128 l 496 -314 l 307 -314 m 392 1058 q 224 1121 289 1058 q 158 1307 158 1184 l 285 1307 q 309 1217 287 1246 q 392 1189 331 1189 q 476 1219 456 1189 q 499 1307 497 1249 l 626 1307 q 560 1120 626 1182 q 392 1058 494 1058 z "},"Ằ":{"ha":788,"x_min":-24,"x_max":811,"o":"m -24 0 l 386 985 l 400 985 l 811 0 l 622 0 l 568 140 l 222 140 l 171 0 l -24 0 m 369 539 l 272 275 l 517 275 l 415 539 l 392 617 l 369 539 m 349 1319 l 211 1514 l 360 1514 l 464 1319 l 349 1319 m 392 1058 q 245 1111 300 1058 q 190 1274 190 1165 l 293 1274 q 316 1193 295 1219 q 392 1167 338 1167 q 467 1195 448 1167 q 489 1274 487 1223 l 593 1274 q 538 1111 593 1163 q 392 1058 483 1058 z "},"Ẳ":{"ha":788,"x_min":-24,"x_max":811,"o":"m -24 0 l 386 985 l 400 985 l 811 0 l 622 0 l 568 140 l 222 140 l 171 0 l -24 0 m 369 539 l 272 275 l 517 275 l 415 539 l 392 617 l 369 539 m 406 1311 q 369 1312 383 1311 q 338 1317 356 1313 l 319 1376 q 334 1375 326 1376 q 350 1374 342 1374 q 402 1385 377 1374 q 428 1428 428 1396 q 408 1461 428 1447 q 356 1475 389 1475 q 320 1469 338 1475 q 282 1451 303 1463 l 258 1522 q 310 1549 272 1534 q 388 1564 347 1564 q 455 1553 419 1564 q 516 1515 491 1542 q 542 1438 542 1488 q 526 1379 542 1408 q 480 1331 510 1350 q 406 1311 449 1311 m 392 1058 q 245 1111 300 1058 q 190 1274 190 1165 l 293 1274 q 316 1193 295 1219 q 392 1167 338 1167 q 467 1195 448 1167 q 489 1274 487 1223 l 593 1274 q 538 1111 593 1163 q 392 1058 483 1058 z "},"Ẵ":{"ha":788,"x_min":-24,"x_max":811,"o":"m -24 0 l 386 985 l 400 985 l 811 0 l 622 0 l 568 140 l 222 140 l 171 0 l -24 0 m 369 539 l 272 275 l 517 275 l 415 539 l 392 617 l 369 539 m 490 1343 q 429 1356 456 1343 q 379 1385 401 1369 q 343 1408 356 1403 q 321 1413 331 1413 q 280 1402 300 1413 q 251 1356 259 1392 l 182 1403 q 215 1482 182 1449 q 303 1515 248 1515 q 364 1503 338 1515 q 410 1476 390 1491 q 444 1456 428 1464 q 476 1449 460 1449 q 516 1455 501 1449 q 532 1501 531 1462 l 601 1453 q 573 1376 601 1409 q 490 1343 544 1343 m 392 1058 q 245 1111 300 1058 q 190 1274 190 1165 l 293 1274 q 316 1193 295 1219 q 392 1167 338 1167 q 467 1195 448 1167 q 489 1274 487 1223 l 593 1274 q 538 1111 593 1163 q 392 1058 483 1058 z "},"Ǎ":{"ha":788,"x_min":-24,"x_max":811,"o":"m -24 0 l 386 985 l 400 985 l 811 0 l 622 0 l 568 140 l 222 140 l 171 0 l -24 0 m 369 539 l 272 275 l 517 275 l 415 539 l 392 617 l 369 539 m 349 1058 l 131 1313 l 269 1313 l 392 1195 l 507 1313 l 647 1313 l 435 1058 l 349 1058 z "},"Â":{"ha":788,"x_min":-24,"x_max":811,"o":"m -24 0 l 386 985 l 400 985 l 811 0 l 622 0 l 568 140 l 222 140 l 171 0 l -24 0 m 369 539 l 272 275 l 517 275 l 415 539 l 392 617 l 369 539 m 131 1058 l 349 1313 l 435 1313 l 647 1058 l 507 1058 l 392 1176 l 269 1058 l 131 1058 z "},"Ấ":{"ha":788,"x_min":-24,"x_max":811,"o":"m -24 0 l 386 985 l 400 985 l 811 0 l 622 0 l 568 140 l 222 140 l 171 0 l -24 0 m 369 539 l 272 275 l 517 275 l 415 539 l 392 617 l 369 539 m 506 1304 l 611 1499 l 760 1499 l 622 1304 l 506 1304 m 176 1058 l 353 1283 l 429 1283 l 604 1058 l 481 1058 l 392 1154 l 300 1058 l 176 1058 z "},"Ậ":{"ha":788,"x_min":-24,"x_max":811,"o":"m -24 0 l 386 985 l 400 985 l 811 0 l 622 0 l 568 140 l 222 140 l 171 0 l -24 0 m 369 539 l 272 275 l 517 275 l 415 539 l 392 617 l 369 539 m 307 -314 l 307 -128 l 496 -128 l 496 -314 l 307 -314 m 131 1058 l 349 1313 l 435 1313 l 647 1058 l 507 1058 l 392 1176 l 269 1058 l 131 1058 z "},"Ầ":{"ha":788,"x_min":-24,"x_max":811,"o":"m -24 0 l 386 985 l 400 985 l 811 0 l 622 0 l 568 140 l 222 140 l 171 0 l -24 0 m 369 539 l 272 275 l 517 275 l 415 539 l 392 617 l 369 539 m 551 1304 l 414 1499 l 563 1499 l 667 1304 l 551 1304 m 178 1058 l 353 1283 l 429 1283 l 606 1058 l 482 1058 l 392 1154 l 300 1058 l 178 1058 z "},"Ẩ":{"ha":788,"x_min":-24,"x_max":811,"o":"m -24 0 l 386 985 l 400 985 l 811 0 l 622 0 l 568 140 l 222 140 l 171 0 l -24 0 m 369 539 l 272 275 l 517 275 l 415 539 l 392 617 l 369 539 m 407 1357 q 363 1358 380 1357 q 324 1365 346 1359 l 300 1439 q 342 1435 319 1435 q 405 1448 374 1435 q 435 1501 435 1462 q 411 1543 435 1524 q 347 1563 388 1563 q 303 1555 326 1563 q 254 1533 281 1547 l 225 1619 q 288 1653 241 1634 q 386 1672 335 1672 q 469 1659 424 1672 q 546 1611 514 1645 q 578 1514 578 1576 q 558 1442 578 1478 q 500 1381 538 1406 q 407 1357 462 1357 m 131 1058 l 349 1313 l 435 1313 l 647 1058 l 507 1058 l 392 1176 l 269 1058 l 131 1058 z "},"Ẫ":{"ha":788,"x_min":-24,"x_max":811,"o":"m -24 0 l 386 985 l 400 985 l 811 0 l 622 0 l 568 140 l 222 140 l 171 0 l -24 0 m 369 539 l 272 275 l 517 275 l 415 539 l 392 617 l 369 539 m 490 1322 q 429 1335 456 1322 q 379 1364 401 1349 q 343 1387 356 1382 q 321 1392 331 1392 q 280 1382 300 1392 q 251 1335 259 1372 l 182 1382 q 215 1461 182 1428 q 303 1494 248 1494 q 364 1482 338 1494 q 410 1456 390 1470 q 444 1435 428 1443 q 476 1428 460 1428 q 516 1434 501 1428 q 532 1481 531 1441 l 601 1432 q 573 1355 601 1388 q 490 1322 544 1322 m 178 1058 l 353 1283 l 429 1283 l 606 1058 l 482 1058 l 392 1154 l 300 1058 l 178 1058 z "},"Ȁ":{"ha":788,"x_min":-24,"x_max":811,"o":"m -24 0 l 386 985 l 400 985 l 811 0 l 622 0 l 568 140 l 222 140 l 171 0 l -24 0 m 369 539 l 272 275 l 517 275 l 415 539 l 392 617 l 369 539 m 210 1058 l 31 1313 l 183 1313 l 331 1058 l 210 1058 m 500 1058 l 324 1313 l 475 1313 l 621 1058 l 500 1058 z "},"Ä":{"ha":788,"x_min":-24,"x_max":811,"o":"m -24 0 l 386 985 l 400 985 l 811 0 l 622 0 l 568 140 l 222 140 l 171 0 l -24 0 m 369 539 l 272 275 l 517 275 l 415 539 l 392 617 l 369 539 m 439 1058 l 439 1243 l 622 1243 l 622 1058 l 439 1058 m 161 1058 l 161 1243 l 344 1243 l 344 1058 l 161 1058 z "},"Ǟ":{"ha":788,"x_min":-24,"x_max":811,"o":"m -24 0 l 386 985 l 400 985 l 811 0 l 622 0 l 568 140 l 222 140 l 171 0 l -24 0 m 369 539 l 272 275 l 517 275 l 415 539 l 392 617 l 369 539 m 439 1058 l 439 1243 l 622 1243 l 622 1058 l 439 1058 m 161 1058 l 161 1243 l 344 1243 l 344 1058 l 161 1058 m 200 1354 l 200 1481 l 583 1481 l 583 1354 l 200 1354 z "},"Ạ":{"ha":788,"x_min":-24,"x_max":811,"o":"m -24 0 l 386 985 l 400 985 l 811 0 l 622 0 l 568 140 l 222 140 l 171 0 l -24 0 m 369 539 l 272 275 l 517 275 l 415 539 l 392 617 l 369 539 m 307 -314 l 307 -128 l 496 -128 l 496 -314 l 307 -314 z "},"Ǡ":{"ha":788,"x_min":-24,"x_max":811,"o":"m -24 0 l 386 985 l 400 985 l 811 0 l 622 0 l 568 140 l 222 140 l 171 0 l -24 0 m 369 539 l 272 275 l 517 275 l 415 539 l 392 617 l 369 539 m 297 1058 l 297 1244 l 486 1244 l 486 1058 l 297 1058 m 200 1339 l 200 1465 l 583 1465 l 583 1339 l 200 1339 z "},"ǡ":{"ha":788,"x_min":-24,"x_max":811,"o":"m -24 0 l 386 985 l 400 985 l 811 0 l 622 0 l 568 140 l 222 140 l 171 0 l -24 0 m 369 539 l 272 275 l 517 275 l 415 539 l 392 617 l 369 539 m 297 1058 l 297 1244 l 486 1244 l 486 1058 l 297 1058 m 200 1339 l 200 1465 l 583 1465 l 583 1339 l 200 1339 z "},"À":{"ha":788,"x_min":-24,"x_max":811,"o":"m -24 0 l 386 985 l 400 985 l 811 0 l 622 0 l 568 140 l 222 140 l 171 0 l -24 0 m 369 539 l 272 275 l 517 275 l 415 539 l 392 617 l 369 539 m 351 1058 l 178 1313 l 349 1313 l 485 1058 l 351 1058 z "},"Ả":{"ha":788,"x_min":-24,"x_max":811,"o":"m -24 0 l 386 985 l 400 985 l 811 0 l 622 0 l 568 140 l 222 140 l 171 0 l -24 0 m 369 539 l 272 275 l 517 275 l 415 539 l 392 617 l 369 539 m 407 1058 q 363 1059 380 1058 q 324 1067 346 1060 l 300 1140 q 342 1136 319 1136 q 405 1150 374 1136 q 435 1203 435 1163 q 411 1245 435 1226 q 347 1264 388 1264 q 303 1256 326 1264 q 254 1235 281 1249 l 225 1321 q 288 1355 241 1335 q 386 1374 335 1374 q 469 1360 424 1374 q 546 1312 514 1347 q 578 1215 578 1278 q 558 1143 578 1179 q 500 1083 538 1107 q 407 1058 462 1058 z "},"Ȃ":{"ha":788,"x_min":-24,"x_max":811,"o":"m -24 0 l 386 985 l 400 985 l 811 0 l 622 0 l 568 140 l 222 140 l 171 0 l -24 0 m 369 539 l 272 275 l 517 275 l 415 539 l 392 617 l 369 539 m 158 1058 q 224 1244 158 1181 q 392 1307 289 1307 q 560 1245 494 1307 q 626 1058 626 1183 l 499 1058 q 476 1147 497 1117 q 392 1176 456 1176 q 309 1148 331 1176 q 285 1058 287 1120 l 158 1058 z "},"Ɑ":{"ha":1028,"x_min":51,"x_max":1014,"o":"m 444 -17 q 299 14 369 -17 q 173 108 228 45 q 84 268 117 171 q 51 497 51 365 q 107 764 51 656 q 255 929 162 873 q 460 985 347 985 q 588 969 539 985 q 666 933 636 953 l 666 968 l 837 968 l 837 224 q 846 158 837 178 q 869 133 856 138 q 892 128 882 128 q 939 140 921 128 q 978 166 957 151 l 1014 33 q 957 -1 1001 15 q 834 -17 913 -17 q 690 78 731 -17 q 603 10 660 38 q 444 -17 547 -17 m 451 142 q 570 161 517 142 q 666 224 624 180 l 666 756 q 601 798 628 783 q 543 819 574 813 q 467 825 513 825 q 346 784 396 825 q 270 671 297 743 q 244 507 244 599 q 305 234 244 326 q 451 142 366 142 z "},"Ā":{"ha":788,"x_min":-24,"x_max":811,"o":"m -24 0 l 386 985 l 400 985 l 811 0 l 622 0 l 568 140 l 222 140 l 171 0 l -24 0 m 369 539 l 272 275 l 517 275 l 415 539 l 392 617 l 369 539 m 200 1092 l 200 1218 l 583 1218 l 583 1092 l 200 1092 z "},"Ą":{"ha":814,"x_min":-24,"x_max":813,"o":"m 632 -140 q 655 -191 632 -176 q 718 -207 678 -207 q 763 -202 739 -207 q 813 -186 788 -198 l 813 -312 q 696 -333 767 -333 q 538 -292 588 -333 q 489 -178 489 -251 q 526 -69 489 -116 q 622 0 563 -22 l 568 140 l 222 140 l 171 0 l -24 0 l 386 985 l 400 985 l 810 1 q 683 -59 734 -19 q 632 -140 632 -99 m 369 539 l 272 275 l 517 275 l 415 539 l 392 617 l 369 539 z "},"Å":{"ha":814,"x_min":-24,"x_max":811,"o":"m -24 0 l 366 937 q 264 999 305 951 q 222 1114 222 1046 q 248 1209 222 1168 q 318 1273 274 1250 q 413 1296 361 1296 q 507 1272 464 1296 q 577 1208 551 1249 q 603 1114 603 1167 q 578 1022 603 1062 q 513 958 553 982 q 422 932 472 935 l 811 0 l 622 0 l 568 140 l 222 140 l 171 0 l -24 0 m 413 1021 q 475 1044 448 1021 q 501 1115 501 1067 q 475 1187 501 1165 q 413 1208 448 1208 q 350 1188 377 1208 q 324 1115 324 1167 q 350 1044 324 1067 q 413 1021 377 1021 m 369 539 l 272 275 l 517 275 l 415 539 l 392 617 l 369 539 z "},"Ǻ":{"ha":814,"x_min":-24,"x_max":811,"o":"m -24 0 l 368 941 q 264 1002 306 955 q 222 1118 222 1050 q 275 1244 222 1195 q 400 1298 327 1294 l 467 1433 l 607 1433 l 504 1277 q 576 1213 548 1255 q 604 1118 604 1172 q 579 1026 604 1066 q 512 962 553 985 q 420 936 470 938 l 811 0 l 622 0 l 568 140 l 222 140 l 171 0 l -24 0 m 413 1024 q 475 1047 448 1024 q 503 1118 503 1070 q 475 1191 503 1169 q 413 1213 448 1213 q 351 1191 378 1213 q 324 1118 324 1169 q 351 1047 324 1070 q 413 1024 378 1024 m 369 539 l 272 275 l 517 275 l 415 539 l 392 617 l 369 539 z "},"Ã":{"ha":788,"x_min":-24,"x_max":811,"o":"m -24 0 l 386 985 l 400 985 l 811 0 l 622 0 l 568 140 l 222 140 l 171 0 l -24 0 m 369 539 l 272 275 l 517 275 l 415 539 l 392 617 l 369 539 m 482 1063 q 414 1076 438 1063 q 371 1107 390 1090 q 340 1131 356 1122 q 301 1140 324 1140 q 257 1125 280 1140 q 221 1074 235 1109 l 149 1131 q 211 1221 171 1184 q 303 1258 251 1258 q 373 1244 349 1258 q 414 1214 397 1231 q 443 1192 428 1201 q 483 1183 458 1183 q 529 1201 508 1183 q 557 1256 550 1219 l 635 1196 q 609 1133 631 1163 q 555 1082 588 1102 q 482 1063 522 1063 z "},"Æ":{"ha":1165,"x_min":7,"x_max":1108,"o":"m 7 0 l 547 968 l 1081 968 l 1081 821 l 744 821 l 744 590 l 1013 590 l 1013 443 l 744 443 l 744 153 l 1108 153 l 1108 0 l 575 0 l 575 218 l 317 218 l 204 0 l 7 0 m 500 575 l 383 347 l 575 347 l 575 741 l 500 575 z "},"Ǽ":{"ha":1165,"x_min":7,"x_max":1108,"o":"m 7 0 l 547 968 l 1081 968 l 1081 821 l 744 821 l 744 590 l 1013 590 l 1013 443 l 744 443 l 744 153 l 1108 153 l 1108 0 l 575 0 l 575 218 l 317 218 l 204 0 l 7 0 m 500 575 l 383 347 l 575 347 l 575 741 l 500 575 m 668 1058 l 804 1313 l 975 1313 l 801 1058 l 668 1058 z "},"Ǣ":{"ha":1165,"x_min":7,"x_max":1108,"o":"m 7 0 l 547 968 l 1081 968 l 1081 821 l 744 821 l 744 590 l 1013 590 l 1013 443 l 744 443 l 744 153 l 1108 153 l 1108 0 l 575 0 l 575 218 l 317 218 l 204 0 l 7 0 m 500 575 l 383 347 l 575 347 l 575 741 l 500 575 m 556 1092 l 556 1218 l 939 1218 l 939 1092 l 556 1092 z "},"B":{"ha":789,"x_min":117,"x_max":750,"o":"m 117 0 l 117 968 l 375 968 q 624 900 546 968 q 701 710 701 833 q 675 598 701 655 q 588 513 649 541 q 710 432 671 492 q 750 279 750 372 q 663 76 750 151 q 379 0 575 0 l 117 0 m 375 831 l 292 831 l 292 563 l 404 563 q 479 585 451 563 q 518 641 506 608 q 529 704 529 674 q 507 782 529 754 q 450 820 485 809 q 375 831 415 831 m 390 433 l 292 433 l 292 140 l 399 140 q 479 151 440 140 q 542 194 517 163 q 567 289 567 226 q 541 383 567 352 q 474 424 515 414 q 390 433 433 433 z "},"Ḃ":{"ha":789,"x_min":117,"x_max":750,"o":"m 117 0 l 117 968 l 375 968 q 624 900 546 968 q 701 710 701 833 q 675 598 701 655 q 588 513 649 541 q 710 432 671 492 q 750 279 750 372 q 663 76 750 151 q 379 0 575 0 l 117 0 m 375 831 l 292 831 l 292 563 l 404 563 q 479 585 451 563 q 518 641 506 608 q 529 704 529 674 q 507 782 529 754 q 450 820 485 809 q 375 831 415 831 m 390 433 l 292 433 l 292 140 l 399 140 q 479 151 440 140 q 542 194 517 163 q 567 289 567 226 q 541 383 567 352 q 474 424 515 414 q 390 433 433 433 m 333 1058 l 333 1244 l 522 1244 l 522 1058 l 333 1058 z "},"Ḅ":{"ha":789,"x_min":117,"x_max":750,"o":"m 117 0 l 117 968 l 375 968 q 624 900 546 968 q 701 710 701 833 q 675 598 701 655 q 588 513 649 541 q 710 432 671 492 q 750 279 750 372 q 663 76 750 151 q 379 0 575 0 l 117 0 m 375 831 l 292 831 l 292 563 l 404 563 q 479 585 451 563 q 518 641 506 608 q 529 704 529 674 q 507 782 529 754 q 450 820 485 809 q 375 831 415 831 m 390 433 l 292 433 l 292 140 l 399 140 q 479 151 440 140 q 542 194 517 163 q 567 289 567 226 q 541 383 567 352 q 474 424 515 414 q 390 433 433 433 m 300 -304 l 300 -118 l 489 -118 l 489 -304 l 300 -304 z "},"Ɓ":{"ha":973,"x_min":7,"x_max":934,"o":"m 301 0 l 301 817 q 206 790 233 817 q 178 719 178 764 q 193 646 178 672 q 222 599 208 619 l 69 572 q 30 631 53 584 q 7 740 7 677 q 36 858 7 806 q 131 939 66 909 q 301 968 195 968 l 559 968 q 808 900 730 968 q 885 710 885 833 q 859 598 885 655 q 772 513 833 541 q 894 432 855 492 q 934 279 934 372 q 847 76 934 151 q 563 0 759 0 l 301 0 m 559 831 l 476 831 l 476 563 l 588 563 q 663 585 635 563 q 702 641 690 608 q 713 704 713 674 q 691 782 713 754 q 634 820 669 809 q 559 831 599 831 m 574 433 l 476 433 l 476 140 l 583 140 q 663 151 624 140 q 726 194 701 163 q 751 289 751 226 q 725 383 751 352 q 658 424 699 414 q 574 433 617 433 z "},"Ḇ":{"ha":789,"x_min":117,"x_max":750,"o":"m 117 0 l 117 968 l 375 968 q 624 900 546 968 q 701 710 701 833 q 675 598 701 655 q 588 513 649 541 q 710 432 671 492 q 750 279 750 372 q 663 76 750 151 q 379 0 575 0 l 117 0 m 375 831 l 292 831 l 292 563 l 404 563 q 479 585 451 563 q 518 641 506 608 q 529 704 529 674 q 507 782 529 754 q 450 820 485 809 q 375 831 415 831 m 390 433 l 292 433 l 292 140 l 399 140 q 479 151 440 140 q 542 194 517 163 q 567 289 567 226 q 541 383 567 352 q 474 424 515 414 q 390 433 433 433 m 203 -254 l 203 -128 l 586 -128 l 586 -254 l 203 -254 z "},"ƀ":{"ha":813,"x_min":29,"x_max":774,"o":"m 140 0 l 140 433 l 29 433 l 29 560 l 140 561 l 140 968 l 399 968 q 647 900 569 968 q 725 710 725 833 q 699 598 725 655 q 612 513 672 541 q 734 432 694 492 q 774 279 774 372 q 686 76 774 151 q 403 0 599 0 l 140 0 m 399 831 l 315 831 l 315 563 l 428 563 q 502 585 475 563 q 541 641 530 608 q 553 704 553 674 q 531 782 553 754 q 474 820 509 809 q 399 831 438 831 m 414 433 l 315 433 l 315 140 l 422 140 q 502 151 464 140 q 566 194 541 163 q 590 289 590 226 q 564 383 590 352 q 498 424 538 414 q 414 433 457 433 z "},"Ƀ":{"ha":813,"x_min":29,"x_max":774,"o":"m 140 0 l 140 433 l 29 433 l 29 560 l 140 561 l 140 968 l 399 968 q 647 900 569 968 q 725 710 725 833 q 699 598 725 655 q 612 513 672 541 q 734 432 694 492 q 774 279 774 372 q 686 76 774 151 q 403 0 599 0 l 140 0 m 399 831 l 315 831 l 315 563 l 428 563 q 502 585 475 563 q 541 641 530 608 q 553 704 553 674 q 531 782 553 754 q 474 820 509 809 q 399 831 438 831 m 414 433 l 315 433 l 315 140 l 422 140 q 502 151 464 140 q 566 194 541 163 q 590 289 590 226 q 564 383 590 352 q 498 424 538 414 q 414 433 457 433 z "},"C":{"ha":732,"x_min":51,"x_max":710,"o":"m 444 -17 q 299 14 369 -17 q 173 108 228 45 q 84 268 117 171 q 51 497 51 365 q 107 764 51 656 q 255 929 162 873 q 460 985 347 985 q 584 970 536 985 q 661 935 633 956 q 708 899 690 915 l 631 753 q 569 805 601 785 q 467 825 537 825 q 346 784 396 825 q 270 671 297 743 q 244 507 244 599 q 305 234 244 326 q 451 142 366 142 q 564 160 517 142 q 633 203 610 179 l 710 65 q 658 30 690 49 q 574 -3 626 11 q 444 -17 522 -17 z "},"Ć":{"ha":732,"x_min":51,"x_max":710,"o":"m 444 -17 q 299 14 369 -17 q 173 108 228 45 q 84 268 117 171 q 51 497 51 365 q 107 764 51 656 q 255 929 162 873 q 460 985 347 985 q 584 970 536 985 q 661 935 633 956 q 708 899 690 915 l 631 753 q 569 805 601 785 q 467 825 537 825 q 346 784 396 825 q 270 671 297 743 q 244 507 244 599 q 305 234 244 326 q 451 142 366 142 q 564 160 517 142 q 633 203 610 179 l 710 65 q 658 30 690 49 q 574 -3 626 11 q 444 -17 522 -17 m 364 1058 l 500 1313 l 671 1313 l 497 1058 l 364 1058 z "},"Č":{"ha":732,"x_min":51,"x_max":710,"o":"m 444 -17 q 299 14 369 -17 q 173 108 228 45 q 84 268 117 171 q 51 497 51 365 q 107 764 51 656 q 255 929 162 873 q 460 985 347 985 q 584 970 536 985 q 661 935 633 956 q 708 899 690 915 l 631 753 q 569 805 601 785 q 467 825 537 825 q 346 784 396 825 q 270 671 297 743 q 244 507 244 599 q 305 234 244 326 q 451 142 366 142 q 564 160 517 142 q 633 203 610 179 l 710 65 q 658 30 690 49 q 574 -3 626 11 q 444 -17 522 -17 m 400 1058 l 182 1313 l 321 1313 l 444 1195 l 558 1313 l 699 1313 l 486 1058 l 400 1058 z "},"Ç":{"ha":732,"x_min":51,"x_max":710,"o":"m 444 -17 q 299 14 369 -17 q 173 108 228 45 q 84 268 117 171 q 51 497 51 365 q 107 764 51 656 q 255 929 162 873 q 460 985 347 985 q 584 970 536 985 q 661 935 633 956 q 708 899 690 915 l 631 753 q 569 805 601 785 q 467 825 537 825 q 346 784 396 825 q 270 671 297 743 q 244 507 244 599 q 305 234 244 326 q 451 142 366 142 q 564 160 517 142 q 633 203 610 179 l 710 65 q 658 30 690 49 q 574 -3 626 11 q 444 -17 522 -17 m 383 -376 q 303 -357 341 -376 q 249 -324 265 -338 l 278 -237 q 329 -259 306 -252 q 375 -267 352 -267 q 436 -247 414 -267 q 458 -204 458 -228 q 428 -152 458 -165 q 365 -139 399 -139 q 344 -140 354 -139 q 324 -143 333 -142 l 358 22 l 483 22 l 457 -79 q 560 -122 519 -79 q 601 -218 601 -164 q 570 -320 601 -286 q 488 -365 538 -354 q 383 -376 438 -376 z "},"Ḉ":{"ha":732,"x_min":51,"x_max":710,"o":"m 444 -17 q 299 14 369 -17 q 173 108 228 45 q 84 268 117 171 q 51 497 51 365 q 107 764 51 656 q 255 929 162 873 q 460 985 347 985 q 584 970 536 985 q 661 935 633 956 q 708 899 690 915 l 631 753 q 569 805 601 785 q 467 825 537 825 q 346 784 396 825 q 270 671 297 743 q 244 507 244 599 q 305 234 244 326 q 451 142 366 142 q 564 160 517 142 q 633 203 610 179 l 710 65 q 658 30 690 49 q 574 -3 626 11 q 444 -17 522 -17 m 383 -376 q 303 -357 341 -376 q 249 -324 265 -338 l 278 -237 q 329 -259 306 -252 q 375 -267 352 -267 q 436 -247 414 -267 q 458 -204 458 -228 q 428 -152 458 -165 q 365 -139 399 -139 q 344 -140 354 -139 q 324 -143 333 -142 l 358 22 l 483 22 l 457 -79 q 560 -122 519 -79 q 601 -218 601 -164 q 570 -320 601 -286 q 488 -365 538 -354 q 383 -376 438 -376 m 364 1058 l 500 1313 l 671 1313 l 497 1058 l 364 1058 z "},"Ĉ":{"ha":732,"x_min":51,"x_max":710,"o":"m 444 -17 q 299 14 369 -17 q 173 108 228 45 q 84 268 117 171 q 51 497 51 365 q 107 764 51 656 q 255 929 162 873 q 460 985 347 985 q 584 970 536 985 q 661 935 633 956 q 708 899 690 915 l 631 753 q 569 805 601 785 q 467 825 537 825 q 346 784 396 825 q 270 671 297 743 q 244 507 244 599 q 305 234 244 326 q 451 142 366 142 q 564 160 517 142 q 633 203 610 179 l 710 65 q 658 30 690 49 q 574 -3 626 11 q 444 -17 522 -17 m 182 1058 l 400 1313 l 486 1313 l 699 1058 l 558 1058 l 444 1176 l 321 1058 l 182 1058 z "},"Ċ":{"ha":732,"x_min":51,"x_max":710,"o":"m 444 -17 q 299 14 369 -17 q 173 108 228 45 q 84 268 117 171 q 51 497 51 365 q 107 764 51 656 q 255 929 162 873 q 460 985 347 985 q 584 970 536 985 q 661 935 633 956 q 708 899 690 915 l 631 753 q 569 805 601 785 q 467 825 537 825 q 346 784 396 825 q 270 671 297 743 q 244 507 244 599 q 305 234 244 326 q 451 142 366 142 q 564 160 517 142 q 633 203 610 179 l 710 65 q 658 30 690 49 q 574 -3 626 11 q 444 -17 522 -17 m 349 1058 l 349 1244 l 538 1244 l 538 1058 l 349 1058 z "},"Ƈ":{"ha":779,"x_min":51,"x_max":918,"o":"m 444 -17 q 299 14 369 -17 q 173 108 228 45 q 84 268 117 171 q 51 497 51 365 q 107 764 51 656 q 255 929 162 873 q 460 985 347 985 q 518 982 492 985 q 567 974 545 979 q 584 1101 567 1041 q 647 1198 602 1160 q 775 1235 692 1235 q 867 1216 828 1235 q 918 1178 906 1197 l 882 1046 q 843 1072 861 1060 q 797 1083 825 1083 q 708 899 688 1083 l 631 753 q 569 805 601 785 q 467 825 537 825 q 346 784 396 825 q 270 671 297 743 q 244 507 244 599 q 305 234 244 326 q 451 142 366 142 q 564 160 517 142 q 633 203 610 179 l 710 65 q 658 30 690 49 q 574 -3 626 11 q 444 -17 522 -17 z "},"D":{"ha":843,"x_min":113,"x_max":801,"o":"m 113 0 l 113 968 l 363 968 q 687 850 573 968 q 801 496 801 733 q 751 233 801 344 q 602 61 700 122 q 361 0 503 0 l 113 0 m 357 829 l 292 829 l 292 153 l 357 153 q 484 182 433 153 q 565 259 535 210 q 608 368 595 307 q 621 492 621 428 q 597 656 621 579 q 515 781 572 733 q 357 829 457 829 z "},"Ǳ":{"ha":1557,"x_min":113,"x_max":1518,"o":"m 113 0 l 113 968 l 363 968 q 687 850 573 968 q 801 496 801 733 q 751 233 801 344 q 602 61 700 122 q 361 0 503 0 l 113 0 m 357 829 l 292 829 l 292 153 l 357 153 q 484 182 433 153 q 565 259 535 210 q 608 368 595 307 q 621 492 621 428 q 597 656 621 579 q 515 781 572 733 q 357 829 457 829 m 871 0 l 1256 818 l 917 818 l 917 968 l 1518 968 l 1138 150 l 1500 150 l 1500 0 l 871 0 z "},"Ǆ":{"ha":1557,"x_min":113,"x_max":1518,"o":"m 113 0 l 113 968 l 363 968 q 687 850 573 968 q 801 496 801 733 q 751 233 801 344 q 602 61 700 122 q 361 0 503 0 l 113 0 m 357 829 l 292 829 l 292 153 l 357 153 q 484 182 433 153 q 565 259 535 210 q 608 368 595 307 q 621 492 621 428 q 597 656 621 579 q 515 781 572 733 q 357 829 457 829 m 871 0 l 1256 818 l 917 818 l 917 968 l 1518 968 l 1138 150 l 1500 150 l 1500 0 l 871 0 m 1175 1058 l 957 1313 l 1096 1313 l 1219 1195 l 1333 1313 l 1474 1313 l 1261 1058 l 1175 1058 z "},"Ɖ":{"ha":843,"x_min":29,"x_max":801,"o":"m 113 0 l 113 439 l 29 439 l 29 557 l 113 557 l 113 968 l 363 968 q 687 850 573 968 q 801 496 801 733 q 751 233 801 344 q 602 61 700 122 q 361 0 503 0 l 113 0 m 469 439 l 292 439 l 292 153 l 357 153 q 484 182 433 153 q 565 259 535 210 q 608 368 595 307 q 621 492 621 428 q 597 656 621 579 q 515 781 572 733 q 357 829 457 829 l 292 829 l 292 557 l 469 557 l 469 439 z "},"Ð":{"ha":843,"x_min":29,"x_max":801,"o":"m 113 0 l 113 439 l 29 439 l 29 557 l 113 557 l 113 968 l 363 968 q 687 850 573 968 q 801 496 801 733 q 751 233 801 344 q 602 61 700 122 q 361 0 503 0 l 113 0 m 469 439 l 292 439 l 292 153 l 357 153 q 484 182 433 153 q 565 259 535 210 q 608 368 595 307 q 621 492 621 428 q 597 656 621 579 q 515 781 572 733 q 357 829 457 829 l 292 829 l 292 557 l 469 557 l 469 439 z "},"Ď":{"ha":843,"x_min":113,"x_max":801,"o":"m 113 0 l 113 968 l 363 968 q 687 850 573 968 q 801 496 801 733 q 751 233 801 344 q 602 61 700 122 q 361 0 503 0 l 113 0 m 357 829 l 292 829 l 292 153 l 357 153 q 484 182 433 153 q 565 259 535 210 q 608 368 595 307 q 621 492 621 428 q 597 656 621 579 q 515 781 572 733 q 357 829 457 829 m 406 1058 l 188 1313 l 326 1313 l 449 1195 l 564 1313 l 704 1313 l 492 1058 l 406 1058 z "},"Ḑ":{"ha":843,"x_min":113,"x_max":801,"o":"m 113 0 l 113 968 l 363 968 q 687 850 573 968 q 801 496 801 733 q 751 233 801 344 q 602 61 700 122 q 361 0 503 0 l 113 0 m 357 829 l 292 829 l 292 153 l 357 153 q 484 182 433 153 q 565 259 535 210 q 608 368 595 307 q 621 492 621 428 q 597 656 621 579 q 515 781 572 733 q 357 829 457 829 m 294 -372 q 311 -315 298 -360 q 325 -186 325 -269 q 325 -152 325 -169 q 324 -118 325 -135 l 497 -118 q 498 -149 499 -126 q 497 -176 497 -171 q 480 -277 497 -237 q 443 -340 462 -317 q 422 -372 425 -363 l 294 -372 z "},"Ḓ":{"ha":843,"x_min":113,"x_max":801,"o":"m 113 0 l 113 968 l 363 968 q 687 850 573 968 q 801 496 801 733 q 751 233 801 344 q 602 61 700 122 q 361 0 503 0 l 113 0 m 357 829 l 292 829 l 292 153 l 357 153 q 484 182 433 153 q 565 259 535 210 q 608 368 595 307 q 621 492 621 428 q 597 656 621 579 q 515 781 572 733 q 357 829 457 829 z "},"Đ":{"ha":843,"x_min":29,"x_max":801,"o":"m 113 0 l 113 439 l 29 439 l 29 557 l 113 557 l 113 968 l 363 968 q 687 850 573 968 q 801 496 801 733 q 751 233 801 344 q 602 61 700 122 q 361 0 503 0 l 113 0 m 469 439 l 292 439 l 292 153 l 357 153 q 484 182 433 153 q 565 259 535 210 q 608 368 595 307 q 621 492 621 428 q 597 656 621 579 q 515 781 572 733 q 357 829 457 829 l 292 829 l 292 557 l 469 557 l 469 439 z "},"Ḋ":{"ha":843,"x_min":113,"x_max":801,"o":"m 113 0 l 113 968 l 363 968 q 687 850 573 968 q 801 496 801 733 q 751 233 801 344 q 602 61 700 122 q 361 0 503 0 l 113 0 m 357 829 l 292 829 l 292 153 l 357 153 q 484 182 433 153 q 565 259 535 210 q 608 368 595 307 q 621 492 621 428 q 597 656 621 579 q 515 781 572 733 q 357 829 457 829 m 354 1058 l 354 1244 l 543 1244 l 543 1058 l 354 1058 z "},"Ḍ":{"ha":843,"x_min":113,"x_max":801,"o":"m 113 0 l 113 968 l 363 968 q 687 850 573 968 q 801 496 801 733 q 751 233 801 344 q 602 61 700 122 q 361 0 503 0 l 113 0 m 357 829 l 292 829 l 292 153 l 357 153 q 484 182 433 153 q 565 259 535 210 q 608 368 595 307 q 621 492 621 428 q 597 656 621 579 q 515 781 572 733 q 357 829 457 829 m 310 -304 l 310 -118 l 499 -118 l 499 -304 l 310 -304 z "},"Ɗ":{"ha":1031,"x_min":7,"x_max":990,"o":"m 301 0 l 301 817 q 206 790 233 817 q 178 719 178 764 q 193 646 178 672 q 222 599 208 619 l 69 572 q 30 631 53 584 q 7 740 7 677 q 36 858 7 806 q 131 939 66 909 q 301 968 195 968 l 551 968 q 875 850 761 968 q 990 496 990 733 q 939 233 990 344 q 790 61 888 122 q 549 0 692 0 l 301 0 m 545 829 l 480 829 l 480 153 l 545 153 q 672 182 622 153 q 753 259 723 210 q 796 368 783 307 q 809 492 809 428 q 785 656 809 579 q 703 781 760 733 q 545 829 645 829 z "},"Ḏ":{"ha":843,"x_min":113,"x_max":801,"o":"m 113 0 l 113 968 l 363 968 q 687 850 573 968 q 801 496 801 733 q 751 233 801 344 q 602 61 700 122 q 361 0 503 0 l 113 0 m 357 829 l 292 829 l 292 153 l 357 153 q 484 182 433 153 q 565 259 535 210 q 608 368 595 307 q 621 492 621 428 q 597 656 621 579 q 515 781 572 733 q 357 829 457 829 m 213 -254 l 213 -128 l 596 -128 l 596 -254 l 213 -254 z "},"ǲ":{"ha":1460,"x_min":113,"x_max":1442,"o":"m 113 0 l 113 968 l 363 968 q 687 850 573 968 q 801 496 801 733 q 751 233 801 344 q 602 61 700 122 q 361 0 503 0 l 113 0 m 357 829 l 292 829 l 292 153 l 357 153 q 484 182 433 153 q 565 259 535 210 q 608 368 595 307 q 621 492 621 428 q 597 656 621 579 q 515 781 572 733 q 357 829 457 829 m 861 0 l 1174 560 l 919 560 l 919 692 l 1442 692 l 1129 126 l 1414 126 l 1414 0 l 861 0 z "},"ǅ":{"ha":1460,"x_min":113,"x_max":1442,"o":"m 113 0 l 113 968 l 363 968 q 687 850 573 968 q 801 496 801 733 q 751 233 801 344 q 602 61 700 122 q 361 0 503 0 l 113 0 m 357 829 l 292 829 l 292 153 l 357 153 q 484 182 433 153 q 565 259 535 210 q 608 368 595 307 q 621 492 621 428 q 597 656 621 579 q 515 781 572 733 q 357 829 457 829 m 861 0 l 1174 560 l 919 560 l 919 692 l 1442 692 l 1129 126 l 1414 126 l 1414 0 l 861 0 m 1138 804 l 939 1085 l 1078 1085 l 1181 951 l 1282 1085 l 1422 1085 l 1224 804 l 1138 804 z "},"E":{"ha":703,"x_min":113,"x_max":646,"o":"m 113 0 l 113 968 l 618 968 l 618 817 l 286 817 l 286 590 l 550 590 l 550 443 l 286 443 l 286 157 l 646 157 l 646 0 l 113 0 z "},"É":{"ha":703,"x_min":113,"x_max":646,"o":"m 113 0 l 113 968 l 618 968 l 618 817 l 286 817 l 286 590 l 550 590 l 550 443 l 286 443 l 286 157 l 646 157 l 646 0 l 113 0 m 297 1058 l 433 1313 l 604 1313 l 431 1058 l 297 1058 z "},"Ĕ":{"ha":703,"x_min":113,"x_max":646,"o":"m 113 0 l 113 968 l 618 968 l 618 817 l 286 817 l 286 590 l 550 590 l 550 443 l 286 443 l 286 157 l 646 157 l 646 0 l 113 0 m 376 1058 q 208 1121 274 1058 q 143 1307 143 1184 l 269 1307 q 293 1217 272 1246 q 376 1189 315 1189 q 461 1219 441 1189 q 483 1307 481 1249 l 611 1307 q 545 1120 611 1182 q 376 1058 478 1058 z "},"Ě":{"ha":703,"x_min":113,"x_max":646,"o":"m 113 0 l 113 968 l 618 968 l 618 817 l 286 817 l 286 590 l 550 590 l 550 443 l 286 443 l 286 157 l 646 157 l 646 0 l 113 0 m 333 1058 l 115 1313 l 254 1313 l 377 1195 l 492 1313 l 632 1313 l 419 1058 l 333 1058 z "},"Ȩ":{"ha":703,"x_min":113,"x_max":646,"o":"m 113 0 l 113 968 l 618 968 l 618 817 l 286 817 l 286 590 l 550 590 l 550 443 l 286 443 l 286 157 l 646 157 l 646 0 l 113 0 m 333 -376 q 253 -357 291 -376 q 199 -324 215 -338 l 228 -237 q 279 -259 256 -252 q 325 -267 302 -267 q 386 -247 364 -267 q 408 -204 408 -228 q 378 -152 408 -165 q 315 -139 349 -139 q 294 -140 304 -139 q 274 -143 283 -142 l 308 22 l 433 22 l 407 -79 q 510 -122 469 -79 q 551 -218 551 -164 q 520 -320 551 -286 q 438 -365 488 -354 q 333 -376 388 -376 z "},"Ḝ":{"ha":703,"x_min":113,"x_max":646,"o":"m 113 0 l 113 968 l 618 968 l 618 817 l 286 817 l 286 590 l 550 590 l 550 443 l 286 443 l 286 157 l 646 157 l 646 0 l 113 0 m 333 -376 q 253 -357 291 -376 q 199 -324 215 -338 l 228 -237 q 279 -259 256 -252 q 325 -267 302 -267 q 386 -247 364 -267 q 408 -204 408 -228 q 378 -152 408 -165 q 315 -139 349 -139 q 294 -140 304 -139 q 274 -143 283 -142 l 308 22 l 433 22 l 407 -79 q 510 -122 469 -79 q 551 -218 551 -164 q 520 -320 551 -286 q 438 -365 488 -354 q 333 -376 388 -376 m 376 1058 q 208 1121 274 1058 q 143 1307 143 1184 l 269 1307 q 293 1217 272 1246 q 376 1189 315 1189 q 461 1219 441 1189 q 483 1307 481 1249 l 611 1307 q 545 1120 611 1182 q 376 1058 478 1058 z "},"Ê":{"ha":703,"x_min":113,"x_max":646,"o":"m 113 0 l 113 968 l 618 968 l 618 817 l 286 817 l 286 590 l 550 590 l 550 443 l 286 443 l 286 157 l 646 157 l 646 0 l 113 0 m 115 1058 l 333 1313 l 419 1313 l 632 1058 l 492 1058 l 377 1176 l 254 1058 l 115 1058 z "},"Ế":{"ha":703,"x_min":113,"x_max":744,"o":"m 113 0 l 113 968 l 618 968 l 618 817 l 286 817 l 286 590 l 550 590 l 550 443 l 286 443 l 286 157 l 646 157 l 646 0 l 113 0 m 490 1304 l 596 1499 l 744 1499 l 607 1304 l 490 1304 m 161 1058 l 338 1283 l 414 1283 l 589 1058 l 465 1058 l 376 1154 l 285 1058 l 161 1058 z "},"Ḙ":{"ha":703,"x_min":113,"x_max":646,"o":"m 113 0 l 113 968 l 618 968 l 618 817 l 286 817 l 286 590 l 550 590 l 550 443 l 286 443 l 286 157 l 646 157 l 646 0 l 113 0 m 124 -367 l 322 -128 l 408 -128 l 607 -367 l 467 -367 l 366 -253 l 263 -367 l 124 -367 z "},"Ệ":{"ha":703,"x_min":113,"x_max":646,"o":"m 113 0 l 113 968 l 618 968 l 618 817 l 286 817 l 286 590 l 550 590 l 550 443 l 286 443 l 286 157 l 646 157 l 646 0 l 113 0 m 271 -314 l 271 -128 l 460 -128 l 460 -314 l 271 -314 m 115 1058 l 333 1313 l 419 1313 l 632 1058 l 492 1058 l 377 1176 l 254 1058 l 115 1058 z "},"Ề":{"ha":703,"x_min":113,"x_max":651,"o":"m 113 0 l 113 968 l 618 968 l 618 817 l 286 817 l 286 590 l 550 590 l 550 443 l 286 443 l 286 157 l 646 157 l 646 0 l 113 0 m 536 1304 l 399 1499 l 547 1499 l 651 1304 l 536 1304 m 163 1058 l 338 1283 l 414 1283 l 590 1058 l 467 1058 l 376 1154 l 285 1058 l 163 1058 z "},"Ể":{"ha":703,"x_min":113,"x_max":646,"o":"m 113 0 l 113 968 l 618 968 l 618 817 l 286 817 l 286 590 l 550 590 l 550 443 l 286 443 l 286 157 l 646 157 l 646 0 l 113 0 m 392 1343 l 354 1343 q 336 1344 345 1343 q 315 1347 327 1344 l 294 1417 q 312 1415 303 1416 q 331 1414 322 1414 q 389 1426 361 1414 q 417 1474 417 1438 q 395 1511 417 1494 q 336 1528 374 1528 q 297 1521 317 1528 q 253 1501 277 1514 l 226 1581 q 284 1610 241 1593 q 372 1628 326 1628 q 448 1616 407 1628 q 517 1572 488 1603 q 546 1485 546 1541 q 528 1419 546 1452 q 475 1365 510 1387 q 392 1343 441 1343 m 163 1058 l 338 1283 l 414 1283 l 590 1058 l 467 1058 l 376 1154 l 285 1058 l 163 1058 z "},"Ễ":{"ha":703,"x_min":113,"x_max":646,"o":"m 113 0 l 113 968 l 618 968 l 618 817 l 286 817 l 286 590 l 550 590 l 550 443 l 286 443 l 286 157 l 646 157 l 646 0 l 113 0 m 475 1322 q 414 1335 441 1322 q 364 1364 386 1349 q 328 1387 340 1382 q 306 1392 315 1392 q 264 1382 285 1392 q 236 1335 244 1372 l 167 1382 q 200 1461 167 1428 q 288 1494 233 1494 q 349 1482 323 1494 q 394 1456 375 1470 q 428 1435 413 1443 q 461 1428 444 1428 q 501 1434 485 1428 q 517 1481 516 1441 l 586 1432 q 557 1355 586 1388 q 475 1322 528 1322 m 163 1058 l 338 1283 l 414 1283 l 590 1058 l 467 1058 l 376 1154 l 285 1058 l 163 1058 z "},"Ȅ":{"ha":703,"x_min":15,"x_max":646,"o":"m 113 0 l 113 968 l 618 968 l 618 817 l 286 817 l 286 590 l 550 590 l 550 443 l 286 443 l 286 157 l 646 157 l 646 0 l 113 0 m 194 1058 l 15 1313 l 168 1313 l 315 1058 l 194 1058 m 485 1058 l 308 1313 l 460 1313 l 606 1058 l 485 1058 z "},"Ë":{"ha":703,"x_min":113,"x_max":646,"o":"m 113 0 l 113 968 l 618 968 l 618 817 l 286 817 l 286 590 l 550 590 l 550 443 l 286 443 l 286 157 l 646 157 l 646 0 l 113 0 m 424 1058 l 424 1243 l 607 1243 l 607 1058 l 424 1058 m 146 1058 l 146 1243 l 329 1243 l 329 1058 l 146 1058 z "},"Ė":{"ha":703,"x_min":113,"x_max":646,"o":"m 113 0 l 113 968 l 618 968 l 618 817 l 286 817 l 286 590 l 550 590 l 550 443 l 286 443 l 286 157 l 646 157 l 646 0 l 113 0 m 282 1058 l 282 1244 l 471 1244 l 471 1058 l 282 1058 z "},"Ẹ":{"ha":703,"x_min":113,"x_max":646,"o":"m 113 0 l 113 968 l 618 968 l 618 817 l 286 817 l 286 590 l 550 590 l 550 443 l 286 443 l 286 157 l 646 157 l 646 0 l 113 0 m 271 -314 l 271 -128 l 460 -128 l 460 -314 l 271 -314 z "},"È":{"ha":703,"x_min":113,"x_max":646,"o":"m 113 0 l 113 968 l 618 968 l 618 817 l 286 817 l 286 590 l 550 590 l 550 443 l 286 443 l 286 157 l 646 157 l 646 0 l 113 0 m 336 1058 l 163 1313 l 333 1313 l 469 1058 l 336 1058 z "},"Ẻ":{"ha":703,"x_min":113,"x_max":646,"o":"m 113 0 l 113 968 l 618 968 l 618 817 l 286 817 l 286 590 l 550 590 l 550 443 l 286 443 l 286 157 l 646 157 l 646 0 l 113 0 m 392 1058 q 348 1059 365 1058 q 308 1067 331 1060 l 285 1140 q 326 1136 303 1136 q 389 1150 359 1136 q 419 1203 419 1163 q 396 1245 419 1226 q 332 1264 373 1264 q 288 1256 310 1264 q 239 1235 266 1249 l 210 1321 q 273 1355 226 1335 q 371 1374 320 1374 q 454 1360 409 1374 q 531 1312 499 1347 q 563 1215 563 1278 q 543 1143 563 1179 q 485 1083 523 1107 q 392 1058 447 1058 z "},"Ȇ":{"ha":703,"x_min":113,"x_max":646,"o":"m 113 0 l 113 968 l 618 968 l 618 817 l 286 817 l 286 590 l 550 590 l 550 443 l 286 443 l 286 157 l 646 157 l 646 0 l 113 0 m 143 1058 q 208 1244 143 1181 q 376 1307 274 1307 q 545 1245 478 1307 q 611 1058 611 1183 l 483 1058 q 461 1147 481 1117 q 376 1176 441 1176 q 293 1148 315 1176 q 269 1058 272 1120 l 143 1058 z "},"Ē":{"ha":703,"x_min":113,"x_max":646,"o":"m 113 0 l 113 968 l 618 968 l 618 817 l 286 817 l 286 590 l 550 590 l 550 443 l 286 443 l 286 157 l 646 157 l 646 0 l 113 0 m 185 1092 l 185 1218 l 568 1218 l 568 1092 l 185 1092 z "},"Ḗ":{"ha":703,"x_min":113,"x_max":646,"o":"m 113 0 l 113 968 l 618 968 l 618 817 l 286 817 l 286 590 l 550 590 l 550 443 l 286 443 l 286 157 l 646 157 l 646 0 l 113 0 m 185 1092 l 185 1218 l 568 1218 l 568 1092 l 185 1092 m 297 1306 l 433 1560 l 604 1560 l 431 1306 l 297 1306 z "},"Ḕ":{"ha":703,"x_min":113,"x_max":646,"o":"m 113 0 l 113 968 l 618 968 l 618 817 l 286 817 l 286 590 l 550 590 l 550 443 l 286 443 l 286 157 l 646 157 l 646 0 l 113 0 m 185 1092 l 185 1218 l 568 1218 l 568 1092 l 185 1092 m 336 1306 l 163 1560 l 333 1560 l 469 1306 l 336 1306 z "},"Ę":{"ha":704,"x_min":113,"x_max":647,"o":"m 467 -140 q 490 -191 467 -176 q 553 -207 513 -207 q 598 -202 574 -207 q 647 -186 622 -198 l 647 -326 q 531 -347 602 -347 q 366 -299 422 -347 q 310 -178 310 -251 q 346 -79 310 -130 q 466 0 382 -28 l 113 0 l 113 968 l 618 968 l 618 817 l 286 817 l 286 590 l 550 590 l 550 443 l 286 443 l 286 157 l 646 157 l 646 1 l 647 0 q 558 -33 599 -12 q 492 -83 517 -55 q 467 -140 467 -110 z "},"Ɛ":{"ha":711,"x_min":39,"x_max":689,"o":"m 399 992 q 551 972 478 992 q 683 911 625 953 l 625 753 q 529 813 585 792 q 417 833 472 833 q 279 789 323 833 q 235 678 235 744 q 262 592 235 622 q 334 551 290 562 q 429 540 378 540 l 503 540 l 503 403 l 428 403 q 301 361 342 403 q 260 256 260 319 q 301 162 260 187 q 417 138 342 138 q 482 147 444 138 q 557 176 519 157 q 619 222 594 194 l 689 75 q 568 8 647 38 q 379 -21 489 -21 q 150 44 235 -21 q 65 228 65 109 q 84 332 65 281 q 139 420 103 383 q 226 471 175 458 q 125 503 167 471 q 61 588 83 536 q 39 699 39 640 q 88 856 39 790 q 218 957 136 922 q 399 992 299 992 z "},"Ǝ":{"ha":703,"x_min":57,"x_max":590,"o":"m 590 0 l 57 0 l 57 157 l 417 157 l 417 443 l 153 443 l 153 590 l 417 590 l 417 817 l 85 817 l 85 968 l 590 968 l 590 0 z "},"Ʃ":{"ha":736,"x_min":14,"x_max":688,"o":"m 14 0 l 278 488 l 14 968 l 660 968 l 660 807 l 288 807 l 468 488 l 284 153 l 688 153 l 688 0 l 14 0 z "},"Ɇ":{"ha":703,"x_min":113,"x_max":646,"o":"m 113 0 l 113 968 l 465 968 l 499 1139 l 588 1139 l 554 968 l 618 968 l 618 817 l 524 817 l 480 590 l 550 590 l 550 443 l 451 443 l 394 157 l 646 157 l 646 0 l 363 0 l 328 -178 l 240 -178 l 275 0 l 113 0 m 286 590 l 391 590 l 435 817 l 286 817 l 286 590 m 286 157 l 306 157 l 362 443 l 286 443 l 286 157 z "},"Ẽ":{"ha":703,"x_min":113,"x_max":646,"o":"m 113 0 l 113 968 l 618 968 l 618 817 l 286 817 l 286 590 l 550 590 l 550 443 l 286 443 l 286 157 l 646 157 l 646 0 l 113 0 m 467 1063 q 399 1076 423 1063 q 356 1107 374 1090 q 325 1131 340 1122 q 286 1140 309 1140 q 242 1125 265 1140 q 206 1074 219 1109 l 133 1131 q 195 1221 156 1184 q 288 1258 235 1258 q 358 1244 333 1258 q 399 1214 382 1231 q 428 1192 413 1201 q 468 1183 443 1183 q 514 1201 492 1183 q 542 1256 535 1219 l 619 1196 q 594 1133 615 1163 q 540 1082 573 1102 q 467 1063 507 1063 z "},"Ə":{"ha":879,"x_min":54,"x_max":825,"o":"m 438 985 q 643 927 556 985 q 777 762 730 869 q 825 506 825 655 q 777 229 825 346 q 642 49 730 113 q 435 -14 555 -14 q 222 46 306 -14 q 96 214 138 106 q 54 464 54 322 l 54 535 l 640 535 q 573 752 633 674 q 415 831 513 831 q 315 813 358 831 q 242 770 272 794 q 199 728 213 746 l 121 871 q 254 951 173 917 q 438 985 335 985 m 440 128 q 570 200 519 128 q 636 397 622 272 l 240 397 q 260 273 240 335 q 323 169 279 210 q 440 128 367 128 z "},"Ʒ":{"ha":786,"x_min":57,"x_max":740,"o":"m 256 549 l 460 813 l 86 813 l 86 968 l 740 968 l 440 556 q 579 523 525 549 q 663 459 633 497 q 705 378 693 422 q 717 292 717 334 q 676 138 717 208 q 559 25 635 68 q 379 -17 483 -17 q 218 -2 281 -17 q 116 34 154 14 q 57 66 78 53 l 135 197 q 185 171 151 186 q 264 144 218 156 q 363 132 310 132 q 511 175 469 132 q 554 298 554 219 q 528 376 554 348 q 459 417 502 405 q 363 429 415 428 q 256 424 310 429 l 256 549 z "},"Ǯ":{"ha":786,"x_min":57,"x_max":740,"o":"m 256 549 l 460 813 l 86 813 l 86 968 l 740 968 l 440 556 q 579 523 525 549 q 663 459 633 497 q 705 378 693 422 q 717 292 717 334 q 676 138 717 208 q 559 25 635 68 q 379 -17 483 -17 q 218 -2 281 -17 q 116 34 154 14 q 57 66 78 53 l 135 197 q 185 171 151 186 q 264 144 218 156 q 363 132 310 132 q 511 175 469 132 q 554 298 554 219 q 528 376 554 348 q 459 417 502 405 q 363 429 415 428 q 256 424 310 429 l 256 549 m 333 1058 l 115 1313 l 254 1313 l 377 1195 l 492 1313 l 632 1313 l 419 1058 l 333 1058 z "},"F":{"ha":644,"x_min":117,"x_max":622,"o":"m 117 0 l 117 968 l 622 968 l 622 815 l 294 815 l 294 561 l 581 561 l 581 406 l 294 406 l 294 0 l 117 0 z "},"Ḟ":{"ha":644,"x_min":117,"x_max":622,"o":"m 117 0 l 117 968 l 622 968 l 622 815 l 294 815 l 294 561 l 581 561 l 581 406 l 294 406 l 294 0 l 117 0 m 272 1058 l 272 1244 l 461 1244 l 461 1058 l 272 1058 z "},"Ƒ":{"ha":653,"x_min":-125,"x_max":631,"o":"m 303 -28 q 243 -211 305 -142 q 53 -281 181 -281 q -64 -259 -15 -281 q -125 -219 -112 -237 l -76 -86 q -36 -112 -56 -101 q 23 -124 -16 -124 q 101 -103 76 -124 q 126 -28 126 -83 l 126 968 l 631 968 l 631 815 l 303 815 l 303 561 l 590 561 l 590 406 l 303 406 l 303 -28 z "},"G":{"ha":874,"x_min":51,"x_max":828,"o":"m 457 -25 q 243 36 334 -25 q 102 213 152 97 q 51 493 51 329 q 106 748 51 637 q 258 922 161 858 q 481 985 355 985 q 627 970 572 985 q 714 936 683 956 q 763 899 744 916 l 686 744 q 653 776 676 758 q 590 808 631 794 q 483 821 549 821 q 358 780 413 821 q 270 666 302 739 q 238 497 238 593 q 299 227 238 324 q 460 131 360 131 q 612 182 567 131 q 657 329 657 233 q 656 367 657 346 l 457 367 l 457 519 l 819 519 q 825 451 823 488 q 828 385 828 414 q 813 233 828 306 q 757 101 797 159 q 644 9 717 43 q 457 -25 572 -25 z "},"Ǵ":{"ha":874,"x_min":51,"x_max":828,"o":"m 457 -25 q 243 36 334 -25 q 102 213 152 97 q 51 493 51 329 q 106 748 51 637 q 258 922 161 858 q 481 985 355 985 q 627 970 572 985 q 714 936 683 956 q 763 899 744 916 l 686 744 q 653 776 676 758 q 590 808 631 794 q 483 821 549 821 q 358 780 413 821 q 270 666 302 739 q 238 497 238 593 q 299 227 238 324 q 460 131 360 131 q 612 182 567 131 q 657 329 657 233 q 656 367 657 346 l 457 367 l 457 519 l 819 519 q 825 451 823 488 q 828 385 828 414 q 813 233 828 306 q 757 101 797 159 q 644 9 717 43 q 457 -25 572 -25 m 396 1058 l 532 1313 l 703 1313 l 529 1058 l 396 1058 z "},"Ğ":{"ha":874,"x_min":51,"x_max":828,"o":"m 457 -25 q 243 36 334 -25 q 102 213 152 97 q 51 493 51 329 q 106 748 51 637 q 258 922 161 858 q 481 985 355 985 q 627 970 572 985 q 714 936 683 956 q 763 899 744 916 l 686 744 q 653 776 676 758 q 590 808 631 794 q 483 821 549 821 q 358 780 413 821 q 270 666 302 739 q 238 497 238 593 q 299 227 238 324 q 460 131 360 131 q 612 182 567 131 q 657 329 657 233 q 656 367 657 346 l 457 367 l 457 519 l 819 519 q 825 451 823 488 q 828 385 828 414 q 813 233 828 306 q 757 101 797 159 q 644 9 717 43 q 457 -25 572 -25 m 475 1058 q 307 1121 372 1058 q 242 1307 242 1184 l 368 1307 q 392 1217 370 1246 q 475 1189 414 1189 q 560 1219 540 1189 q 582 1307 580 1249 l 710 1307 q 643 1120 710 1182 q 475 1058 577 1058 z "},"Ǧ":{"ha":874,"x_min":51,"x_max":828,"o":"m 457 -25 q 243 36 334 -25 q 102 213 152 97 q 51 493 51 329 q 106 748 51 637 q 258 922 161 858 q 481 985 355 985 q 627 970 572 985 q 714 936 683 956 q 763 899 744 916 l 686 744 q 653 776 676 758 q 590 808 631 794 q 483 821 549 821 q 358 780 413 821 q 270 666 302 739 q 238 497 238 593 q 299 227 238 324 q 460 131 360 131 q 612 182 567 131 q 657 329 657 233 q 656 367 657 346 l 457 367 l 457 519 l 819 519 q 825 451 823 488 q 828 385 828 414 q 813 233 828 306 q 757 101 797 159 q 644 9 717 43 q 457 -25 572 -25 m 432 1058 l 214 1313 l 353 1313 l 476 1195 l 590 1313 l 731 1313 l 518 1058 l 432 1058 z "},"Ĝ":{"ha":874,"x_min":51,"x_max":828,"o":"m 457 -25 q 243 36 334 -25 q 102 213 152 97 q 51 493 51 329 q 106 748 51 637 q 258 922 161 858 q 481 985 355 985 q 627 970 572 985 q 714 936 683 956 q 763 899 744 916 l 686 744 q 653 776 676 758 q 590 808 631 794 q 483 821 549 821 q 358 780 413 821 q 270 666 302 739 q 238 497 238 593 q 299 227 238 324 q 460 131 360 131 q 612 182 567 131 q 657 329 657 233 q 656 367 657 346 l 457 367 l 457 519 l 819 519 q 825 451 823 488 q 828 385 828 414 q 813 233 828 306 q 757 101 797 159 q 644 9 717 43 q 457 -25 572 -25 m 214 1058 l 432 1313 l 518 1313 l 731 1058 l 590 1058 l 476 1176 l 353 1058 l 214 1058 z "},"Ģ":{"ha":874,"x_min":51,"x_max":828,"o":"m 457 -25 q 243 36 334 -25 q 102 213 152 97 q 51 493 51 329 q 106 748 51 637 q 258 922 161 858 q 481 985 355 985 q 627 970 572 985 q 714 936 683 956 q 763 899 744 916 l 686 744 q 653 776 676 758 q 590 808 631 794 q 483 821 549 821 q 358 780 413 821 q 270 666 302 739 q 238 497 238 593 q 299 227 238 324 q 460 131 360 131 q 612 182 567 131 q 657 329 657 233 q 656 367 657 346 l 457 367 l 457 519 l 819 519 q 825 451 823 488 q 828 385 828 414 q 813 233 828 306 q 757 101 797 159 q 644 9 717 43 q 457 -25 572 -25 m 357 -382 q 374 -325 360 -370 q 388 -196 388 -279 q 388 -162 388 -179 q 386 -128 388 -145 l 560 -128 q 560 -158 561 -136 q 560 -186 560 -181 q 542 -287 560 -247 q 506 -350 524 -327 q 485 -382 488 -373 l 357 -382 z "},"Ġ":{"ha":874,"x_min":51,"x_max":828,"o":"m 457 -25 q 243 36 334 -25 q 102 213 152 97 q 51 493 51 329 q 106 748 51 637 q 258 922 161 858 q 481 985 355 985 q 627 970 572 985 q 714 936 683 956 q 763 899 744 916 l 686 744 q 653 776 676 758 q 590 808 631 794 q 483 821 549 821 q 358 780 413 821 q 270 666 302 739 q 238 497 238 593 q 299 227 238 324 q 460 131 360 131 q 612 182 567 131 q 657 329 657 233 q 656 367 657 346 l 457 367 l 457 519 l 819 519 q 825 451 823 488 q 828 385 828 414 q 813 233 828 306 q 757 101 797 159 q 644 9 717 43 q 457 -25 572 -25 m 381 1058 l 381 1244 l 569 1244 l 569 1058 l 381 1058 z "},"Ɠ":{"ha":874,"x_min":51,"x_max":881,"o":"m 457 -25 q 240 36 331 -25 q 100 213 149 97 q 51 493 51 329 q 106 748 51 637 q 258 922 161 858 q 481 985 355 985 q 543 980 515 985 q 596 966 572 974 q 661 1111 605 1068 q 796 1153 717 1153 q 855 1141 831 1153 q 881 1123 878 1129 l 881 965 q 858 982 874 974 q 820 990 841 990 q 755 962 779 990 q 742 864 730 934 l 673 744 q 630 776 654 758 q 570 808 605 794 q 483 821 535 821 q 358 780 413 821 q 270 666 302 739 q 238 497 238 593 q 299 227 238 324 q 460 131 360 131 q 612 182 567 131 q 657 329 657 233 q 656 367 657 346 l 457 367 l 457 519 l 819 519 q 825 451 823 488 q 828 385 828 414 q 813 233 828 306 q 757 101 797 159 q 644 9 717 43 q 457 -25 572 -25 z "},"Ḡ":{"ha":874,"x_min":51,"x_max":828,"o":"m 457 -25 q 243 36 334 -25 q 102 213 152 97 q 51 493 51 329 q 106 748 51 637 q 258 922 161 858 q 481 985 355 985 q 627 970 572 985 q 714 936 683 956 q 763 899 744 916 l 686 744 q 653 776 676 758 q 590 808 631 794 q 483 821 549 821 q 358 780 413 821 q 270 666 302 739 q 238 497 238 593 q 299 227 238 324 q 460 131 360 131 q 612 182 567 131 q 657 329 657 233 q 656 367 657 346 l 457 367 l 457 519 l 819 519 q 825 451 823 488 q 828 385 828 414 q 813 233 828 306 q 757 101 797 159 q 644 9 717 43 q 457 -25 572 -25 m 283 1092 l 283 1218 l 667 1218 l 667 1092 l 283 1092 z "},"H":{"ha":913,"x_min":117,"x_max":796,"o":"m 117 0 l 117 968 l 296 968 l 296 564 l 615 564 l 615 968 l 796 968 l 796 0 l 615 0 l 615 411 l 296 411 l 296 0 l 117 0 z "},"Ħ":{"ha":899,"x_min":21,"x_max":878,"o":"m 110 0 l 110 693 l 21 693 l 21 810 l 110 810 l 110 968 l 289 968 l 289 810 l 608 810 l 608 968 l 789 968 l 789 810 l 878 810 l 878 693 l 789 693 l 789 0 l 608 0 l 608 356 l 289 356 l 289 0 l 110 0 m 289 508 l 608 508 l 608 693 l 289 693 l 289 508 z "},"Ḫ":{"ha":913,"x_min":117,"x_max":796,"o":"m 117 0 l 117 968 l 296 968 l 296 564 l 615 564 l 615 968 l 796 968 l 796 0 l 615 0 l 615 411 l 296 411 l 296 0 l 117 0 m 453 -367 q 285 -309 350 -367 q 219 -128 219 -251 l 346 -128 q 370 -212 348 -189 q 453 -236 392 -236 q 536 -210 517 -236 q 558 -128 556 -185 l 686 -128 q 620 -310 686 -253 q 453 -367 555 -367 z "},"Ȟ":{"ha":913,"x_min":117,"x_max":796,"o":"m 117 0 l 117 968 l 296 968 l 296 564 l 615 564 l 615 968 l 796 968 l 796 0 l 615 0 l 615 411 l 296 411 l 296 0 l 117 0 m 413 1058 l 194 1313 l 333 1313 l 456 1195 l 571 1313 l 711 1313 l 499 1058 l 413 1058 z "},"Ĥ":{"ha":913,"x_min":117,"x_max":796,"o":"m 117 0 l 117 968 l 296 968 l 296 564 l 615 564 l 615 968 l 796 968 l 796 0 l 615 0 l 615 411 l 296 411 l 296 0 l 117 0 m 194 1058 l 413 1313 l 499 1313 l 711 1058 l 571 1058 l 456 1176 l 333 1058 l 194 1058 z "},"Ḥ":{"ha":913,"x_min":117,"x_max":796,"o":"m 117 0 l 117 968 l 296 968 l 296 564 l 615 564 l 615 968 l 796 968 l 796 0 l 615 0 l 615 411 l 296 411 l 296 0 l 117 0 m 358 -304 l 358 -118 l 547 -118 l 547 -304 l 358 -304 z "},"Ɦ":{"ha":1097,"x_min":7,"x_max":980,"o":"m 301 0 l 301 817 q 206 790 233 817 q 178 719 178 764 q 193 646 178 672 q 222 599 208 619 l 69 572 q 30 631 53 584 q 7 740 7 677 q 36 858 7 806 q 131 939 66 909 q 301 968 195 968 l 480 968 l 480 564 l 799 564 l 799 968 l 980 968 l 980 0 l 799 0 l 799 411 l 480 411 l 480 0 l 301 0 z "},"ɥ":{"ha":913,"x_min":117,"x_max":796,"o":"m 117 968 l 296 968 l 296 564 l 615 564 l 615 968 l 796 968 l 796 0 l 615 0 l 615 411 l 117 411 l 117 968 z "},"Ɥ":{"ha":913,"x_min":117,"x_max":796,"o":"m 117 968 l 296 968 l 296 564 l 615 564 l 615 968 l 796 968 l 796 0 l 615 0 l 615 411 l 117 411 l 117 968 z "},"I":{"ha":403,"x_min":113,"x_max":290,"o":"m 113 0 l 113 968 l 290 968 l 290 0 l 113 0 z "},"Ĳ":{"ha":958,"x_min":113,"x_max":857,"o":"m 113 0 l 113 968 l 290 968 l 290 0 l 113 0 m 568 -21 q 508 -15 543 -21 q 442 2 474 -8 q 393 24 410 12 l 460 189 q 505 148 478 163 q 560 133 533 133 q 614 141 587 133 q 659 178 641 149 q 676 274 676 208 l 676 968 l 857 968 l 857 290 q 831 134 857 204 q 741 21 804 63 q 568 -21 678 -21 z "},"Í":{"ha":403,"x_min":113,"x_max":431,"o":"m 113 0 l 113 968 l 290 968 l 290 0 l 113 0 m 124 1058 l 260 1313 l 431 1313 l 257 1058 l 124 1058 z "},"Ĭ":{"ha":403,"x_min":-31,"x_max":438,"o":"m 113 0 l 113 968 l 290 968 l 290 0 l 113 0 m 203 1058 q 35 1121 100 1058 q -31 1307 -31 1184 l 96 1307 q 120 1217 98 1246 q 203 1189 142 1189 q 288 1219 267 1189 q 310 1307 308 1249 l 438 1307 q 371 1120 438 1182 q 203 1058 305 1058 z "},"Ǐ":{"ha":403,"x_min":-58,"x_max":458,"o":"m 113 0 l 113 968 l 290 968 l 290 0 l 113 0 m 160 1058 l -58 1313 l 81 1313 l 203 1195 l 318 1313 l 458 1313 l 246 1058 l 160 1058 z "},"Î":{"ha":403,"x_min":-58,"x_max":458,"o":"m 113 0 l 113 968 l 290 968 l 290 0 l 113 0 m -58 1058 l 160 1313 l 246 1313 l 458 1058 l 318 1058 l 203 1176 l 81 1058 l -58 1058 z "},"Ȉ":{"ha":403,"x_min":-158,"x_max":432,"o":"m 113 0 l 113 968 l 290 968 l 290 0 l 113 0 m 21 1058 l -158 1313 l -6 1313 l 142 1058 l 21 1058 m 311 1058 l 135 1313 l 286 1313 l 432 1058 l 311 1058 z "},"Ï":{"ha":403,"x_min":-28,"x_max":433,"o":"m 113 0 l 113 968 l 290 968 l 290 0 l 113 0 m 250 1058 l 250 1243 l 433 1243 l 433 1058 l 250 1058 m -28 1058 l -28 1243 l 156 1243 l 156 1058 l -28 1058 z "},"Ḯ":{"ha":403,"x_min":-28,"x_max":433,"o":"m 113 0 l 113 968 l 290 968 l 290 0 l 113 0 m 250 1058 l 250 1243 l 433 1243 l 433 1058 l 250 1058 m -28 1058 l -28 1243 l 156 1243 l 156 1058 l -28 1058 m 124 1321 l 260 1575 l 431 1575 l 257 1321 l 124 1321 z "},"İ":{"ha":403,"x_min":108,"x_max":297,"o":"m 113 0 l 113 968 l 290 968 l 290 0 l 113 0 m 108 1058 l 108 1244 l 297 1244 l 297 1058 l 108 1058 z "},"Ị":{"ha":403,"x_min":107,"x_max":296,"o":"m 113 0 l 113 968 l 290 968 l 290 0 l 113 0 m 107 -314 l 107 -128 l 296 -128 l 296 -314 l 107 -314 z "},"Ì":{"ha":403,"x_min":-11,"x_max":296,"o":"m 113 0 l 113 968 l 290 968 l 290 0 l 113 0 m 163 1058 l -11 1313 l 160 1313 l 296 1058 l 163 1058 z "},"Ỉ":{"ha":403,"x_min":36,"x_max":389,"o":"m 113 0 l 113 968 l 290 968 l 290 0 l 113 0 m 218 1058 q 174 1059 191 1058 q 135 1067 157 1060 l 111 1140 q 153 1136 130 1136 q 216 1150 185 1136 q 246 1203 246 1163 q 223 1245 246 1226 q 158 1264 199 1264 q 115 1256 137 1264 q 65 1235 92 1249 l 36 1321 q 99 1355 52 1335 q 197 1374 147 1374 q 280 1360 235 1374 q 357 1312 325 1347 q 389 1215 389 1278 q 369 1143 389 1179 q 311 1083 349 1107 q 218 1058 273 1058 z "},"Ȋ":{"ha":403,"x_min":-31,"x_max":438,"o":"m 113 0 l 113 968 l 290 968 l 290 0 l 113 0 m -31 1058 q 35 1244 -31 1181 q 203 1307 100 1307 q 371 1245 305 1307 q 438 1058 438 1183 l 310 1058 q 288 1147 308 1117 q 203 1176 267 1176 q 120 1148 142 1176 q 96 1058 98 1120 l -31 1058 z "},"Ī":{"ha":403,"x_min":11,"x_max":394,"o":"m 113 0 l 113 968 l 290 968 l 290 0 l 113 0 m 11 1092 l 11 1218 l 394 1218 l 394 1092 l 11 1092 z "},"Į":{"ha":403,"x_min":11,"x_max":335,"o":"m 240 -207 q 285 -202 261 -207 q 335 -186 310 -198 l 335 -312 q 218 -333 290 -333 q 70 -292 128 -333 q 11 -178 11 -251 q 39 -79 11 -124 q 113 0 66 -33 l 113 968 l 290 968 l 290 0 q 188 -50 222 -16 q 154 -140 154 -83 q 177 -191 154 -176 q 240 -207 200 -207 z "},"Ɩ":{"ha":437,"x_min":104,"x_max":423,"o":"m 104 968 l 272 968 l 272 275 q 297 185 272 206 q 362 164 321 164 q 399 172 383 164 q 423 189 416 180 l 423 31 q 390 12 420 24 q 324 0 359 0 q 216 18 267 0 q 135 85 166 37 q 104 223 104 134 l 104 968 z "},"Ɨ":{"ha":551,"x_min":29,"x_max":522,"o":"m 186 0 l 186 420 l 29 420 l 29 547 l 186 547 l 186 968 l 364 968 l 364 547 l 522 547 l 522 420 l 364 420 l 364 0 l 186 0 z "},"Ĩ":{"ha":403,"x_min":-40,"x_max":446,"o":"m 113 0 l 113 968 l 290 968 l 290 0 l 113 0 m 293 1063 q 225 1076 249 1063 q 182 1107 201 1090 q 151 1131 167 1122 q 113 1140 135 1140 q 68 1125 91 1140 q 32 1074 46 1109 l -40 1131 q 22 1221 -18 1184 q 114 1258 62 1258 q 184 1244 160 1258 q 225 1214 208 1231 q 254 1192 239 1201 q 294 1183 269 1183 q 340 1201 319 1183 q 368 1256 361 1219 l 446 1196 q 420 1133 442 1163 q 366 1082 399 1102 q 293 1063 333 1063 z "},"J":{"ha":556,"x_min":-10,"x_max":454,"o":"m 165 -21 q 106 -15 140 -21 q 39 2 71 -8 q -10 24 7 12 l 57 189 q 102 148 75 163 q 157 133 130 133 q 211 141 184 133 q 256 178 238 149 q 274 274 274 208 l 274 968 l 454 968 l 454 290 q 428 134 454 204 q 338 21 401 63 q 165 -21 275 -21 z "},"Ĵ":{"ha":556,"x_min":-10,"x_max":619,"o":"m 165 -21 q 106 -15 140 -21 q 39 2 71 -8 q -10 24 7 12 l 57 189 q 102 148 75 163 q 157 133 130 133 q 211 141 184 133 q 256 178 238 149 q 274 274 274 208 l 274 968 l 454 968 l 454 290 q 428 134 454 204 q 338 21 401 63 q 165 -21 275 -21 m 103 1058 l 321 1313 l 407 1313 l 619 1058 l 479 1058 l 365 1176 l 242 1058 l 103 1058 z "},"K":{"ha":828,"x_min":117,"x_max":828,"o":"m 117 0 l 117 968 l 293 968 l 293 486 l 601 968 l 806 968 l 476 488 l 828 0 l 606 0 l 293 465 l 293 0 l 117 0 z "},"Ḱ":{"ha":828,"x_min":117,"x_max":828,"o":"m 117 0 l 117 968 l 293 968 l 293 486 l 601 968 l 806 968 l 476 488 l 828 0 l 606 0 l 293 465 l 293 0 l 117 0 m 344 1058 l 481 1313 l 651 1313 l 478 1058 l 344 1058 z "},"Ǩ":{"ha":828,"x_min":117,"x_max":828,"o":"m 117 0 l 117 968 l 293 968 l 293 486 l 601 968 l 806 968 l 476 488 l 828 0 l 606 0 l 293 465 l 293 0 l 117 0 m 381 1058 l 163 1313 l 301 1313 l 424 1195 l 539 1313 l 679 1313 l 467 1058 l 381 1058 z "},"Ķ":{"ha":828,"x_min":117,"x_max":828,"o":"m 117 0 l 117 968 l 293 968 l 293 486 l 601 968 l 806 968 l 476 488 l 828 0 l 606 0 l 293 465 l 293 0 l 117 0 m 322 -382 q 339 -325 326 -370 q 353 -196 353 -279 q 353 -162 353 -179 q 351 -128 353 -145 l 525 -128 q 526 -158 526 -136 q 525 -186 525 -181 q 507 -287 525 -247 q 471 -350 490 -327 q 450 -382 453 -373 l 322 -382 z "},"Ḳ":{"ha":828,"x_min":117,"x_max":828,"o":"m 117 0 l 117 968 l 293 968 l 293 486 l 601 968 l 806 968 l 476 488 l 828 0 l 606 0 l 293 465 l 293 0 l 117 0 m 338 -304 l 338 -118 l 526 -118 l 526 -304 l 338 -304 z "},"Ƙ":{"ha":958,"x_min":117,"x_max":944,"o":"m 117 0 l 117 968 l 293 968 l 293 486 l 451 733 q 560 893 515 833 q 651 980 606 953 q 762 1006 697 1006 q 888 974 847 1006 q 944 907 928 942 l 867 772 q 850 800 865 783 q 814 830 835 817 q 766 844 792 844 q 703 811 731 844 q 627 708 676 779 l 476 488 l 828 0 l 606 0 l 293 465 l 293 0 l 117 0 z "},"Ḵ":{"ha":828,"x_min":117,"x_max":828,"o":"m 117 0 l 117 968 l 293 968 l 293 486 l 601 968 l 806 968 l 476 488 l 828 0 l 606 0 l 293 465 l 293 0 l 117 0 m 240 -254 l 240 -128 l 624 -128 l 624 -254 l 240 -254 z "},"ḵ":{"ha":828,"x_min":117,"x_max":828,"o":"m 117 0 l 117 968 l 293 968 l 293 486 l 601 968 l 806 968 l 476 488 l 828 0 l 606 0 l 293 465 l 293 0 l 117 0 m 240 -254 l 240 -128 l 624 -128 l 624 -254 l 240 -254 z "},"L":{"ha":618,"x_min":117,"x_max":582,"o":"m 117 0 l 117 968 l 293 968 l 293 153 l 582 153 l 582 0 l 117 0 z "},"Ǉ":{"ha":1201,"x_min":117,"x_max":1100,"o":"m 117 0 l 117 968 l 293 968 l 293 153 l 582 153 l 582 0 l 117 0 m 811 -21 q 751 -15 786 -21 q 685 2 717 -8 q 636 24 653 12 l 703 189 q 748 148 721 163 q 803 133 776 133 q 857 141 830 133 q 902 178 884 149 q 919 274 919 208 l 919 968 l 1100 968 l 1100 290 q 1074 134 1100 204 q 984 21 1047 63 q 811 -21 921 -21 z "},"Ĺ":{"ha":618,"x_min":117,"x_max":582,"o":"m 117 0 l 117 968 l 293 968 l 293 153 l 582 153 l 582 0 l 117 0 m 133 1058 l 269 1313 l 440 1313 l 267 1058 l 133 1058 z "},"Ľ":{"ha":618,"x_min":117,"x_max":582,"o":"m 117 0 l 117 968 l 293 968 l 293 153 l 582 153 l 582 0 l 117 0 m 383 754 q 400 845 394 783 q 407 967 407 908 q 406 1008 407 987 q 401 1056 405 1028 l 540 1056 q 544 1016 544 1035 q 544 978 544 998 q 535 876 544 923 q 515 798 526 830 q 499 754 503 766 l 383 754 z "},"Ḽ":{"ha":618,"x_min":93,"x_max":582,"o":"m 117 0 l 117 968 l 293 968 l 293 153 l 582 153 l 582 0 l 117 0 m 93 -367 l 292 -128 l 378 -128 l 576 -367 l 436 -367 l 335 -253 l 232 -367 l 93 -367 z "},"Ļ":{"ha":618,"x_min":117,"x_max":582,"o":"m 117 0 l 117 968 l 293 968 l 293 153 l 582 153 l 582 0 l 117 0 m 225 -382 q 242 -325 228 -370 q 256 -196 256 -279 q 256 -162 256 -179 q 254 -128 256 -145 l 428 -128 q 428 -158 429 -136 q 428 -186 428 -181 q 410 -287 428 -247 q 374 -350 392 -327 q 353 -382 356 -373 l 225 -382 z "},"Ŀ":{"ha":618,"x_min":117,"x_max":582,"o":"m 117 0 l 117 968 l 293 968 l 293 153 l 582 153 l 582 0 l 117 0 m 411 438 l 411 644 l 574 644 l 574 438 l 411 438 z "},"Ḷ":{"ha":618,"x_min":117,"x_max":582,"o":"m 117 0 l 117 968 l 293 968 l 293 153 l 582 153 l 582 0 l 117 0 m 240 -304 l 240 -118 l 429 -118 l 429 -304 l 240 -304 z "},"ǈ":{"ha":971,"x_min":117,"x_max":878,"o":"m 117 0 l 117 968 l 293 968 l 293 153 l 582 153 l 582 0 l 117 0 m 683 804 l 683 989 l 878 989 l 878 804 l 683 804 m 654 -347 l 594 -242 q 666 -195 638 -240 q 693 -81 693 -149 l 693 692 l 865 692 l 865 -87 q 807 -281 863 -222 q 654 -347 751 -341 z "},"Ḻ":{"ha":618,"x_min":117,"x_max":582,"o":"m 117 0 l 117 968 l 293 968 l 293 153 l 582 153 l 582 0 l 117 0 m 143 -254 l 143 -128 l 526 -128 l 526 -254 l 143 -254 z "},"Ł":{"ha":639,"x_min":28,"x_max":603,"o":"m 138 0 l 138 353 l 28 294 l 28 450 l 138 508 l 138 968 l 314 968 l 314 601 l 514 707 l 514 551 l 314 446 l 314 153 l 603 153 l 603 0 l 138 0 z "},"M":{"ha":1043,"x_min":117,"x_max":926,"o":"m 117 0 l 117 985 l 131 985 l 522 523 l 911 985 l 926 985 l 926 0 l 754 0 l 754 415 l 760 579 l 711 504 l 521 281 l 331 504 l 281 579 l 289 415 l 289 0 l 117 0 z "},"Ḿ":{"ha":1043,"x_min":117,"x_max":926,"o":"m 117 0 l 117 985 l 131 985 l 522 523 l 911 985 l 926 985 l 926 0 l 754 0 l 754 415 l 760 579 l 711 504 l 521 281 l 331 504 l 281 579 l 289 415 l 289 0 l 117 0 m 442 1058 l 578 1313 l 749 1313 l 575 1058 l 442 1058 z "},"Ṁ":{"ha":1043,"x_min":117,"x_max":926,"o":"m 117 0 l 117 985 l 131 985 l 522 523 l 911 985 l 926 985 l 926 0 l 754 0 l 754 415 l 760 579 l 711 504 l 521 281 l 331 504 l 281 579 l 289 415 l 289 0 l 117 0 m 426 1058 l 426 1244 l 615 1244 l 615 1058 l 426 1058 z "},"Ṃ":{"ha":1043,"x_min":117,"x_max":926,"o":"m 117 0 l 117 985 l 131 985 l 522 523 l 911 985 l 926 985 l 926 0 l 754 0 l 754 415 l 760 579 l 711 504 l 521 281 l 331 504 l 281 579 l 289 415 l 289 0 l 117 0 m 426 -304 l 426 -118 l 615 -118 l 615 -304 l 426 -304 z "},"N":{"ha":918,"x_min":117,"x_max":801,"o":"m 788 -19 l 324 510 l 281 565 l 288 431 l 288 0 l 117 0 l 117 985 l 132 985 l 589 451 l 638 388 l 631 521 l 631 968 l 801 968 l 801 -19 l 788 -19 z "},"Ǌ":{"ha":1474,"x_min":117,"x_max":1372,"o":"m 788 -19 l 324 510 l 281 565 l 288 431 l 288 0 l 117 0 l 117 985 l 132 985 l 589 451 l 638 388 l 631 521 l 631 968 l 801 968 l 801 -19 l 788 -19 m 1083 -21 q 1024 -15 1058 -21 q 957 2 989 -8 q 908 24 925 12 l 975 189 q 1020 148 993 163 q 1075 133 1048 133 q 1129 141 1102 133 q 1174 178 1156 149 q 1192 274 1192 208 l 1192 968 l 1372 968 l 1372 290 q 1346 134 1372 204 q 1256 21 1319 63 q 1083 -21 1193 -21 z "},"Ń":{"ha":918,"x_min":117,"x_max":801,"o":"m 788 -19 l 324 510 l 281 565 l 288 431 l 288 0 l 117 0 l 117 985 l 132 985 l 589 451 l 638 388 l 631 521 l 631 968 l 801 968 l 801 -19 l 788 -19 m 368 1058 l 504 1313 l 675 1313 l 501 1058 l 368 1058 z "},"Ň":{"ha":918,"x_min":117,"x_max":801,"o":"m 788 -19 l 324 510 l 281 565 l 288 431 l 288 0 l 117 0 l 117 985 l 132 985 l 589 451 l 638 388 l 631 521 l 631 968 l 801 968 l 801 -19 l 788 -19 m 404 1058 l 186 1313 l 325 1313 l 448 1195 l 563 1313 l 703 1313 l 490 1058 l 404 1058 z "},"Ṋ":{"ha":918,"x_min":117,"x_max":801,"o":"m 788 -19 l 324 510 l 281 565 l 288 431 l 288 0 l 117 0 l 117 985 l 132 985 l 589 451 l 638 388 l 631 521 l 631 968 l 801 968 l 801 -19 l 788 -19 m 231 -367 l 429 -128 l 515 -128 l 714 -367 l 574 -367 l 473 -253 l 369 -367 l 231 -367 z "},"Ņ":{"ha":918,"x_min":117,"x_max":801,"o":"m 788 -19 l 324 510 l 281 565 l 288 431 l 288 0 l 117 0 l 117 985 l 132 985 l 589 451 l 638 388 l 631 521 l 631 968 l 801 968 l 801 -19 l 788 -19 m 363 -382 q 380 -325 366 -370 q 393 -196 393 -279 q 393 -162 393 -179 q 392 -128 393 -145 l 565 -128 q 566 -158 567 -136 q 565 -186 565 -181 q 548 -287 565 -247 q 511 -350 530 -327 q 490 -382 493 -373 l 363 -382 z "},"Ṅ":{"ha":918,"x_min":117,"x_max":801,"o":"m 788 -19 l 324 510 l 281 565 l 288 431 l 288 0 l 117 0 l 117 985 l 132 985 l 589 451 l 638 388 l 631 521 l 631 968 l 801 968 l 801 -19 l 788 -19 m 353 1058 l 353 1244 l 542 1244 l 542 1058 l 353 1058 z "},"Ṇ":{"ha":918,"x_min":117,"x_max":801,"o":"m 788 -19 l 324 510 l 281 565 l 288 431 l 288 0 l 117 0 l 117 985 l 132 985 l 589 451 l 638 388 l 631 521 l 631 968 l 801 968 l 801 -19 l 788 -19 m 378 -304 l 378 -118 l 567 -118 l 567 -304 l 378 -304 z "},"Ǹ":{"ha":918,"x_min":117,"x_max":801,"o":"m 788 -19 l 324 510 l 281 565 l 288 431 l 288 0 l 117 0 l 117 985 l 132 985 l 589 451 l 638 388 l 631 521 l 631 968 l 801 968 l 801 -19 l 788 -19 m 407 1058 l 233 1313 l 404 1313 l 540 1058 l 407 1058 z "},"Ɲ":{"ha":927,"x_min":-125,"x_max":810,"o":"m 297 0 q 240 -184 298 -114 q 53 -253 181 -253 q -64 -232 -15 -253 q -125 -191 -112 -210 l -76 -58 q -36 -84 -56 -73 q 23 -96 -16 -96 q 101 -75 76 -96 q 126 0 126 -55 l 126 985 l 141 985 l 598 451 l 647 388 l 640 521 l 640 968 l 810 968 l 810 -19 l 797 -19 l 333 510 l 290 565 l 297 431 l 297 0 z "},"ǋ":{"ha":1231,"x_min":117,"x_max":1138,"o":"m 788 -19 l 324 510 l 281 565 l 288 431 l 288 0 l 117 0 l 117 985 l 132 985 l 589 451 l 638 388 l 631 521 l 631 968 l 801 968 l 801 -19 l 788 -19 m 943 804 l 943 989 l 1138 989 l 1138 804 l 943 804 m 914 -347 l 854 -242 q 925 -195 898 -240 q 953 -81 953 -149 l 953 692 l 1125 692 l 1125 -87 q 1067 -281 1122 -222 q 914 -347 1011 -341 z "},"Ṉ":{"ha":918,"x_min":117,"x_max":801,"o":"m 788 -19 l 324 510 l 281 565 l 288 431 l 288 0 l 117 0 l 117 985 l 132 985 l 589 451 l 638 388 l 631 521 l 631 968 l 801 968 l 801 -19 l 788 -19 m 281 -254 l 281 -128 l 664 -128 l 664 -254 l 281 -254 z "},"Ñ":{"ha":918,"x_min":117,"x_max":801,"o":"m 788 -19 l 324 510 l 281 565 l 288 431 l 288 0 l 117 0 l 117 985 l 132 985 l 589 451 l 638 388 l 631 521 l 631 968 l 801 968 l 801 -19 l 788 -19 m 538 1063 q 469 1076 494 1063 q 426 1107 445 1090 q 395 1131 411 1122 q 357 1140 380 1140 q 313 1125 335 1140 q 276 1074 290 1109 l 204 1131 q 266 1221 226 1184 q 358 1258 306 1258 q 428 1244 404 1258 q 469 1214 453 1231 q 499 1192 483 1201 q 539 1183 514 1183 q 584 1201 563 1183 q 613 1256 606 1219 l 690 1196 q 665 1133 686 1163 q 611 1082 644 1102 q 538 1063 578 1063 z "},"Ŋ":{"ha":918,"x_min":117,"x_max":801,"o":"m 631 521 l 631 968 l 801 968 l 801 -19 q 765 -211 801 -137 q 669 -320 728 -285 q 540 -354 609 -354 q 408 -341 463 -354 q 321 -310 353 -328 l 374 -158 q 442 -189 403 -176 q 510 -201 481 -201 q 569 -191 541 -201 q 615 -149 597 -181 q 632 -54 632 -117 l 632 51 l 638 151 l 324 510 l 281 565 l 288 431 l 288 0 l 117 0 l 117 985 l 132 985 l 589 451 l 638 388 l 631 521 z "},"O":{"ha":914,"x_min":54,"x_max":860,"o":"m 458 -17 q 237 45 327 -17 q 101 220 147 108 q 54 485 54 333 q 100 748 54 635 q 235 923 146 860 q 454 985 324 985 q 680 922 590 985 q 815 746 769 858 q 860 485 860 633 q 813 220 860 333 q 677 45 767 108 q 458 -17 588 -17 m 458 132 q 612 220 549 132 q 675 489 675 308 q 616 752 675 663 q 454 840 558 840 q 297 751 353 840 q 240 488 240 663 q 300 219 240 306 q 458 132 360 132 z "},"Ó":{"ha":914,"x_min":54,"x_max":860,"o":"m 458 -17 q 237 45 327 -17 q 101 220 147 108 q 54 485 54 333 q 100 748 54 635 q 235 923 146 860 q 454 985 324 985 q 680 922 590 985 q 815 746 769 858 q 860 485 860 633 q 813 220 860 333 q 677 45 767 108 q 458 -17 588 -17 m 458 132 q 612 220 549 132 q 675 489 675 308 q 616 752 675 663 q 454 840 558 840 q 297 751 353 840 q 240 488 240 663 q 300 219 240 306 q 458 132 360 132 m 378 1058 l 514 1313 l 685 1313 l 511 1058 l 378 1058 z "},"Ŏ":{"ha":914,"x_min":54,"x_max":860,"o":"m 458 -17 q 237 45 327 -17 q 101 220 147 108 q 54 485 54 333 q 100 748 54 635 q 235 923 146 860 q 454 985 324 985 q 680 922 590 985 q 815 746 769 858 q 860 485 860 633 q 813 220 860 333 q 677 45 767 108 q 458 -17 588 -17 m 458 132 q 612 220 549 132 q 675 489 675 308 q 616 752 675 663 q 454 840 558 840 q 297 751 353 840 q 240 488 240 663 q 300 219 240 306 q 458 132 360 132 m 457 1058 q 289 1121 354 1058 q 224 1307 224 1184 l 350 1307 q 374 1217 352 1246 q 457 1189 396 1189 q 542 1219 522 1189 q 564 1307 562 1249 l 692 1307 q 625 1120 692 1182 q 457 1058 559 1058 z "},"Ǒ":{"ha":914,"x_min":54,"x_max":860,"o":"m 458 -17 q 237 45 327 -17 q 101 220 147 108 q 54 485 54 333 q 100 748 54 635 q 235 923 146 860 q 454 985 324 985 q 680 922 590 985 q 815 746 769 858 q 860 485 860 633 q 813 220 860 333 q 677 45 767 108 q 458 -17 588 -17 m 458 132 q 612 220 549 132 q 675 489 675 308 q 616 752 675 663 q 454 840 558 840 q 297 751 353 840 q 240 488 240 663 q 300 219 240 306 q 458 132 360 132 m 414 1058 l 196 1313 l 335 1313 l 458 1195 l 572 1313 l 713 1313 l 500 1058 l 414 1058 z "},"Ô":{"ha":914,"x_min":54,"x_max":860,"o":"m 458 -17 q 237 45 327 -17 q 101 220 147 108 q 54 485 54 333 q 100 748 54 635 q 235 923 146 860 q 454 985 324 985 q 680 922 590 985 q 815 746 769 858 q 860 485 860 633 q 813 220 860 333 q 677 45 767 108 q 458 -17 588 -17 m 458 132 q 612 220 549 132 q 675 489 675 308 q 616 752 675 663 q 454 840 558 840 q 297 751 353 840 q 240 488 240 663 q 300 219 240 306 q 458 132 360 132 m 196 1058 l 414 1313 l 500 1313 l 713 1058 l 572 1058 l 458 1176 l 335 1058 l 196 1058 z "},"Ố":{"ha":914,"x_min":54,"x_max":860,"o":"m 458 -17 q 237 45 327 -17 q 101 220 147 108 q 54 485 54 333 q 100 748 54 635 q 235 923 146 860 q 454 985 324 985 q 680 922 590 985 q 815 746 769 858 q 860 485 860 633 q 813 220 860 333 q 677 45 767 108 q 458 -17 588 -17 m 458 132 q 612 220 549 132 q 675 489 675 308 q 616 752 675 663 q 454 840 558 840 q 297 751 353 840 q 240 488 240 663 q 300 219 240 306 q 458 132 360 132 m 571 1304 l 676 1499 l 825 1499 l 688 1304 l 571 1304 m 242 1058 l 418 1283 l 494 1283 l 669 1058 l 546 1058 l 457 1154 l 365 1058 l 242 1058 z "},"Ộ":{"ha":914,"x_min":54,"x_max":860,"o":"m 458 -17 q 237 45 327 -17 q 101 220 147 108 q 54 485 54 333 q 100 748 54 635 q 235 923 146 860 q 454 985 324 985 q 680 922 590 985 q 815 746 769 858 q 860 485 860 633 q 813 220 860 333 q 677 45 767 108 q 458 -17 588 -17 m 458 132 q 612 220 549 132 q 675 489 675 308 q 616 752 675 663 q 454 840 558 840 q 297 751 353 840 q 240 488 240 663 q 300 219 240 306 q 458 132 360 132 m 364 -314 l 364 -128 l 553 -128 l 553 -314 l 364 -314 m 196 1058 l 414 1313 l 500 1313 l 713 1058 l 572 1058 l 458 1176 l 335 1058 l 196 1058 z "},"Ồ":{"ha":914,"x_min":54,"x_max":860,"o":"m 458 -17 q 237 45 327 -17 q 101 220 147 108 q 54 485 54 333 q 100 748 54 635 q 235 923 146 860 q 454 985 324 985 q 680 922 590 985 q 815 746 769 858 q 860 485 860 633 q 813 220 860 333 q 677 45 767 108 q 458 -17 588 -17 m 458 132 q 612 220 549 132 q 675 489 675 308 q 616 752 675 663 q 454 840 558 840 q 297 751 353 840 q 240 488 240 663 q 300 219 240 306 q 458 132 360 132 m 617 1304 l 479 1499 l 628 1499 l 732 1304 l 617 1304 m 243 1058 l 418 1283 l 494 1283 l 671 1058 l 547 1058 l 457 1154 l 365 1058 l 243 1058 z "},"Ổ":{"ha":914,"x_min":54,"x_max":860,"o":"m 458 -17 q 237 45 327 -17 q 101 220 147 108 q 54 485 54 333 q 100 748 54 635 q 235 923 146 860 q 454 985 324 985 q 680 922 590 985 q 815 746 769 858 q 860 485 860 633 q 813 220 860 333 q 677 45 767 108 q 458 -17 588 -17 m 458 132 q 612 220 549 132 q 675 489 675 308 q 616 752 675 663 q 454 840 558 840 q 297 751 353 840 q 240 488 240 663 q 300 219 240 306 q 458 132 360 132 m 472 1343 l 435 1343 q 417 1344 426 1343 q 396 1347 408 1344 l 375 1417 q 393 1415 383 1416 q 411 1414 402 1414 q 469 1426 442 1414 q 497 1474 497 1438 q 476 1511 497 1494 q 417 1528 454 1528 q 377 1521 397 1528 q 333 1501 358 1514 l 307 1581 q 364 1610 322 1593 q 453 1628 407 1628 q 528 1616 488 1628 q 598 1572 569 1603 q 626 1485 626 1541 q 608 1419 626 1452 q 556 1365 590 1387 q 472 1343 522 1343 m 243 1058 l 418 1283 l 494 1283 l 671 1058 l 547 1058 l 457 1154 l 365 1058 l 243 1058 z "},"Ỗ":{"ha":914,"x_min":54,"x_max":860,"o":"m 458 -17 q 237 45 327 -17 q 101 220 147 108 q 54 485 54 333 q 100 748 54 635 q 235 923 146 860 q 454 985 324 985 q 680 922 590 985 q 815 746 769 858 q 860 485 860 633 q 813 220 860 333 q 677 45 767 108 q 458 -17 588 -17 m 458 132 q 612 220 549 132 q 675 489 675 308 q 616 752 675 663 q 454 840 558 840 q 297 751 353 840 q 240 488 240 663 q 300 219 240 306 q 458 132 360 132 m 556 1322 q 494 1335 522 1322 q 444 1364 467 1349 q 408 1387 421 1382 q 386 1392 396 1392 q 345 1382 365 1392 q 317 1335 324 1372 l 247 1382 q 280 1461 247 1428 q 368 1494 313 1494 q 430 1482 403 1494 q 475 1456 456 1470 q 509 1435 493 1443 q 542 1428 525 1428 q 581 1434 566 1428 q 597 1481 597 1441 l 667 1432 q 638 1355 667 1388 q 556 1322 609 1322 m 243 1058 l 418 1283 l 494 1283 l 671 1058 l 547 1058 l 457 1154 l 365 1058 l 243 1058 z "},"Ȍ":{"ha":914,"x_min":54,"x_max":860,"o":"m 458 -17 q 237 45 327 -17 q 101 220 147 108 q 54 485 54 333 q 100 748 54 635 q 235 923 146 860 q 454 985 324 985 q 680 922 590 985 q 815 746 769 858 q 860 485 860 633 q 813 220 860 333 q 677 45 767 108 q 458 -17 588 -17 m 458 132 q 612 220 549 132 q 675 489 675 308 q 616 752 675 663 q 454 840 558 840 q 297 751 353 840 q 240 488 240 663 q 300 219 240 306 q 458 132 360 132 m 275 1058 l 96 1313 l 249 1313 l 396 1058 l 275 1058 m 565 1058 l 389 1313 l 540 1313 l 686 1058 l 565 1058 z "},"Ö":{"ha":914,"x_min":54,"x_max":860,"o":"m 458 -17 q 237 45 327 -17 q 101 220 147 108 q 54 485 54 333 q 100 748 54 635 q 235 923 146 860 q 454 985 324 985 q 680 922 590 985 q 815 746 769 858 q 860 485 860 633 q 813 220 860 333 q 677 45 767 108 q 458 -17 588 -17 m 458 132 q 612 220 549 132 q 675 489 675 308 q 616 752 675 663 q 454 840 558 840 q 297 751 353 840 q 240 488 240 663 q 300 219 240 306 q 458 132 360 132 m 504 1058 l 504 1243 l 688 1243 l 688 1058 l 504 1058 m 226 1058 l 226 1243 l 410 1243 l 410 1058 l 226 1058 z "},"Ȫ":{"ha":914,"x_min":54,"x_max":860,"o":"m 458 -17 q 237 45 327 -17 q 101 220 147 108 q 54 485 54 333 q 100 748 54 635 q 235 923 146 860 q 454 985 324 985 q 680 922 590 985 q 815 746 769 858 q 860 485 860 633 q 813 220 860 333 q 677 45 767 108 q 458 -17 588 -17 m 458 132 q 612 220 549 132 q 675 489 675 308 q 616 752 675 663 q 454 840 558 840 q 297 751 353 840 q 240 488 240 663 q 300 219 240 306 q 458 132 360 132 m 504 1058 l 504 1243 l 688 1243 l 688 1058 l 504 1058 m 226 1058 l 226 1243 l 410 1243 l 410 1058 l 226 1058 m 265 1354 l 265 1481 l 649 1481 l 649 1354 l 265 1354 z "},"Ȯ":{"ha":914,"x_min":54,"x_max":860,"o":"m 458 -17 q 237 45 327 -17 q 101 220 147 108 q 54 485 54 333 q 100 748 54 635 q 235 923 146 860 q 454 985 324 985 q 680 922 590 985 q 815 746 769 858 q 860 485 860 633 q 813 220 860 333 q 677 45 767 108 q 458 -17 588 -17 m 458 132 q 612 220 549 132 q 675 489 675 308 q 616 752 675 663 q 454 840 558 840 q 297 751 353 840 q 240 488 240 663 q 300 219 240 306 q 458 132 360 132 m 363 1058 l 363 1244 l 551 1244 l 551 1058 l 363 1058 z "},"ȯ":{"ha":914,"x_min":54,"x_max":860,"o":"m 458 -17 q 237 45 327 -17 q 101 220 147 108 q 54 485 54 333 q 100 748 54 635 q 235 923 146 860 q 454 985 324 985 q 680 922 590 985 q 815 746 769 858 q 860 485 860 633 q 813 220 860 333 q 677 45 767 108 q 458 -17 588 -17 m 458 132 q 612 220 549 132 q 675 489 675 308 q 616 752 675 663 q 454 840 558 840 q 297 751 353 840 q 240 488 240 663 q 300 219 240 306 q 458 132 360 132 m 363 1058 l 363 1244 l 551 1244 l 551 1058 l 363 1058 z "},"Ȱ":{"ha":914,"x_min":54,"x_max":860,"o":"m 458 -17 q 237 45 327 -17 q 101 220 147 108 q 54 485 54 333 q 100 748 54 635 q 235 923 146 860 q 454 985 324 985 q 680 922 590 985 q 815 746 769 858 q 860 485 860 633 q 813 220 860 333 q 677 45 767 108 q 458 -17 588 -17 m 458 132 q 612 220 549 132 q 675 489 675 308 q 616 752 675 663 q 454 840 558 840 q 297 751 353 840 q 240 488 240 663 q 300 219 240 306 q 458 132 360 132 m 363 1058 l 363 1244 l 551 1244 l 551 1058 l 363 1058 m 265 1339 l 265 1465 l 649 1465 l 649 1339 l 265 1339 z "},"Ọ":{"ha":914,"x_min":54,"x_max":860,"o":"m 458 -17 q 237 45 327 -17 q 101 220 147 108 q 54 485 54 333 q 100 748 54 635 q 235 923 146 860 q 454 985 324 985 q 680 922 590 985 q 815 746 769 858 q 860 485 860 633 q 813 220 860 333 q 677 45 767 108 q 458 -17 588 -17 m 458 132 q 612 220 549 132 q 675 489 675 308 q 616 752 675 663 q 454 840 558 840 q 297 751 353 840 q 240 488 240 663 q 300 219 240 306 q 458 132 360 132 m 364 -314 l 364 -128 l 553 -128 l 553 -314 l 364 -314 z "},"Ò":{"ha":914,"x_min":54,"x_max":860,"o":"m 458 -17 q 237 45 327 -17 q 101 220 147 108 q 54 485 54 333 q 100 748 54 635 q 235 923 146 860 q 454 985 324 985 q 680 922 590 985 q 815 746 769 858 q 860 485 860 633 q 813 220 860 333 q 677 45 767 108 q 458 -17 588 -17 m 458 132 q 612 220 549 132 q 675 489 675 308 q 616 752 675 663 q 454 840 558 840 q 297 751 353 840 q 240 488 240 663 q 300 219 240 306 q 458 132 360 132 m 417 1058 l 243 1313 l 414 1313 l 550 1058 l 417 1058 z "},"Ỏ":{"ha":914,"x_min":54,"x_max":860,"o":"m 458 -17 q 237 45 327 -17 q 101 220 147 108 q 54 485 54 333 q 100 748 54 635 q 235 923 146 860 q 454 985 324 985 q 680 922 590 985 q 815 746 769 858 q 860 485 860 633 q 813 220 860 333 q 677 45 767 108 q 458 -17 588 -17 m 458 132 q 612 220 549 132 q 675 489 675 308 q 616 752 675 663 q 454 840 558 840 q 297 751 353 840 q 240 488 240 663 q 300 219 240 306 q 458 132 360 132 m 472 1058 q 428 1059 445 1058 q 389 1067 411 1060 l 365 1140 q 407 1136 384 1136 q 470 1150 440 1136 q 500 1203 500 1163 q 477 1245 500 1226 q 413 1264 453 1264 q 369 1256 391 1264 q 319 1235 347 1249 l 290 1321 q 353 1355 306 1335 q 451 1374 401 1374 q 534 1360 490 1374 q 611 1312 579 1347 q 643 1215 643 1278 q 623 1143 643 1179 q 565 1083 603 1107 q 472 1058 527 1058 z "},"Ơ":{"ha":914,"x_min":54,"x_max":892,"o":"m 458 -17 q 237 45 327 -17 q 101 220 147 108 q 54 485 54 333 q 100 748 54 635 q 235 923 146 860 q 454 985 324 985 q 631 949 553 985 q 717 986 685 950 q 749 1081 749 1022 q 746 1126 749 1109 q 738 1160 744 1143 l 882 1160 q 890 1123 888 1143 q 892 1060 892 1103 q 870 968 892 1010 q 815 899 849 926 q 746 862 781 871 q 831 699 803 796 q 860 485 860 603 q 813 220 860 333 q 677 45 767 108 q 458 -17 588 -17 m 458 132 q 612 220 549 132 q 675 489 675 308 q 616 752 675 663 q 454 840 558 840 q 297 751 353 840 q 240 488 240 663 q 300 219 240 306 q 458 132 360 132 z "},"Ớ":{"ha":914,"x_min":54,"x_max":892,"o":"m 385 1085 l 521 1365 l 710 1365 l 536 1085 l 385 1085 m 458 -17 q 237 45 327 -17 q 101 220 147 108 q 54 485 54 333 q 100 748 54 635 q 235 923 146 860 q 454 985 324 985 q 631 949 553 985 q 717 986 685 950 q 749 1081 749 1022 q 746 1126 749 1109 q 738 1160 744 1143 l 882 1160 q 890 1123 888 1143 q 892 1060 892 1103 q 870 968 892 1010 q 815 899 849 926 q 746 862 781 871 q 831 699 803 796 q 860 485 860 603 q 813 220 860 333 q 677 45 767 108 q 458 -17 588 -17 m 458 132 q 612 220 549 132 q 675 489 675 308 q 616 752 675 663 q 454 840 558 840 q 297 751 353 840 q 240 488 240 663 q 300 219 240 306 q 458 132 360 132 z "},"Ợ":{"ha":914,"x_min":54,"x_max":892,"o":"m 458 -17 q 237 45 327 -17 q 101 220 147 108 q 54 485 54 333 q 100 748 54 635 q 235 923 146 860 q 454 985 324 985 q 631 949 553 985 q 717 986 685 950 q 749 1081 749 1022 q 746 1126 749 1109 q 738 1160 744 1143 l 882 1160 q 890 1123 888 1143 q 892 1060 892 1103 q 870 968 892 1010 q 815 899 849 926 q 746 862 781 871 q 831 699 803 796 q 860 485 860 603 q 813 220 860 333 q 677 45 767 108 q 458 -17 588 -17 m 458 132 q 612 220 549 132 q 675 489 675 308 q 616 752 675 663 q 454 840 558 840 q 297 751 353 840 q 240 488 240 663 q 300 219 240 306 q 458 132 360 132 m 364 -314 l 364 -128 l 553 -128 l 553 -314 l 364 -314 z "},"Ờ":{"ha":914,"x_min":54,"x_max":892,"o":"m 417 1058 l 243 1313 l 414 1313 l 550 1058 l 417 1058 m 458 -17 q 237 45 327 -17 q 101 220 147 108 q 54 485 54 333 q 100 748 54 635 q 235 923 146 860 q 454 985 324 985 q 631 949 553 985 q 717 986 685 950 q 749 1081 749 1022 q 746 1126 749 1109 q 738 1160 744 1143 l 882 1160 q 890 1123 888 1143 q 892 1060 892 1103 q 870 968 892 1010 q 815 899 849 926 q 746 862 781 871 q 831 699 803 796 q 860 485 860 603 q 813 220 860 333 q 677 45 767 108 q 458 -17 588 -17 m 458 132 q 612 220 549 132 q 675 489 675 308 q 616 752 675 663 q 454 840 558 840 q 297 751 353 840 q 240 488 240 663 q 300 219 240 306 q 458 132 360 132 z "},"Ở":{"ha":914,"x_min":54,"x_max":892,"o":"m 472 1058 q 428 1059 445 1058 q 389 1067 411 1060 l 365 1140 q 407 1136 384 1136 q 470 1150 440 1136 q 500 1203 500 1163 q 477 1245 500 1226 q 413 1264 453 1264 q 369 1256 391 1264 q 319 1235 347 1249 l 290 1321 q 353 1355 306 1335 q 451 1374 401 1374 q 534 1360 490 1374 q 611 1312 579 1347 q 643 1215 643 1278 q 623 1143 643 1179 q 565 1083 603 1107 q 472 1058 527 1058 m 458 -17 q 237 45 327 -17 q 101 220 147 108 q 54 485 54 333 q 100 748 54 635 q 235 923 146 860 q 454 985 324 985 q 631 949 553 985 q 717 986 685 950 q 749 1081 749 1022 q 746 1126 749 1109 q 738 1160 744 1143 l 882 1160 q 890 1123 888 1143 q 892 1060 892 1103 q 870 968 892 1010 q 815 899 849 926 q 746 862 781 871 q 831 699 803 796 q 860 485 860 603 q 813 220 860 333 q 677 45 767 108 q 458 -17 588 -17 m 458 132 q 612 220 549 132 q 675 489 675 308 q 616 752 675 663 q 454 840 558 840 q 297 751 353 840 q 240 488 240 663 q 300 219 240 306 q 458 132 360 132 z "},"Ỡ":{"ha":914,"x_min":54,"x_max":892,"o":"m 547 1063 q 479 1076 503 1063 q 436 1107 455 1090 q 405 1131 421 1122 q 367 1140 390 1140 q 323 1125 345 1140 q 286 1074 300 1109 l 214 1131 q 276 1221 236 1184 q 368 1258 316 1258 q 438 1244 414 1258 q 479 1214 463 1231 q 508 1192 493 1201 q 549 1183 524 1183 q 594 1201 573 1183 q 622 1256 615 1219 l 700 1196 q 675 1133 696 1163 q 620 1082 653 1102 q 547 1063 588 1063 m 458 -17 q 237 45 327 -17 q 101 220 147 108 q 54 485 54 333 q 100 748 54 635 q 235 923 146 860 q 454 985 324 985 q 631 949 553 985 q 717 986 685 950 q 749 1081 749 1022 q 746 1126 749 1109 q 738 1160 744 1143 l 882 1160 q 890 1123 888 1143 q 892 1060 892 1103 q 870 968 892 1010 q 815 899 849 926 q 746 862 781 871 q 831 699 803 796 q 860 485 860 603 q 813 220 860 333 q 677 45 767 108 q 458 -17 588 -17 m 458 132 q 612 220 549 132 q 675 489 675 308 q 616 752 675 663 q 454 840 558 840 q 297 751 353 840 q 240 488 240 663 q 300 219 240 306 q 458 132 360 132 z "},"Ő":{"ha":914,"x_min":54,"x_max":860,"o":"m 458 -17 q 237 45 327 -17 q 101 220 147 108 q 54 485 54 333 q 100 748 54 635 q 235 923 146 860 q 454 985 324 985 q 680 922 590 985 q 815 746 769 858 q 860 485 860 633 q 813 220 860 333 q 677 45 767 108 q 458 -17 588 -17 m 458 132 q 612 220 549 132 q 675 489 675 308 q 616 752 675 663 q 454 840 558 840 q 297 751 353 840 q 240 488 240 663 q 300 219 240 306 q 458 132 360 132 m 511 1058 l 658 1313 l 808 1313 l 632 1058 l 511 1058 m 221 1058 l 367 1313 l 518 1313 l 342 1058 l 221 1058 z "},"Ȏ":{"ha":914,"x_min":54,"x_max":860,"o":"m 458 -17 q 237 45 327 -17 q 101 220 147 108 q 54 485 54 333 q 100 748 54 635 q 235 923 146 860 q 454 985 324 985 q 680 922 590 985 q 815 746 769 858 q 860 485 860 633 q 813 220 860 333 q 677 45 767 108 q 458 -17 588 -17 m 458 132 q 612 220 549 132 q 675 489 675 308 q 616 752 675 663 q 454 840 558 840 q 297 751 353 840 q 240 488 240 663 q 300 219 240 306 q 458 132 360 132 m 224 1058 q 289 1244 224 1181 q 457 1307 354 1307 q 625 1245 559 1307 q 692 1058 692 1183 l 564 1058 q 542 1147 562 1117 q 457 1176 522 1176 q 374 1148 396 1176 q 350 1058 352 1120 l 224 1058 z "},"Ō":{"ha":914,"x_min":54,"x_max":860,"o":"m 458 -17 q 237 45 327 -17 q 101 220 147 108 q 54 485 54 333 q 100 748 54 635 q 235 923 146 860 q 454 985 324 985 q 680 922 590 985 q 815 746 769 858 q 860 485 860 633 q 813 220 860 333 q 677 45 767 108 q 458 -17 588 -17 m 458 132 q 612 220 549 132 q 675 489 675 308 q 616 752 675 663 q 454 840 558 840 q 297 751 353 840 q 240 488 240 663 q 300 219 240 306 q 458 132 360 132 m 265 1092 l 265 1218 l 649 1218 l 649 1092 l 265 1092 z "},"Ṓ":{"ha":914,"x_min":54,"x_max":860,"o":"m 458 -17 q 237 45 327 -17 q 101 220 147 108 q 54 485 54 333 q 100 748 54 635 q 235 923 146 860 q 454 985 324 985 q 680 922 590 985 q 815 746 769 858 q 860 485 860 633 q 813 220 860 333 q 677 45 767 108 q 458 -17 588 -17 m 458 132 q 612 220 549 132 q 675 489 675 308 q 616 752 675 663 q 454 840 558 840 q 297 751 353 840 q 240 488 240 663 q 300 219 240 306 q 458 132 360 132 m 265 1092 l 265 1218 l 649 1218 l 649 1092 l 265 1092 m 378 1306 l 514 1560 l 685 1560 l 511 1306 l 378 1306 z "},"Ṑ":{"ha":914,"x_min":54,"x_max":860,"o":"m 458 -17 q 237 45 327 -17 q 101 220 147 108 q 54 485 54 333 q 100 748 54 635 q 235 923 146 860 q 454 985 324 985 q 680 922 590 985 q 815 746 769 858 q 860 485 860 633 q 813 220 860 333 q 677 45 767 108 q 458 -17 588 -17 m 458 132 q 612 220 549 132 q 675 489 675 308 q 616 752 675 663 q 454 840 558 840 q 297 751 353 840 q 240 488 240 663 q 300 219 240 306 q 458 132 360 132 m 265 1092 l 265 1218 l 649 1218 l 649 1092 l 265 1092 m 417 1306 l 243 1560 l 414 1560 l 550 1306 l 417 1306 z "},"Ǫ":{"ha":914,"x_min":54,"x_max":860,"o":"m 564 -4 q 462 -69 504 -32 q 419 -150 419 -107 q 443 -196 419 -185 q 497 -207 466 -207 q 533 -203 518 -207 q 574 -186 549 -199 l 574 -311 q 457 -333 529 -333 q 304 -292 358 -333 q 250 -178 250 -251 q 287 -85 250 -132 q 385 -11 324 -38 q 139 147 224 15 q 54 485 54 279 q 100 748 54 635 q 235 923 146 860 q 454 985 324 985 q 680 922 590 985 q 815 746 769 858 q 860 485 860 633 q 784 161 860 290 q 564 -4 708 31 m 240 488 q 300 219 240 306 q 458 132 360 132 q 612 220 549 132 q 675 489 675 308 q 616 752 675 663 q 454 840 558 840 q 297 751 353 840 q 240 488 240 663 z "},"Ɔ":{"ha":732,"x_min":22,"x_max":681,"o":"m 288 -17 q 158 -3 210 -17 q 74 30 106 11 q 22 65 42 49 l 99 203 q 168 160 122 179 q 281 142 215 142 q 427 234 366 142 q 488 507 488 326 q 461 671 488 599 q 386 784 435 743 q 265 825 336 825 q 164 805 196 825 q 101 753 132 785 l 24 899 q 70 935 42 915 q 148 970 99 956 q 272 985 196 985 q 477 929 385 985 q 625 764 570 873 q 681 497 681 656 q 648 268 681 365 q 559 108 615 171 q 433 14 503 45 q 288 -17 363 -17 z "},"Ø":{"ha":914,"x_min":54,"x_max":860,"o":"m 183 -83 l 88 -31 l 169 106 q 54 483 54 239 q 100 747 54 634 q 235 922 146 860 q 454 985 324 985 q 635 947 556 985 l 701 1063 l 799 1013 l 726 883 q 826 714 793 816 q 860 483 860 611 q 813 219 860 331 q 677 44 767 106 q 458 -18 588 -18 q 253 34 340 -18 l 183 -83 m 240 486 q 251 352 240 411 q 282 251 262 294 l 572 803 q 454 843 522 843 q 297 752 353 843 q 240 486 240 661 m 458 128 q 612 217 549 128 q 675 488 675 306 q 624 740 675 648 l 326 183 q 458 128 379 128 z "},"Ǿ":{"ha":914,"x_min":54,"x_max":860,"o":"m 183 -83 l 88 -31 l 169 106 q 54 483 54 239 q 100 747 54 634 q 235 922 146 860 q 454 985 324 985 q 635 947 556 985 l 701 1063 l 799 1013 l 726 883 q 826 714 793 816 q 860 483 860 611 q 813 219 860 331 q 677 44 767 106 q 458 -18 588 -18 q 253 34 340 -18 l 183 -83 m 240 486 q 251 352 240 411 q 282 251 262 294 l 572 803 q 454 843 522 843 q 297 752 353 843 q 240 486 240 661 m 458 128 q 612 217 549 128 q 675 488 675 306 q 624 740 675 648 l 326 183 q 458 128 379 128 m 378 1058 l 514 1313 l 685 1313 l 511 1058 l 378 1058 z "},"Õ":{"ha":914,"x_min":54,"x_max":860,"o":"m 458 -17 q 237 45 327 -17 q 101 220 147 108 q 54 485 54 333 q 100 748 54 635 q 235 923 146 860 q 454 985 324 985 q 680 922 590 985 q 815 746 769 858 q 860 485 860 633 q 813 220 860 333 q 677 45 767 108 q 458 -17 588 -17 m 458 132 q 612 220 549 132 q 675 489 675 308 q 616 752 675 663 q 454 840 558 840 q 297 751 353 840 q 240 488 240 663 q 300 219 240 306 q 458 132 360 132 m 547 1063 q 479 1076 503 1063 q 436 1107 455 1090 q 405 1131 421 1122 q 367 1140 390 1140 q 323 1125 345 1140 q 286 1074 300 1109 l 214 1131 q 276 1221 236 1184 q 368 1258 316 1258 q 438 1244 414 1258 q 479 1214 463 1231 q 508 1192 493 1201 q 549 1183 524 1183 q 594 1201 573 1183 q 622 1256 615 1219 l 700 1196 q 675 1133 696 1163 q 620 1082 653 1102 q 547 1063 588 1063 z "},"Ṍ":{"ha":914,"x_min":54,"x_max":860,"o":"m 458 -17 q 237 45 327 -17 q 101 220 147 108 q 54 485 54 333 q 100 748 54 635 q 235 923 146 860 q 454 985 324 985 q 680 922 590 985 q 815 746 769 858 q 860 485 860 633 q 813 220 860 333 q 677 45 767 108 q 458 -17 588 -17 m 458 132 q 612 220 549 132 q 675 489 675 308 q 616 752 675 663 q 454 840 558 840 q 297 751 353 840 q 240 488 240 663 q 300 219 240 306 q 458 132 360 132 m 547 1063 q 479 1076 503 1063 q 436 1107 455 1090 q 405 1131 421 1122 q 367 1140 390 1140 q 323 1125 345 1140 q 286 1074 300 1109 l 214 1131 q 276 1221 236 1184 q 368 1258 316 1258 q 438 1244 414 1258 q 479 1214 463 1231 q 508 1192 493 1201 q 549 1183 524 1183 q 594 1201 573 1183 q 622 1256 615 1219 l 700 1196 q 675 1133 696 1163 q 620 1082 653 1102 q 547 1063 588 1063 m 378 1321 l 514 1575 l 685 1575 l 511 1321 l 378 1321 z "},"Ṏ":{"ha":914,"x_min":54,"x_max":860,"o":"m 458 -17 q 237 45 327 -17 q 101 220 147 108 q 54 485 54 333 q 100 748 54 635 q 235 923 146 860 q 454 985 324 985 q 680 922 590 985 q 815 746 769 858 q 860 485 860 633 q 813 220 860 333 q 677 45 767 108 q 458 -17 588 -17 m 458 132 q 612 220 549 132 q 675 489 675 308 q 616 752 675 663 q 454 840 558 840 q 297 751 353 840 q 240 488 240 663 q 300 219 240 306 q 458 132 360 132 m 547 1063 q 479 1076 503 1063 q 436 1107 455 1090 q 405 1131 421 1122 q 367 1140 390 1140 q 323 1125 345 1140 q 286 1074 300 1109 l 214 1131 q 276 1221 236 1184 q 368 1258 316 1258 q 438 1244 414 1258 q 479 1214 463 1231 q 508 1192 493 1201 q 549 1183 524 1183 q 594 1201 573 1183 q 622 1256 615 1219 l 700 1196 q 675 1133 696 1163 q 620 1082 653 1102 q 547 1063 588 1063 m 504 1321 l 504 1506 l 688 1506 l 688 1321 l 504 1321 m 226 1321 l 226 1506 l 410 1506 l 410 1321 l 226 1321 z "},"Ȭ":{"ha":914,"x_min":54,"x_max":860,"o":"m 458 -17 q 237 45 327 -17 q 101 220 147 108 q 54 485 54 333 q 100 748 54 635 q 235 923 146 860 q 454 985 324 985 q 680 922 590 985 q 815 746 769 858 q 860 485 860 633 q 813 220 860 333 q 677 45 767 108 q 458 -17 588 -17 m 458 132 q 612 220 549 132 q 675 489 675 308 q 616 752 675 663 q 454 840 558 840 q 297 751 353 840 q 240 488 240 663 q 300 219 240 306 q 458 132 360 132 m 547 1063 q 479 1076 503 1063 q 436 1107 455 1090 q 405 1131 421 1122 q 367 1140 390 1140 q 323 1125 345 1140 q 286 1074 300 1109 l 214 1131 q 276 1221 236 1184 q 368 1258 316 1258 q 438 1244 414 1258 q 479 1214 463 1231 q 508 1192 493 1201 q 549 1183 524 1183 q 594 1201 573 1183 q 622 1256 615 1219 l 700 1196 q 675 1133 696 1163 q 620 1082 653 1102 q 547 1063 588 1063 m 265 1354 l 265 1481 l 649 1481 l 649 1354 l 265 1354 z "},"Œ":{"ha":1267,"x_min":54,"x_max":1210,"o":"m 458 -18 q 237 44 327 -18 q 101 219 147 106 q 54 483 54 331 q 100 747 54 634 q 235 922 146 860 q 454 985 324 985 q 681 915 604 985 l 681 968 l 1182 968 l 1182 821 l 836 821 l 836 590 l 1114 590 l 1114 443 l 836 443 l 836 153 l 1210 153 l 1210 0 l 681 0 l 681 51 q 458 -18 606 -18 m 458 128 q 612 217 549 128 q 675 488 675 306 q 616 752 675 662 q 454 843 558 843 q 297 752 353 843 q 240 486 240 661 q 300 216 240 305 q 458 128 360 128 z "},"P":{"ha":760,"x_min":117,"x_max":732,"o":"m 117 0 l 117 968 l 376 968 q 556 938 475 968 q 684 834 636 908 q 732 629 732 760 q 696 450 732 534 q 582 313 660 365 q 382 260 505 260 l 296 260 l 296 0 l 117 0 m 365 828 l 296 828 l 296 406 l 369 406 q 507 460 461 406 q 553 619 553 515 q 511 777 553 726 q 365 828 469 828 z "},"Ṕ":{"ha":760,"x_min":117,"x_max":732,"o":"m 117 0 l 117 968 l 376 968 q 556 938 475 968 q 684 834 636 908 q 732 629 732 760 q 696 450 732 534 q 582 313 660 365 q 382 260 505 260 l 296 260 l 296 0 l 117 0 m 365 828 l 296 828 l 296 406 l 369 406 q 507 460 461 406 q 553 619 553 515 q 511 777 553 726 q 365 828 469 828 m 340 1058 l 476 1313 l 647 1313 l 474 1058 l 340 1058 z "},"Ṗ":{"ha":760,"x_min":117,"x_max":732,"o":"m 117 0 l 117 968 l 376 968 q 556 938 475 968 q 684 834 636 908 q 732 629 732 760 q 696 450 732 534 q 582 313 660 365 q 382 260 505 260 l 296 260 l 296 0 l 117 0 m 365 828 l 296 828 l 296 406 l 369 406 q 507 460 461 406 q 553 619 553 515 q 511 777 553 726 q 365 828 469 828 m 325 1058 l 325 1244 l 514 1244 l 514 1058 l 325 1058 z "},"Ƥ":{"ha":944,"x_min":7,"x_max":916,"o":"m 301 0 l 301 817 q 206 790 233 817 q 178 719 178 764 q 193 646 178 672 q 222 599 208 619 l 69 572 q 30 631 53 584 q 7 740 7 677 q 36 858 7 806 q 131 939 66 909 q 301 968 195 968 l 560 968 q 740 938 659 968 q 868 834 820 908 q 916 629 916 760 q 880 450 916 534 q 766 313 844 365 q 566 260 689 260 l 480 260 l 480 0 l 301 0 m 549 828 l 480 828 l 480 406 l 553 406 q 691 460 645 406 q 737 619 737 515 q 695 777 737 726 q 549 828 653 828 z "},"Þ":{"ha":778,"x_min":117,"x_max":750,"o":"m 117 0 l 117 968 l 289 968 l 289 817 l 375 817 q 569 785 484 817 q 702 681 653 754 q 750 483 750 608 q 711 318 750 394 q 587 194 673 241 q 360 147 501 147 l 289 147 l 289 0 l 117 0 m 371 676 l 289 676 l 289 289 l 364 289 q 526 336 481 289 q 571 474 571 383 q 553 581 571 535 q 492 651 535 626 q 371 676 449 676 z "},"Q":{"ha":914,"x_min":54,"x_max":860,"o":"m 458 -17 q 237 45 327 -17 q 101 220 147 108 q 54 485 54 333 q 100 748 54 635 q 235 923 146 860 q 454 985 324 985 q 680 922 590 985 q 815 746 769 858 q 860 485 860 633 q 801 193 860 314 q 632 19 743 72 l 738 -154 l 578 -240 l 472 -17 q 458 -17 465 -17 m 458 132 q 612 220 549 132 q 675 489 675 308 q 616 752 675 663 q 454 840 558 840 q 297 751 353 840 q 240 488 240 663 q 300 219 240 306 q 458 132 360 132 z "},"R":{"ha":801,"x_min":117,"x_max":757,"o":"m 757 0 l 542 0 l 293 350 l 293 0 l 117 0 l 117 968 l 386 968 q 563 939 485 968 q 685 843 640 910 q 731 660 731 776 q 709 530 731 597 q 639 410 688 463 q 507 336 590 357 l 757 0 m 293 438 l 367 438 q 469 466 428 438 q 532 542 510 495 q 553 643 553 589 q 510 783 553 737 q 363 829 467 829 l 293 829 l 293 438 z "},"Ŕ":{"ha":801,"x_min":117,"x_max":757,"o":"m 757 0 l 542 0 l 293 350 l 293 0 l 117 0 l 117 968 l 386 968 q 563 939 485 968 q 685 843 640 910 q 731 660 731 776 q 709 530 731 597 q 639 410 688 463 q 507 336 590 357 l 757 0 m 293 438 l 367 438 q 469 466 428 438 q 532 542 510 495 q 553 643 553 589 q 510 783 553 737 q 363 829 467 829 l 293 829 l 293 438 m 351 1058 l 488 1313 l 658 1313 l 485 1058 l 351 1058 z "},"Ř":{"ha":801,"x_min":117,"x_max":757,"o":"m 757 0 l 542 0 l 293 350 l 293 0 l 117 0 l 117 968 l 386 968 q 563 939 485 968 q 685 843 640 910 q 731 660 731 776 q 709 530 731 597 q 639 410 688 463 q 507 336 590 357 l 757 0 m 293 438 l 367 438 q 469 466 428 438 q 532 542 510 495 q 553 643 553 589 q 510 783 553 737 q 363 829 467 829 l 293 829 l 293 438 m 388 1058 l 169 1313 l 308 1313 l 431 1195 l 546 1313 l 686 1313 l 474 1058 l 388 1058 z "},"Ŗ":{"ha":801,"x_min":117,"x_max":757,"o":"m 757 0 l 542 0 l 293 350 l 293 0 l 117 0 l 117 968 l 386 968 q 563 939 485 968 q 685 843 640 910 q 731 660 731 776 q 709 530 731 597 q 639 410 688 463 q 507 336 590 357 l 757 0 m 293 438 l 367 438 q 469 466 428 438 q 532 542 510 495 q 553 643 553 589 q 510 783 553 737 q 363 829 467 829 l 293 829 l 293 438 m 299 -382 q 316 -325 302 -370 q 329 -196 329 -279 q 329 -162 329 -179 q 328 -128 329 -145 l 501 -128 q 502 -158 503 -136 q 501 -186 501 -181 q 484 -287 501 -247 q 448 -350 466 -327 q 426 -382 429 -373 l 299 -382 z "},"Ȑ":{"ha":801,"x_min":69,"x_max":757,"o":"m 757 0 l 542 0 l 293 350 l 293 0 l 117 0 l 117 968 l 386 968 q 563 939 485 968 q 685 843 640 910 q 731 660 731 776 q 709 530 731 597 q 639 410 688 463 q 507 336 590 357 l 757 0 m 293 438 l 367 438 q 469 466 428 438 q 532 542 510 495 q 553 643 553 589 q 510 783 553 737 q 363 829 467 829 l 293 829 l 293 438 m 249 1058 l 69 1313 l 222 1313 l 369 1058 l 249 1058 m 539 1058 l 363 1313 l 514 1313 l 660 1058 l 539 1058 z "},"Ṙ":{"ha":801,"x_min":117,"x_max":757,"o":"m 757 0 l 542 0 l 293 350 l 293 0 l 117 0 l 117 968 l 386 968 q 563 939 485 968 q 685 843 640 910 q 731 660 731 776 q 709 530 731 597 q 639 410 688 463 q 507 336 590 357 l 757 0 m 293 438 l 367 438 q 469 466 428 438 q 532 542 510 495 q 553 643 553 589 q 510 783 553 737 q 363 829 467 829 l 293 829 l 293 438 m 336 1058 l 336 1244 l 525 1244 l 525 1058 l 336 1058 z "},"Ṛ":{"ha":801,"x_min":117,"x_max":757,"o":"m 757 0 l 542 0 l 293 350 l 293 0 l 117 0 l 117 968 l 386 968 q 563 939 485 968 q 685 843 640 910 q 731 660 731 776 q 709 530 731 597 q 639 410 688 463 q 507 336 590 357 l 757 0 m 293 438 l 367 438 q 469 466 428 438 q 532 542 510 495 q 553 643 553 589 q 510 783 553 737 q 363 829 467 829 l 293 829 l 293 438 m 314 -304 l 314 -118 l 503 -118 l 503 -304 l 314 -304 z "},"Ȓ":{"ha":801,"x_min":117,"x_max":757,"o":"m 757 0 l 542 0 l 293 350 l 293 0 l 117 0 l 117 968 l 386 968 q 563 939 485 968 q 685 843 640 910 q 731 660 731 776 q 709 530 731 597 q 639 410 688 463 q 507 336 590 357 l 757 0 m 293 438 l 367 438 q 469 466 428 438 q 532 542 510 495 q 553 643 553 589 q 510 783 553 737 q 363 829 467 829 l 293 829 l 293 438 m 197 1058 q 263 1244 197 1181 q 431 1307 328 1307 q 599 1245 533 1307 q 665 1058 665 1183 l 538 1058 q 515 1147 535 1117 q 431 1176 495 1176 q 348 1148 369 1176 q 324 1058 326 1120 l 197 1058 z "},"Ṟ":{"ha":801,"x_min":117,"x_max":757,"o":"m 757 0 l 542 0 l 293 350 l 293 0 l 117 0 l 117 968 l 386 968 q 563 939 485 968 q 685 843 640 910 q 731 660 731 776 q 709 530 731 597 q 639 410 688 463 q 507 336 590 357 l 757 0 m 293 438 l 367 438 q 469 466 428 438 q 532 542 510 495 q 553 643 553 589 q 510 783 553 737 q 363 829 467 829 l 293 829 l 293 438 m 217 -254 l 217 -128 l 600 -128 l 600 -254 l 217 -254 z "},"Ɍ":{"ha":822,"x_min":29,"x_max":778,"o":"m 29 365 l 29 504 l 138 504 l 138 968 l 407 968 q 583 940 506 968 q 706 849 661 913 q 751 681 751 786 q 730 565 751 628 q 660 451 709 503 q 528 378 611 399 l 778 0 l 563 0 l 314 392 l 314 0 l 138 0 l 138 365 l 29 365 m 314 479 l 388 479 q 490 507 449 479 q 552 578 531 535 q 574 664 574 620 q 531 786 574 742 q 383 829 488 829 l 314 829 l 314 479 z "},"ɍ":{"ha":822,"x_min":29,"x_max":778,"o":"m 29 365 l 29 504 l 138 504 l 138 968 l 407 968 q 583 940 506 968 q 706 849 661 913 q 751 681 751 786 q 730 565 751 628 q 660 451 709 503 q 528 378 611 399 l 778 0 l 563 0 l 314 392 l 314 0 l 138 0 l 138 365 l 29 365 m 314 479 l 388 479 q 490 507 449 479 q 552 578 531 535 q 574 664 574 620 q 531 786 574 742 q 383 829 488 829 l 314 829 l 314 479 z "},"Ɽ":{"ha":815,"x_min":117,"x_max":771,"o":"m 117 0 l 117 968 l 386 968 q 563 941 485 968 q 685 848 640 914 q 731 667 731 783 q 709 543 731 607 q 639 428 688 479 q 507 357 590 378 l 771 0 l 556 0 l 293 371 l 293 0 l 290 0 q 306 -79 290 -55 q 367 -103 322 -103 q 423 -91 403 -103 q 463 -65 442 -80 l 499 -223 q 447 -253 487 -238 q 354 -269 407 -269 q 216 -245 268 -269 q 140 -164 163 -222 q 117 0 117 -106 m 293 458 l 367 458 q 469 485 428 458 q 532 556 510 512 q 553 650 553 599 q 510 786 553 744 q 363 829 467 829 l 293 829 l 293 458 z "},"S":{"ha":700,"x_min":63,"x_max":651,"o":"m 353 -15 q 174 19 251 -15 q 63 90 98 53 l 133 236 q 180 194 148 217 q 253 152 211 170 q 340 135 295 135 q 431 164 392 135 q 469 250 469 193 q 430 339 469 306 q 321 414 390 372 q 210 486 265 448 q 120 581 156 525 q 85 722 85 637 q 158 911 85 837 q 371 985 231 985 q 491 968 442 985 q 572 930 541 951 q 618 894 603 908 l 540 753 q 508 787 531 767 q 451 822 485 807 q 378 838 418 838 q 293 805 322 838 q 265 729 265 773 q 307 638 265 673 q 407 567 348 602 q 528 489 472 528 q 617 395 583 449 q 651 256 651 340 q 572 57 651 128 q 353 -15 492 -15 z "},"Ś":{"ha":700,"x_min":63,"x_max":651,"o":"m 353 -15 q 174 19 251 -15 q 63 90 98 53 l 133 236 q 180 194 148 217 q 253 152 211 170 q 340 135 295 135 q 431 164 392 135 q 469 250 469 193 q 430 339 469 306 q 321 414 390 372 q 210 486 265 448 q 120 581 156 525 q 85 722 85 637 q 158 911 85 837 q 371 985 231 985 q 491 968 442 985 q 572 930 541 951 q 618 894 603 908 l 540 753 q 508 787 531 767 q 451 822 485 807 q 378 838 418 838 q 293 805 322 838 q 265 729 265 773 q 307 638 265 673 q 407 567 348 602 q 528 489 472 528 q 617 395 583 449 q 651 256 651 340 q 572 57 651 128 q 353 -15 492 -15 m 294 1058 l 431 1313 l 601 1313 l 428 1058 l 294 1058 z "},"Ṥ":{"ha":700,"x_min":63,"x_max":651,"o":"m 353 -15 q 174 19 251 -15 q 63 90 98 53 l 133 236 q 180 194 148 217 q 253 152 211 170 q 340 135 295 135 q 431 164 392 135 q 469 250 469 193 q 430 339 469 306 q 321 414 390 372 q 210 486 265 448 q 120 581 156 525 q 85 722 85 637 q 158 911 85 837 q 371 985 231 985 q 491 968 442 985 q 572 930 541 951 q 618 894 603 908 l 540 753 q 508 787 531 767 q 451 822 485 807 q 378 838 418 838 q 293 805 322 838 q 265 729 265 773 q 307 638 265 673 q 407 567 348 602 q 528 489 472 528 q 617 395 583 449 q 651 256 651 340 q 572 57 651 128 q 353 -15 492 -15 m 294 1058 l 431 1313 l 601 1313 l 428 1058 l 294 1058 m 279 1357 l 279 1543 l 468 1543 l 468 1357 l 279 1357 z "},"Ꞌ":{"ha":406,"x_min":113,"x_max":293,"o":"m 113 483 l 113 968 l 293 968 l 293 483 l 113 483 z "},"Š":{"ha":700,"x_min":63,"x_max":651,"o":"m 353 -15 q 174 19 251 -15 q 63 90 98 53 l 133 236 q 180 194 148 217 q 253 152 211 170 q 340 135 295 135 q 431 164 392 135 q 469 250 469 193 q 430 339 469 306 q 321 414 390 372 q 210 486 265 448 q 120 581 156 525 q 85 722 85 637 q 158 911 85 837 q 371 985 231 985 q 491 968 442 985 q 572 930 541 951 q 618 894 603 908 l 540 753 q 508 787 531 767 q 451 822 485 807 q 378 838 418 838 q 293 805 322 838 q 265 729 265 773 q 307 638 265 673 q 407 567 348 602 q 528 489 472 528 q 617 395 583 449 q 651 256 651 340 q 572 57 651 128 q 353 -15 492 -15 m 331 1058 l 113 1313 l 251 1313 l 374 1195 l 489 1313 l 629 1313 l 417 1058 l 331 1058 z "},"Ṧ":{"ha":700,"x_min":63,"x_max":651,"o":"m 353 -15 q 174 19 251 -15 q 63 90 98 53 l 133 236 q 180 194 148 217 q 253 152 211 170 q 340 135 295 135 q 431 164 392 135 q 469 250 469 193 q 430 339 469 306 q 321 414 390 372 q 210 486 265 448 q 120 581 156 525 q 85 722 85 637 q 158 911 85 837 q 371 985 231 985 q 491 968 442 985 q 572 930 541 951 q 618 894 603 908 l 540 753 q 508 787 531 767 q 451 822 485 807 q 378 838 418 838 q 293 805 322 838 q 265 729 265 773 q 307 638 265 673 q 407 567 348 602 q 528 489 472 528 q 617 395 583 449 q 651 256 651 340 q 572 57 651 128 q 353 -15 492 -15 m 331 1058 l 113 1313 l 251 1313 l 374 1195 l 489 1313 l 629 1313 l 417 1058 l 331 1058 m 279 1342 l 279 1528 l 468 1528 l 468 1342 l 279 1342 z "},"Ş":{"ha":700,"x_min":63,"x_max":651,"o":"m 353 -15 q 174 19 251 -15 q 63 90 98 53 l 133 236 q 180 194 148 217 q 253 152 211 170 q 340 135 295 135 q 431 164 392 135 q 469 250 469 193 q 430 339 469 306 q 321 414 390 372 q 210 486 265 448 q 120 581 156 525 q 85 722 85 637 q 158 911 85 837 q 371 985 231 985 q 491 968 442 985 q 572 930 541 951 q 618 894 603 908 l 540 753 q 508 787 531 767 q 451 822 485 807 q 378 838 418 838 q 293 805 322 838 q 265 729 265 773 q 307 638 265 673 q 407 567 348 602 q 528 489 472 528 q 617 395 583 449 q 651 256 651 340 q 572 57 651 128 q 353 -15 492 -15 m 328 -376 q 247 -357 285 -376 q 193 -324 209 -338 l 222 -237 q 274 -259 251 -252 q 319 -267 297 -267 q 381 -247 358 -267 q 403 -204 403 -228 q 373 -152 403 -165 q 310 -139 343 -139 q 288 -140 299 -139 q 268 -143 278 -142 l 303 22 l 428 22 l 401 -79 q 505 -122 463 -79 q 546 -218 546 -164 q 514 -320 546 -286 q 433 -365 483 -354 q 328 -376 383 -376 z "},"Ŝ":{"ha":700,"x_min":63,"x_max":651,"o":"m 353 -15 q 174 19 251 -15 q 63 90 98 53 l 133 236 q 180 194 148 217 q 253 152 211 170 q 340 135 295 135 q 431 164 392 135 q 469 250 469 193 q 430 339 469 306 q 321 414 390 372 q 210 486 265 448 q 120 581 156 525 q 85 722 85 637 q 158 911 85 837 q 371 985 231 985 q 491 968 442 985 q 572 930 541 951 q 618 894 603 908 l 540 753 q 508 787 531 767 q 451 822 485 807 q 378 838 418 838 q 293 805 322 838 q 265 729 265 773 q 307 638 265 673 q 407 567 348 602 q 528 489 472 528 q 617 395 583 449 q 651 256 651 340 q 572 57 651 128 q 353 -15 492 -15 m 113 1058 l 331 1313 l 417 1313 l 629 1058 l 489 1058 l 374 1176 l 251 1058 l 113 1058 z "},"Ș":{"ha":700,"x_min":63,"x_max":651,"o":"m 353 -15 q 174 19 251 -15 q 63 90 98 53 l 133 236 q 180 194 148 217 q 253 152 211 170 q 340 135 295 135 q 431 164 392 135 q 469 250 469 193 q 430 339 469 306 q 321 414 390 372 q 210 486 265 448 q 120 581 156 525 q 85 722 85 637 q 158 911 85 837 q 371 985 231 985 q 491 968 442 985 q 572 930 541 951 q 618 894 603 908 l 540 753 q 508 787 531 767 q 451 822 485 807 q 378 838 418 838 q 293 805 322 838 q 265 729 265 773 q 307 638 265 673 q 407 567 348 602 q 528 489 472 528 q 617 395 583 449 q 651 256 651 340 q 572 57 651 128 q 353 -15 492 -15 m 250 -382 q 267 -325 253 -370 q 281 -196 281 -279 q 281 -162 281 -179 q 279 -128 281 -145 l 453 -128 q 453 -158 454 -136 q 453 -186 453 -181 q 435 -287 453 -247 q 399 -350 417 -327 q 378 -382 381 -373 l 250 -382 z "},"Ṡ":{"ha":700,"x_min":63,"x_max":651,"o":"m 353 -15 q 174 19 251 -15 q 63 90 98 53 l 133 236 q 180 194 148 217 q 253 152 211 170 q 340 135 295 135 q 431 164 392 135 q 469 250 469 193 q 430 339 469 306 q 321 414 390 372 q 210 486 265 448 q 120 581 156 525 q 85 722 85 637 q 158 911 85 837 q 371 985 231 985 q 491 968 442 985 q 572 930 541 951 q 618 894 603 908 l 540 753 q 508 787 531 767 q 451 822 485 807 q 378 838 418 838 q 293 805 322 838 q 265 729 265 773 q 307 638 265 673 q 407 567 348 602 q 528 489 472 528 q 617 395 583 449 q 651 256 651 340 q 572 57 651 128 q 353 -15 492 -15 m 279 1058 l 279 1244 l 468 1244 l 468 1058 l 279 1058 z "},"Ṣ":{"ha":700,"x_min":63,"x_max":651,"o":"m 353 -15 q 174 19 251 -15 q 63 90 98 53 l 133 236 q 180 194 148 217 q 253 152 211 170 q 340 135 295 135 q 431 164 392 135 q 469 250 469 193 q 430 339 469 306 q 321 414 390 372 q 210 486 265 448 q 120 581 156 525 q 85 722 85 637 q 158 911 85 837 q 371 985 231 985 q 491 968 442 985 q 572 930 541 951 q 618 894 603 908 l 540 753 q 508 787 531 767 q 451 822 485 807 q 378 838 418 838 q 293 805 322 838 q 265 729 265 773 q 307 638 265 673 q 407 567 348 602 q 528 489 472 528 q 617 395 583 449 q 651 256 651 340 q 572 57 651 128 q 353 -15 492 -15 m 265 -304 l 265 -118 l 454 -118 l 454 -304 l 265 -304 z "},"Ṩ":{"ha":700,"x_min":63,"x_max":651,"o":"m 353 -15 q 174 19 251 -15 q 63 90 98 53 l 133 236 q 180 194 148 217 q 253 152 211 170 q 340 135 295 135 q 431 164 392 135 q 469 250 469 193 q 430 339 469 306 q 321 414 390 372 q 210 486 265 448 q 120 581 156 525 q 85 722 85 637 q 158 911 85 837 q 371 985 231 985 q 491 968 442 985 q 572 930 541 951 q 618 894 603 908 l 540 753 q 508 787 531 767 q 451 822 485 807 q 378 838 418 838 q 293 805 322 838 q 265 729 265 773 q 307 638 265 673 q 407 567 348 602 q 528 489 472 528 q 617 395 583 449 q 651 256 651 340 q 572 57 651 128 q 353 -15 492 -15 m 265 -304 l 265 -118 l 454 -118 l 454 -304 l 265 -304 m 279 1058 l 279 1244 l 468 1244 l 468 1058 l 279 1058 z "},"ẞ":{"ha":893,"x_min":92,"x_max":801,"o":"m 799 956 l 597 578 q 748 488 695 554 q 801 328 801 421 q 707 78 801 165 q 442 -8 612 -8 q 388 -7 421 -8 q 332 -3 355 -6 l 336 149 q 372 144 351 146 q 408 142 394 142 q 478 146 442 142 q 545 166 514 150 q 595 217 576 182 q 614 314 614 252 q 582 402 614 369 q 497 451 551 436 q 375 467 442 467 l 553 828 l 483 828 q 353 779 401 828 q 286 651 306 731 q 267 481 267 572 l 267 0 l 92 0 l 92 465 q 140 751 92 640 q 274 915 188 863 q 475 968 360 968 l 790 968 l 799 956 z "},"T":{"ha":676,"x_min":25,"x_max":651,"o":"m 249 0 l 249 811 l 25 811 l 25 968 l 651 968 l 651 811 l 428 811 l 428 0 l 249 0 z "},"Ŧ":{"ha":676,"x_min":25,"x_max":651,"o":"m 428 0 l 249 0 l 249 439 l 83 439 l 83 557 l 249 557 l 249 811 l 25 811 l 25 968 l 651 968 l 651 811 l 428 811 l 428 557 l 592 557 l 592 439 l 428 439 l 428 0 z "},"Ť":{"ha":676,"x_min":25,"x_max":651,"o":"m 249 0 l 249 811 l 25 811 l 25 968 l 651 968 l 651 811 l 428 811 l 428 0 l 249 0 m 296 1058 l 78 1313 l 217 1313 l 340 1195 l 454 1313 l 594 1313 l 382 1058 l 296 1058 z "},"Ţ":{"ha":676,"x_min":25,"x_max":651,"o":"m 249 0 l 249 811 l 25 811 l 25 968 l 651 968 l 651 811 l 428 811 l 428 0 l 249 0 m 307 -376 q 226 -357 265 -376 q 172 -324 188 -338 l 201 -237 q 253 -259 230 -252 q 299 -267 276 -267 q 360 -247 338 -267 q 382 -204 382 -228 q 352 -152 382 -165 q 289 -139 322 -139 q 267 -140 278 -139 q 247 -143 257 -142 l 282 22 l 407 22 l 381 -79 q 484 -122 442 -79 q 525 -218 525 -164 q 493 -320 525 -286 q 412 -365 462 -354 q 307 -376 362 -376 z "},"Ṱ":{"ha":676,"x_min":25,"x_max":651,"o":"m 249 0 l 249 811 l 25 811 l 25 968 l 651 968 l 651 811 l 428 811 l 428 0 l 249 0 m 97 -367 l 296 -128 l 382 -128 l 581 -367 l 440 -367 l 340 -253 l 236 -367 l 97 -367 z "},"Ț":{"ha":676,"x_min":25,"x_max":651,"o":"m 249 0 l 249 811 l 25 811 l 25 968 l 651 968 l 651 811 l 428 811 l 428 0 l 249 0 m 229 -382 q 246 -325 233 -370 q 260 -196 260 -279 q 260 -162 260 -179 q 258 -128 260 -145 l 432 -128 q 433 -158 433 -136 q 432 -186 432 -181 q 414 -287 432 -247 q 378 -350 397 -327 q 357 -382 360 -373 l 229 -382 z "},"Ṫ":{"ha":676,"x_min":25,"x_max":651,"o":"m 249 0 l 249 811 l 25 811 l 25 968 l 651 968 l 651 811 l 428 811 l 428 0 l 249 0 m 244 1058 l 244 1244 l 433 1244 l 433 1058 l 244 1058 z "},"Ṭ":{"ha":676,"x_min":25,"x_max":651,"o":"m 249 0 l 249 811 l 25 811 l 25 968 l 651 968 l 651 811 l 428 811 l 428 0 l 249 0 m 244 -304 l 244 -118 l 433 -118 l 433 -304 l 244 -304 z "},"Ƭ":{"ha":828,"x_min":7,"x_max":803,"o":"m 400 0 l 400 811 l 301 811 q 206 788 233 811 q 178 719 178 764 q 193 646 178 672 q 222 599 208 619 l 69 572 q 30 631 53 584 q 7 740 7 677 q 36 858 7 806 q 131 939 66 909 q 301 968 195 968 l 803 968 l 803 811 l 579 811 l 579 0 l 400 0 z "},"Ṯ":{"ha":676,"x_min":25,"x_max":651,"o":"m 249 0 l 249 811 l 25 811 l 25 968 l 651 968 l 651 811 l 428 811 l 428 0 l 249 0 m 147 -254 l 147 -128 l 531 -128 l 531 -254 l 147 -254 z "},"Ʈ":{"ha":676,"x_min":25,"x_max":651,"o":"m 249 0 l 249 811 l 25 811 l 25 968 l 651 968 l 651 811 l 428 811 l 428 0 q 445 -75 428 -55 q 496 -96 462 -96 q 561 -84 540 -96 q 602 -58 581 -73 l 638 -198 q 586 -239 626 -217 q 493 -262 546 -262 q 344 -232 398 -262 q 269 -144 291 -203 q 249 0 248 -86 z "},"U":{"ha":863,"x_min":92,"x_max":771,"o":"m 436 -18 q 263 15 341 -18 q 138 127 185 48 q 92 346 92 207 l 92 968 l 272 968 l 272 326 q 299 203 272 244 q 363 148 326 162 q 433 133 401 133 q 504 147 467 133 q 565 202 540 161 q 590 326 590 244 l 590 968 l 771 968 l 771 346 q 726 127 771 207 q 605 15 681 48 q 436 -18 528 -18 z "},"Ú":{"ha":863,"x_min":92,"x_max":771,"o":"m 436 -18 q 263 15 341 -18 q 138 127 185 48 q 92 346 92 207 l 92 968 l 272 968 l 272 326 q 299 203 272 244 q 363 148 326 162 q 433 133 401 133 q 504 147 467 133 q 565 202 540 161 q 590 326 590 244 l 590 968 l 771 968 l 771 346 q 726 127 771 207 q 605 15 681 48 q 436 -18 528 -18 m 351 1058 l 488 1313 l 658 1313 l 485 1058 l 351 1058 z "},"Ʉ":{"ha":878,"x_min":29,"x_max":849,"o":"m 444 -18 q 270 15 349 -18 q 146 127 192 48 q 99 346 99 207 l 99 456 l 29 456 l 29 582 l 99 582 l 99 968 l 280 968 l 280 582 l 598 582 l 598 968 l 778 968 l 778 582 l 849 582 l 849 456 l 778 456 l 778 346 q 733 127 778 207 q 612 15 688 48 q 444 -18 536 -18 m 280 326 q 307 203 280 244 q 371 148 333 162 q 441 133 408 133 q 511 147 475 133 q 573 202 548 161 q 598 326 598 244 l 598 456 l 280 456 l 280 326 z "},"Ŭ":{"ha":863,"x_min":92,"x_max":771,"o":"m 436 -18 q 263 15 341 -18 q 138 127 185 48 q 92 346 92 207 l 92 968 l 272 968 l 272 326 q 299 203 272 244 q 363 148 326 162 q 433 133 401 133 q 504 147 467 133 q 565 202 540 161 q 590 326 590 244 l 590 968 l 771 968 l 771 346 q 726 127 771 207 q 605 15 681 48 q 436 -18 528 -18 m 431 1058 q 263 1121 328 1058 q 197 1307 197 1184 l 324 1307 q 348 1217 326 1246 q 431 1189 369 1189 q 515 1219 495 1189 q 538 1307 535 1249 l 665 1307 q 599 1120 665 1182 q 431 1058 533 1058 z "},"Ǔ":{"ha":863,"x_min":92,"x_max":771,"o":"m 436 -18 q 263 15 341 -18 q 138 127 185 48 q 92 346 92 207 l 92 968 l 272 968 l 272 326 q 299 203 272 244 q 363 148 326 162 q 433 133 401 133 q 504 147 467 133 q 565 202 540 161 q 590 326 590 244 l 590 968 l 771 968 l 771 346 q 726 127 771 207 q 605 15 681 48 q 436 -18 528 -18 m 388 1058 l 169 1313 l 308 1313 l 431 1195 l 546 1313 l 686 1313 l 474 1058 l 388 1058 z "},"Û":{"ha":863,"x_min":92,"x_max":771,"o":"m 436 -18 q 263 15 341 -18 q 138 127 185 48 q 92 346 92 207 l 92 968 l 272 968 l 272 326 q 299 203 272 244 q 363 148 326 162 q 433 133 401 133 q 504 147 467 133 q 565 202 540 161 q 590 326 590 244 l 590 968 l 771 968 l 771 346 q 726 127 771 207 q 605 15 681 48 q 436 -18 528 -18 m 169 1058 l 388 1313 l 474 1313 l 686 1058 l 546 1058 l 431 1176 l 308 1058 l 169 1058 z "},"Ȕ":{"ha":863,"x_min":69,"x_max":771,"o":"m 436 -18 q 263 15 341 -18 q 138 127 185 48 q 92 346 92 207 l 92 968 l 272 968 l 272 326 q 299 203 272 244 q 363 148 326 162 q 433 133 401 133 q 504 147 467 133 q 565 202 540 161 q 590 326 590 244 l 590 968 l 771 968 l 771 346 q 726 127 771 207 q 605 15 681 48 q 436 -18 528 -18 m 249 1058 l 69 1313 l 222 1313 l 369 1058 l 249 1058 m 539 1058 l 363 1313 l 514 1313 l 660 1058 l 539 1058 z "},"Ü":{"ha":863,"x_min":92,"x_max":771,"o":"m 436 -18 q 263 15 341 -18 q 138 127 185 48 q 92 346 92 207 l 92 968 l 272 968 l 272 326 q 299 203 272 244 q 363 148 326 162 q 433 133 401 133 q 504 147 467 133 q 565 202 540 161 q 590 326 590 244 l 590 968 l 771 968 l 771 346 q 726 127 771 207 q 605 15 681 48 q 436 -18 528 -18 m 478 1058 l 478 1243 l 661 1243 l 661 1058 l 478 1058 m 200 1058 l 200 1243 l 383 1243 l 383 1058 l 200 1058 z "},"Ǘ":{"ha":863,"x_min":92,"x_max":771,"o":"m 436 -18 q 263 15 341 -18 q 138 127 185 48 q 92 346 92 207 l 92 968 l 272 968 l 272 326 q 299 203 272 244 q 363 148 326 162 q 433 133 401 133 q 504 147 467 133 q 565 202 540 161 q 590 326 590 244 l 590 968 l 771 968 l 771 346 q 726 127 771 207 q 605 15 681 48 q 436 -18 528 -18 m 478 1058 l 478 1243 l 661 1243 l 661 1058 l 478 1058 m 200 1058 l 200 1243 l 383 1243 l 383 1058 l 200 1058 m 351 1321 l 488 1575 l 658 1575 l 485 1321 l 351 1321 z "},"Ǚ":{"ha":863,"x_min":92,"x_max":771,"o":"m 436 -18 q 263 15 341 -18 q 138 127 185 48 q 92 346 92 207 l 92 968 l 272 968 l 272 326 q 299 203 272 244 q 363 148 326 162 q 433 133 401 133 q 504 147 467 133 q 565 202 540 161 q 590 326 590 244 l 590 968 l 771 968 l 771 346 q 726 127 771 207 q 605 15 681 48 q 436 -18 528 -18 m 478 1058 l 478 1243 l 661 1243 l 661 1058 l 478 1058 m 200 1058 l 200 1243 l 383 1243 l 383 1058 l 200 1058 m 388 1321 l 169 1575 l 308 1575 l 431 1458 l 546 1575 l 686 1575 l 474 1321 l 388 1321 z "},"Ǜ":{"ha":863,"x_min":92,"x_max":771,"o":"m 436 -18 q 263 15 341 -18 q 138 127 185 48 q 92 346 92 207 l 92 968 l 272 968 l 272 326 q 299 203 272 244 q 363 148 326 162 q 433 133 401 133 q 504 147 467 133 q 565 202 540 161 q 590 326 590 244 l 590 968 l 771 968 l 771 346 q 726 127 771 207 q 605 15 681 48 q 436 -18 528 -18 m 478 1058 l 478 1243 l 661 1243 l 661 1058 l 478 1058 m 200 1058 l 200 1243 l 383 1243 l 383 1058 l 200 1058 m 390 1321 l 217 1575 l 388 1575 l 524 1321 l 390 1321 z "},"Ǖ":{"ha":863,"x_min":92,"x_max":771,"o":"m 436 -18 q 263 15 341 -18 q 138 127 185 48 q 92 346 92 207 l 92 968 l 272 968 l 272 326 q 299 203 272 244 q 363 148 326 162 q 433 133 401 133 q 504 147 467 133 q 565 202 540 161 q 590 326 590 244 l 590 968 l 771 968 l 771 346 q 726 127 771 207 q 605 15 681 48 q 436 -18 528 -18 m 478 1058 l 478 1243 l 661 1243 l 661 1058 l 478 1058 m 200 1058 l 200 1243 l 383 1243 l 383 1058 l 200 1058 m 239 1354 l 239 1481 l 622 1481 l 622 1354 l 239 1354 z "},"Ụ":{"ha":863,"x_min":92,"x_max":771,"o":"m 436 -18 q 263 15 341 -18 q 138 127 185 48 q 92 346 92 207 l 92 968 l 272 968 l 272 326 q 299 203 272 244 q 363 148 326 162 q 433 133 401 133 q 504 147 467 133 q 565 202 540 161 q 590 326 590 244 l 590 968 l 771 968 l 771 346 q 726 127 771 207 q 605 15 681 48 q 436 -18 528 -18 m 339 -314 l 339 -128 l 528 -128 l 528 -314 l 339 -314 z "},"Ù":{"ha":863,"x_min":92,"x_max":771,"o":"m 436 -18 q 263 15 341 -18 q 138 127 185 48 q 92 346 92 207 l 92 968 l 272 968 l 272 326 q 299 203 272 244 q 363 148 326 162 q 433 133 401 133 q 504 147 467 133 q 565 202 540 161 q 590 326 590 244 l 590 968 l 771 968 l 771 346 q 726 127 771 207 q 605 15 681 48 q 436 -18 528 -18 m 390 1058 l 217 1313 l 388 1313 l 524 1058 l 390 1058 z "},"Ủ":{"ha":863,"x_min":92,"x_max":771,"o":"m 436 -18 q 263 15 341 -18 q 138 127 185 48 q 92 346 92 207 l 92 968 l 272 968 l 272 326 q 299 203 272 244 q 363 148 326 162 q 433 133 401 133 q 504 147 467 133 q 565 202 540 161 q 590 326 590 244 l 590 968 l 771 968 l 771 346 q 726 127 771 207 q 605 15 681 48 q 436 -18 528 -18 m 446 1058 q 402 1059 419 1058 q 363 1067 385 1060 l 339 1140 q 381 1136 358 1136 q 443 1150 413 1136 q 474 1203 474 1163 q 450 1245 474 1226 q 386 1264 427 1264 q 342 1256 365 1264 q 293 1235 320 1249 l 264 1321 q 327 1355 280 1335 q 425 1374 374 1374 q 508 1360 463 1374 q 585 1312 553 1347 q 617 1215 617 1278 q 597 1143 617 1179 q 539 1083 577 1107 q 446 1058 501 1058 z "},"Ư":{"ha":874,"x_min":92,"x_max":883,"o":"m 436 -18 q 263 15 341 -18 q 138 127 185 48 q 92 346 92 207 l 92 968 l 272 968 l 272 326 q 299 203 272 244 q 363 148 326 162 q 433 133 401 133 q 504 147 467 133 q 565 202 540 161 q 590 326 590 244 l 590 968 l 619 968 q 708 995 675 968 q 740 1081 740 1022 q 738 1126 740 1109 q 729 1160 735 1143 l 874 1160 q 881 1123 879 1143 q 883 1060 883 1103 q 849 953 883 997 q 771 891 815 910 l 771 346 q 726 127 771 207 q 605 15 681 48 q 436 -18 528 -18 z "},"Ứ":{"ha":874,"x_min":92,"x_max":883,"o":"m 436 -18 q 263 15 341 -18 q 138 127 185 48 q 92 346 92 207 l 92 968 l 272 968 l 272 326 q 299 203 272 244 q 363 148 326 162 q 433 133 401 133 q 504 147 467 133 q 565 202 540 161 q 590 326 590 244 l 590 968 l 619 968 q 708 995 675 968 q 740 1081 740 1022 q 738 1126 740 1109 q 729 1160 735 1143 l 874 1160 q 881 1123 879 1143 q 883 1060 883 1103 q 849 953 883 997 q 771 891 815 910 l 771 346 q 726 127 771 207 q 605 15 681 48 q 436 -18 528 -18 m 357 1058 l 493 1313 l 664 1313 l 490 1058 l 357 1058 z "},"Ự":{"ha":874,"x_min":92,"x_max":883,"o":"m 436 -18 q 263 15 341 -18 q 138 127 185 48 q 92 346 92 207 l 92 968 l 272 968 l 272 326 q 299 203 272 244 q 363 148 326 162 q 433 133 401 133 q 504 147 467 133 q 565 202 540 161 q 590 326 590 244 l 590 968 l 619 968 q 708 995 675 968 q 740 1081 740 1022 q 738 1126 740 1109 q 729 1160 735 1143 l 874 1160 q 881 1123 879 1143 q 883 1060 883 1103 q 849 953 883 997 q 771 891 815 910 l 771 346 q 726 127 771 207 q 605 15 681 48 q 436 -18 528 -18 m 344 -314 l 344 -128 l 533 -128 l 533 -314 l 344 -314 z "},"Ừ":{"ha":874,"x_min":92,"x_max":883,"o":"m 436 -18 q 263 15 341 -18 q 138 127 185 48 q 92 346 92 207 l 92 968 l 272 968 l 272 326 q 299 203 272 244 q 363 148 326 162 q 433 133 401 133 q 504 147 467 133 q 565 202 540 161 q 590 326 590 244 l 590 968 l 619 968 q 708 995 675 968 q 740 1081 740 1022 q 738 1126 740 1109 q 729 1160 735 1143 l 874 1160 q 881 1123 879 1143 q 883 1060 883 1103 q 849 953 883 997 q 771 891 815 910 l 771 346 q 726 127 771 207 q 605 15 681 48 q 436 -18 528 -18 m 396 1058 l 222 1313 l 393 1313 l 529 1058 l 396 1058 z "},"Ử":{"ha":874,"x_min":92,"x_max":883,"o":"m 436 -18 q 263 15 341 -18 q 138 127 185 48 q 92 346 92 207 l 92 968 l 272 968 l 272 326 q 299 203 272 244 q 363 148 326 162 q 433 133 401 133 q 504 147 467 133 q 565 202 540 161 q 590 326 590 244 l 590 968 l 619 968 q 708 995 675 968 q 740 1081 740 1022 q 738 1126 740 1109 q 729 1160 735 1143 l 874 1160 q 881 1123 879 1143 q 883 1060 883 1103 q 849 953 883 997 q 771 891 815 910 l 771 346 q 726 127 771 207 q 605 15 681 48 q 436 -18 528 -18 m 451 1058 q 407 1059 424 1058 q 368 1067 390 1060 l 344 1140 q 386 1136 363 1136 q 449 1150 419 1136 q 479 1203 479 1163 q 456 1245 479 1226 q 392 1264 433 1264 q 348 1256 370 1264 q 299 1235 326 1249 l 269 1321 q 333 1355 285 1335 q 431 1374 380 1374 q 514 1360 469 1374 q 590 1312 558 1347 q 622 1215 622 1278 q 602 1143 622 1179 q 544 1083 583 1107 q 451 1058 506 1058 z "},"Ữ":{"ha":874,"x_min":92,"x_max":883,"o":"m 436 -18 q 263 15 341 -18 q 138 127 185 48 q 92 346 92 207 l 92 968 l 272 968 l 272 326 q 299 203 272 244 q 363 148 326 162 q 433 133 401 133 q 504 147 467 133 q 565 202 540 161 q 590 326 590 244 l 590 968 l 619 968 q 708 995 675 968 q 740 1081 740 1022 q 738 1126 740 1109 q 729 1160 735 1143 l 874 1160 q 881 1123 879 1143 q 883 1060 883 1103 q 849 953 883 997 q 771 891 815 910 l 771 346 q 726 127 771 207 q 605 15 681 48 q 436 -18 528 -18 m 526 1063 q 458 1076 483 1063 q 415 1107 434 1090 q 384 1131 400 1122 q 346 1140 369 1140 q 302 1125 324 1140 q 265 1074 279 1109 l 193 1131 q 255 1221 215 1184 q 347 1258 295 1258 q 417 1244 393 1258 q 458 1214 442 1231 q 488 1192 472 1201 q 528 1183 503 1183 q 573 1201 552 1183 q 601 1256 594 1219 l 679 1196 q 654 1133 675 1163 q 600 1082 633 1102 q 526 1063 567 1063 z "},"Ű":{"ha":863,"x_min":92,"x_max":782,"o":"m 436 -18 q 263 15 341 -18 q 138 127 185 48 q 92 346 92 207 l 92 968 l 272 968 l 272 326 q 299 203 272 244 q 363 148 326 162 q 433 133 401 133 q 504 147 467 133 q 565 202 540 161 q 590 326 590 244 l 590 968 l 771 968 l 771 346 q 726 127 771 207 q 605 15 681 48 q 436 -18 528 -18 m 485 1058 l 632 1313 l 782 1313 l 606 1058 l 485 1058 m 194 1058 l 340 1313 l 492 1313 l 315 1058 l 194 1058 z "},"Ȗ":{"ha":863,"x_min":92,"x_max":771,"o":"m 436 -18 q 263 15 341 -18 q 138 127 185 48 q 92 346 92 207 l 92 968 l 272 968 l 272 326 q 299 203 272 244 q 363 148 326 162 q 433 133 401 133 q 504 147 467 133 q 565 202 540 161 q 590 326 590 244 l 590 968 l 771 968 l 771 346 q 726 127 771 207 q 605 15 681 48 q 436 -18 528 -18 m 197 1058 q 263 1244 197 1181 q 431 1307 328 1307 q 599 1245 533 1307 q 665 1058 665 1183 l 538 1058 q 515 1147 535 1117 q 431 1176 495 1176 q 348 1148 369 1176 q 324 1058 326 1120 l 197 1058 z "},"Ū":{"ha":863,"x_min":92,"x_max":771,"o":"m 436 -18 q 263 15 341 -18 q 138 127 185 48 q 92 346 92 207 l 92 968 l 272 968 l 272 326 q 299 203 272 244 q 363 148 326 162 q 433 133 401 133 q 504 147 467 133 q 565 202 540 161 q 590 326 590 244 l 590 968 l 771 968 l 771 346 q 726 127 771 207 q 605 15 681 48 q 436 -18 528 -18 m 239 1092 l 239 1218 l 622 1218 l 622 1092 l 239 1092 z "},"Ṻ":{"ha":863,"x_min":92,"x_max":771,"o":"m 436 -18 q 263 15 341 -18 q 138 127 185 48 q 92 346 92 207 l 92 968 l 272 968 l 272 326 q 299 203 272 244 q 363 148 326 162 q 433 133 401 133 q 504 147 467 133 q 565 202 540 161 q 590 326 590 244 l 590 968 l 771 968 l 771 346 q 726 127 771 207 q 605 15 681 48 q 436 -18 528 -18 m 239 1092 l 239 1218 l 622 1218 l 622 1092 l 239 1092 m 478 1306 l 478 1490 l 661 1490 l 661 1306 l 478 1306 m 200 1306 l 200 1490 l 383 1490 l 383 1306 l 200 1306 z "},"Ų":{"ha":863,"x_min":92,"x_max":771,"o":"m 590 326 l 590 968 l 771 968 l 771 346 q 715 111 771 192 q 572 1 660 31 l 575 0 q 466 -66 512 -28 q 421 -150 421 -105 q 444 -196 421 -185 q 499 -207 467 -207 q 535 -203 519 -207 q 575 -186 550 -199 l 575 -311 q 458 -333 531 -333 q 306 -292 360 -333 q 251 -178 251 -251 q 286 -88 251 -133 q 377 -15 320 -43 q 232 31 297 -6 q 129 145 167 69 q 92 346 92 222 l 92 968 l 272 968 l 272 326 q 299 203 272 244 q 363 148 326 162 q 433 133 401 133 q 504 147 467 133 q 565 202 540 161 q 590 326 590 244 z "},"Ʊ":{"ha":1088,"x_min":68,"x_max":1019,"o":"m 1019 968 l 1019 788 l 769 808 q 825 769 790 795 q 898 699 860 743 q 960 589 935 656 q 986 429 986 523 q 929 196 986 298 q 771 35 872 94 q 542 -24 671 -24 q 313 36 412 -24 q 157 198 213 95 q 101 429 101 300 q 127 589 101 523 q 190 699 153 656 q 263 769 227 743 q 318 808 299 795 l 68 788 l 68 968 l 471 968 l 471 817 q 384 718 426 770 q 313 602 341 667 q 285 450 285 537 q 297 344 285 399 q 338 240 309 288 q 417 163 367 192 q 543 133 467 133 q 670 161 619 133 q 749 237 720 190 q 791 340 778 284 q 803 450 803 396 q 775 602 803 537 q 704 718 747 667 q 617 817 661 770 l 617 968 l 1019 968 z "},"Ů":{"ha":863,"x_min":92,"x_max":771,"o":"m 436 -18 q 263 15 341 -18 q 138 127 185 48 q 92 346 92 207 l 92 968 l 272 968 l 272 326 q 299 203 272 244 q 363 148 326 162 q 433 133 401 133 q 504 147 467 133 q 565 202 540 161 q 590 326 590 244 l 590 968 l 771 968 l 771 346 q 726 127 771 207 q 605 15 681 48 q 436 -18 528 -18 m 431 988 q 336 1011 379 988 q 266 1075 292 1034 q 240 1169 240 1116 q 266 1265 240 1224 q 336 1328 292 1306 q 431 1351 379 1351 q 525 1328 482 1351 q 595 1264 569 1305 q 621 1169 621 1223 q 595 1075 621 1116 q 525 1011 569 1034 q 431 988 482 988 m 431 1076 q 493 1100 466 1076 q 519 1171 519 1123 q 493 1243 519 1222 q 431 1264 466 1264 q 368 1243 395 1264 q 342 1171 342 1222 q 368 1100 342 1123 q 431 1076 395 1076 z "},"Ũ":{"ha":863,"x_min":92,"x_max":771,"o":"m 436 -18 q 263 15 341 -18 q 138 127 185 48 q 92 346 92 207 l 92 968 l 272 968 l 272 326 q 299 203 272 244 q 363 148 326 162 q 433 133 401 133 q 504 147 467 133 q 565 202 540 161 q 590 326 590 244 l 590 968 l 771 968 l 771 346 q 726 127 771 207 q 605 15 681 48 q 436 -18 528 -18 m 521 1063 q 453 1076 477 1063 q 410 1107 428 1090 q 379 1131 394 1122 q 340 1140 363 1140 q 296 1125 319 1140 q 260 1074 274 1109 l 188 1131 q 250 1221 210 1184 q 342 1258 290 1258 q 412 1244 388 1258 q 453 1214 436 1231 q 482 1192 467 1201 q 522 1183 497 1183 q 568 1201 547 1183 q 596 1256 589 1219 l 674 1196 q 648 1133 669 1163 q 594 1082 627 1102 q 521 1063 561 1063 z "},"Ṹ":{"ha":863,"x_min":92,"x_max":771,"o":"m 436 -18 q 263 15 341 -18 q 138 127 185 48 q 92 346 92 207 l 92 968 l 272 968 l 272 326 q 299 203 272 244 q 363 148 326 162 q 433 133 401 133 q 504 147 467 133 q 565 202 540 161 q 590 326 590 244 l 590 968 l 771 968 l 771 346 q 726 127 771 207 q 605 15 681 48 q 436 -18 528 -18 m 521 1063 q 453 1076 477 1063 q 410 1107 428 1090 q 379 1131 394 1122 q 340 1140 363 1140 q 296 1125 319 1140 q 260 1074 274 1109 l 188 1131 q 250 1221 210 1184 q 342 1258 290 1258 q 412 1244 388 1258 q 453 1214 436 1231 q 482 1192 467 1201 q 522 1183 497 1183 q 568 1201 547 1183 q 596 1256 589 1219 l 674 1196 q 648 1133 669 1163 q 594 1082 627 1102 q 521 1063 561 1063 m 351 1321 l 488 1575 l 658 1575 l 485 1321 l 351 1321 z "},"V":{"ha":763,"x_min":-14,"x_max":776,"o":"m 371 -5 l -14 968 l 179 968 l 332 542 l 385 380 l 439 542 l 586 968 l 776 968 l 393 -5 l 371 -5 z "},"Ɣ":{"ha":772,"x_min":-14,"x_max":785,"o":"m 669 63 q 630 -73 669 -19 q 527 -154 591 -127 q 387 -181 463 -181 q 247 -154 311 -181 q 143 -73 182 -127 q 103 63 103 -19 q 132 203 103 142 q 201 313 160 263 q 277 412 241 363 l -14 968 l 190 968 l 334 656 l 386 549 l 438 656 l 584 968 l 785 968 l 487 415 q 566 317 524 367 q 639 206 608 267 q 669 63 669 144 m 283 63 q 290 22 283 48 q 320 -25 298 -4 q 387 -46 342 -46 q 453 -25 431 -46 q 482 22 475 -4 q 490 63 490 48 q 474 144 490 100 q 434 229 458 188 q 385 302 410 271 q 338 229 362 271 q 298 144 314 188 q 283 63 283 100 z "},"Ṿ":{"ha":763,"x_min":-14,"x_max":776,"o":"m 371 -5 l -14 968 l 179 968 l 332 542 l 385 380 l 439 542 l 586 968 l 776 968 l 393 -5 l 371 -5 m 287 -304 l 287 -118 l 476 -118 l 476 -304 l 287 -304 z "},"Ʋ":{"ha":876,"x_min":92,"x_max":785,"o":"m 443 -18 q 265 15 344 -18 q 139 127 185 48 q 92 346 92 207 l 92 968 l 272 968 l 272 326 q 299 203 272 244 q 365 148 326 162 q 440 133 404 133 q 513 147 474 133 q 577 202 551 161 q 604 326 604 244 l 605 772 q 588 827 605 810 q 531 844 571 844 q 486 830 508 844 q 451 793 463 815 l 384 942 q 442 984 400 961 q 560 1006 484 1006 q 672 987 621 1006 q 754 925 723 968 q 785 810 785 882 l 785 346 q 739 128 785 208 q 616 15 694 49 q 443 -18 539 -18 z "},"Ṽ":{"ha":763,"x_min":-14,"x_max":776,"o":"m 371 -5 l -14 968 l 179 968 l 332 542 l 385 380 l 439 542 l 586 968 l 776 968 l 393 -5 l 371 -5 m 471 1063 q 403 1076 427 1063 q 360 1107 378 1090 q 329 1131 344 1122 q 290 1140 313 1140 q 246 1125 269 1140 q 210 1074 224 1109 l 138 1131 q 200 1221 160 1184 q 292 1258 240 1258 q 362 1244 338 1258 q 403 1214 386 1231 q 432 1192 417 1201 q 472 1183 447 1183 q 518 1201 497 1183 q 546 1256 539 1219 l 624 1196 q 598 1133 619 1163 q 544 1082 577 1102 q 471 1063 511 1063 z "},"Ʌ":{"ha":763,"x_min":-14,"x_max":776,"o":"m 392 973 l 776 0 l 583 0 l 431 426 l 377 588 l 324 426 l 176 0 l -14 0 l 369 973 l 392 973 z "},"W":{"ha":1113,"x_min":-14,"x_max":1126,"o":"m 783 -2 l 556 553 l 333 -1 l 310 -1 l -14 968 l 178 968 l 347 406 l 549 968 l 572 968 l 777 408 l 936 968 l 1126 968 l 806 -2 l 783 -2 z "},"Ẃ":{"ha":1113,"x_min":-14,"x_max":1126,"o":"m 783 -2 l 556 553 l 333 -1 l 310 -1 l -14 968 l 178 968 l 347 406 l 549 968 l 572 968 l 777 408 l 936 968 l 1126 968 l 806 -2 l 783 -2 m 476 1058 l 613 1313 l 783 1313 l 610 1058 l 476 1058 z "},"Ŵ":{"ha":1113,"x_min":-14,"x_max":1126,"o":"m 783 -2 l 556 553 l 333 -1 l 310 -1 l -14 968 l 178 968 l 347 406 l 549 968 l 572 968 l 777 408 l 936 968 l 1126 968 l 806 -2 l 783 -2 m 294 1058 l 513 1313 l 599 1313 l 811 1058 l 671 1058 l 556 1176 l 433 1058 l 294 1058 z "},"Ẅ":{"ha":1113,"x_min":-14,"x_max":1126,"o":"m 783 -2 l 556 553 l 333 -1 l 310 -1 l -14 968 l 178 968 l 347 406 l 549 968 l 572 968 l 777 408 l 936 968 l 1126 968 l 806 -2 l 783 -2 m 603 1058 l 603 1243 l 786 1243 l 786 1058 l 603 1058 m 325 1058 l 325 1243 l 508 1243 l 508 1058 l 325 1058 z "},"Ẁ":{"ha":1113,"x_min":-14,"x_max":1126,"o":"m 783 -2 l 556 553 l 333 -1 l 310 -1 l -14 968 l 178 968 l 347 406 l 549 968 l 572 968 l 777 408 l 936 968 l 1126 968 l 806 -2 l 783 -2 m 515 1058 l 342 1313 l 513 1313 l 649 1058 l 515 1058 z "},"Ⱳ":{"ha":1308,"x_min":-14,"x_max":1315,"o":"m 1105 984 q 1215 967 1173 984 q 1281 926 1258 950 q 1315 878 1305 901 l 1238 736 q 1221 764 1235 747 q 1184 795 1206 781 q 1137 808 1163 808 q 1088 797 1107 808 q 1057 757 1068 785 l 806 -2 l 783 -2 l 556 553 l 333 -1 l 310 -1 l -14 968 l 178 968 l 347 406 l 549 968 l 572 968 l 777 408 l 879 767 q 959 930 910 875 q 1105 984 1008 984 z "},"X":{"ha":788,"x_min":14,"x_max":774,"o":"m 14 0 l 269 499 l 18 968 l 226 968 l 397 599 l 563 968 l 767 968 l 514 481 l 774 0 l 560 0 l 387 374 l 221 0 l 14 0 z "},"Ẍ":{"ha":788,"x_min":14,"x_max":774,"o":"m 14 0 l 269 499 l 18 968 l 226 968 l 397 599 l 563 968 l 767 968 l 514 481 l 774 0 l 560 0 l 387 374 l 221 0 l 14 0 m 440 1058 l 440 1243 l 624 1243 l 624 1058 l 440 1058 m 163 1058 l 163 1243 l 346 1243 l 346 1058 l 163 1058 z "},"Ẋ":{"ha":788,"x_min":14,"x_max":774,"o":"m 14 0 l 269 499 l 18 968 l 226 968 l 397 599 l 563 968 l 767 968 l 514 481 l 774 0 l 560 0 l 387 374 l 221 0 l 14 0 m 299 1058 l 299 1244 l 488 1244 l 488 1058 l 299 1058 z "},"Y":{"ha":747,"x_min":-21,"x_max":768,"o":"m 285 0 l 285 391 l -21 968 l 175 968 l 378 547 l 574 968 l 768 968 l 463 378 l 463 0 l 285 0 z "},"Ý":{"ha":747,"x_min":-21,"x_max":768,"o":"m 285 0 l 285 391 l -21 968 l 175 968 l 378 547 l 574 968 l 768 968 l 463 378 l 463 0 l 285 0 m 313 1058 l 449 1313 l 619 1313 l 446 1058 l 313 1058 z "},"Ŷ":{"ha":747,"x_min":-21,"x_max":768,"o":"m 285 0 l 285 391 l -21 968 l 175 968 l 378 547 l 574 968 l 768 968 l 463 378 l 463 0 l 285 0 m 131 1058 l 349 1313 l 435 1313 l 647 1058 l 507 1058 l 392 1176 l 269 1058 l 131 1058 z "},"Ÿ":{"ha":747,"x_min":-21,"x_max":768,"o":"m 285 0 l 285 391 l -21 968 l 175 968 l 378 547 l 574 968 l 768 968 l 463 378 l 463 0 l 285 0 m 439 1058 l 439 1243 l 622 1243 l 622 1058 l 439 1058 m 161 1058 l 161 1243 l 344 1243 l 344 1058 l 161 1058 z "},"Ẏ":{"ha":747,"x_min":-21,"x_max":768,"o":"m 285 0 l 285 391 l -21 968 l 175 968 l 378 547 l 574 968 l 768 968 l 463 378 l 463 0 l 285 0 m 297 1058 l 297 1244 l 486 1244 l 486 1058 l 297 1058 z "},"Ỵ":{"ha":747,"x_min":-21,"x_max":768,"o":"m 285 0 l 285 391 l -21 968 l 175 968 l 378 547 l 574 968 l 768 968 l 463 378 l 463 0 l 285 0 m 283 -314 l 283 -128 l 472 -128 l 472 -314 l 283 -314 z "},"Ỳ":{"ha":747,"x_min":-21,"x_max":768,"o":"m 285 0 l 285 391 l -21 968 l 175 968 l 378 547 l 574 968 l 768 968 l 463 378 l 463 0 l 285 0 m 351 1058 l 178 1313 l 349 1313 l 485 1058 l 351 1058 z "},"Ƴ":{"ha":943,"x_min":-21,"x_max":936,"o":"m 285 0 l 285 391 l -21 968 l 175 968 l 378 549 l 483 790 q 587 951 531 897 q 740 1006 643 1006 q 872 974 824 1006 q 936 907 920 942 l 858 772 q 842 800 856 783 q 805 830 827 817 q 758 844 783 844 q 705 832 728 844 q 661 779 682 821 l 463 384 l 463 0 l 285 0 z "},"Ỷ":{"ha":747,"x_min":-21,"x_max":768,"o":"m 285 0 l 285 391 l -21 968 l 175 968 l 378 547 l 574 968 l 768 968 l 463 378 l 463 0 l 285 0 m 407 1058 q 363 1059 380 1058 q 324 1067 346 1060 l 300 1140 q 342 1136 319 1136 q 405 1150 374 1136 q 435 1203 435 1163 q 411 1245 435 1226 q 347 1264 388 1264 q 303 1256 326 1264 q 254 1235 281 1249 l 225 1321 q 288 1355 241 1335 q 386 1374 335 1374 q 469 1360 424 1374 q 546 1312 514 1347 q 578 1215 578 1278 q 558 1143 578 1179 q 500 1083 538 1107 q 407 1058 462 1058 z "},"Ȳ":{"ha":747,"x_min":-21,"x_max":768,"o":"m 285 0 l 285 391 l -21 968 l 175 968 l 378 547 l 574 968 l 768 968 l 463 378 l 463 0 l 285 0 m 200 1092 l 200 1218 l 583 1218 l 583 1092 l 200 1092 z "},"Ỹ":{"ha":747,"x_min":-21,"x_max":768,"o":"m 285 0 l 285 391 l -21 968 l 175 968 l 378 547 l 574 968 l 768 968 l 463 378 l 463 0 l 285 0 m 482 1063 q 414 1076 438 1063 q 371 1107 390 1090 q 340 1131 356 1122 q 301 1140 324 1140 q 257 1125 280 1140 q 221 1074 235 1109 l 149 1131 q 211 1221 171 1184 q 303 1258 251 1258 q 373 1244 349 1258 q 414 1214 397 1231 q 443 1192 428 1201 q 483 1183 458 1183 q 529 1201 508 1183 q 557 1256 550 1219 l 635 1196 q 609 1133 631 1163 q 555 1082 588 1102 q 482 1063 522 1063 z "},"Z":{"ha":728,"x_min":42,"x_max":689,"o":"m 42 0 l 427 818 l 88 818 l 88 968 l 689 968 l 308 150 l 671 150 l 671 0 l 42 0 z "},"Ź":{"ha":728,"x_min":42,"x_max":689,"o":"m 42 0 l 427 818 l 88 818 l 88 968 l 689 968 l 308 150 l 671 150 l 671 0 l 42 0 m 310 1058 l 446 1313 l 617 1313 l 443 1058 l 310 1058 z "},"Ž":{"ha":728,"x_min":42,"x_max":689,"o":"m 42 0 l 427 818 l 88 818 l 88 968 l 689 968 l 308 150 l 671 150 l 671 0 l 42 0 m 346 1058 l 128 1313 l 267 1313 l 390 1195 l 504 1313 l 644 1313 l 432 1058 l 346 1058 z "},"Ż":{"ha":728,"x_min":42,"x_max":689,"o":"m 42 0 l 427 818 l 88 818 l 88 968 l 689 968 l 308 150 l 671 150 l 671 0 l 42 0 m 294 1058 l 294 1244 l 483 1244 l 483 1058 l 294 1058 z "},"Ẓ":{"ha":728,"x_min":42,"x_max":689,"o":"m 42 0 l 427 818 l 88 818 l 88 968 l 689 968 l 308 150 l 671 150 l 671 0 l 42 0 m 258 -304 l 258 -118 l 447 -118 l 447 -304 l 258 -304 z "},"Ẕ":{"ha":728,"x_min":42,"x_max":689,"o":"m 42 0 l 427 818 l 88 818 l 88 968 l 689 968 l 308 150 l 671 150 l 671 0 l 42 0 m 161 -254 l 161 -128 l 544 -128 l 544 -254 l 161 -254 z "},"Ƶ":{"ha":728,"x_min":42,"x_max":689,"o":"m 42 0 l 427 818 l 88 818 l 88 968 l 689 968 l 308 150 l 671 150 l 671 0 l 42 0 m 147 424 l 147 550 l 592 550 l 592 424 l 147 424 z "},"a":{"ha":690,"x_min":53,"x_max":607,"o":"m 242 -19 q 136 9 178 -19 q 73 85 94 38 q 53 189 53 132 q 69 259 53 221 q 127 332 85 297 q 244 389 169 367 q 439 411 320 411 l 439 443 q 414 528 439 494 q 315 563 390 563 q 209 544 261 563 q 133 499 158 526 l 78 632 q 189 684 119 660 q 344 708 259 708 q 504 677 447 708 q 584 589 561 646 q 607 454 607 531 l 607 0 l 458 0 l 446 99 q 242 -19 374 -19 m 315 114 q 382 139 347 114 q 439 204 418 165 l 439 303 q 424 304 432 304 q 406 304 416 304 q 325 295 367 304 q 254 265 283 287 q 225 206 225 244 q 247 135 225 156 q 315 114 269 114 z "},"á":{"ha":690,"x_min":53,"x_max":607,"o":"m 242 -19 q 136 9 178 -19 q 73 85 94 38 q 53 189 53 132 q 69 259 53 221 q 127 332 85 297 q 244 389 169 367 q 439 411 320 411 l 439 443 q 414 528 439 494 q 315 563 390 563 q 209 544 261 563 q 133 499 158 526 l 78 632 q 189 684 119 660 q 344 708 259 708 q 504 677 447 708 q 584 589 561 646 q 607 454 607 531 l 607 0 l 458 0 l 446 99 q 242 -19 374 -19 m 315 114 q 382 139 347 114 q 439 204 418 165 l 439 303 q 424 304 432 304 q 406 304 416 304 q 325 295 367 304 q 254 265 283 287 q 225 206 225 244 q 247 135 225 156 q 315 114 269 114 m 271 804 l 407 1085 l 596 1085 l 422 804 l 271 804 z "},"ă":{"ha":690,"x_min":53,"x_max":607,"o":"m 242 -19 q 136 9 178 -19 q 73 85 94 38 q 53 189 53 132 q 69 259 53 221 q 127 332 85 297 q 244 389 169 367 q 439 411 320 411 l 439 443 q 414 528 439 494 q 315 563 390 563 q 209 544 261 563 q 133 499 158 526 l 78 632 q 189 684 119 660 q 344 708 259 708 q 504 677 447 708 q 584 589 561 646 q 607 454 607 531 l 607 0 l 458 0 l 446 99 q 242 -19 374 -19 m 315 114 q 382 139 347 114 q 439 204 418 165 l 439 303 q 424 304 432 304 q 406 304 416 304 q 325 295 367 304 q 254 265 283 287 q 225 206 225 244 q 247 135 225 156 q 315 114 269 114 m 343 810 q 175 873 240 810 q 110 1058 110 935 l 236 1058 q 260 965 238 997 q 343 933 282 933 q 427 967 407 933 q 449 1058 447 1001 l 576 1058 q 511 872 576 933 q 343 810 445 810 z "},"ắ":{"ha":690,"x_min":53,"x_max":607,"o":"m 242 -19 q 136 9 178 -19 q 73 85 94 38 q 53 189 53 132 q 69 259 53 221 q 127 332 85 297 q 244 389 169 367 q 439 411 320 411 l 439 443 q 414 528 439 494 q 315 563 390 563 q 209 544 261 563 q 133 499 158 526 l 78 632 q 189 684 119 660 q 344 708 259 708 q 504 677 447 708 q 584 589 561 646 q 607 454 607 531 l 607 0 l 458 0 l 446 99 q 242 -19 374 -19 m 315 114 q 382 139 347 114 q 439 204 418 165 l 439 303 q 424 304 432 304 q 406 304 416 304 q 325 295 367 304 q 254 265 283 287 q 225 206 225 244 q 247 135 225 156 q 315 114 269 114 m 258 1075 l 369 1281 l 528 1281 l 381 1075 l 258 1075 m 343 797 q 188 854 247 797 q 129 1026 129 911 l 239 1026 q 263 940 241 968 q 343 913 285 913 q 423 942 403 913 q 446 1026 444 972 l 557 1026 q 498 853 557 909 q 343 797 439 797 z "},"ặ":{"ha":690,"x_min":53,"x_max":607,"o":"m 242 -19 q 136 9 178 -19 q 73 85 94 38 q 53 189 53 132 q 69 259 53 221 q 127 332 85 297 q 244 389 169 367 q 439 411 320 411 l 439 443 q 414 528 439 494 q 315 563 390 563 q 209 544 261 563 q 133 499 158 526 l 78 632 q 189 684 119 660 q 344 708 259 708 q 504 677 447 708 q 584 589 561 646 q 607 454 607 531 l 607 0 l 458 0 l 446 99 q 242 -19 374 -19 m 315 114 q 382 139 347 114 q 439 204 418 165 l 439 303 q 424 304 432 304 q 406 304 416 304 q 325 295 367 304 q 254 265 283 287 q 225 206 225 244 q 247 135 225 156 q 315 114 269 114 m 214 -314 l 214 -128 l 403 -128 l 403 -314 l 214 -314 m 343 810 q 175 873 240 810 q 110 1058 110 935 l 236 1058 q 260 965 238 997 q 343 933 282 933 q 427 967 407 933 q 449 1058 447 1001 l 576 1058 q 511 872 576 933 q 343 810 445 810 z "},"ằ":{"ha":690,"x_min":53,"x_max":607,"o":"m 242 -19 q 136 9 178 -19 q 73 85 94 38 q 53 189 53 132 q 69 259 53 221 q 127 332 85 297 q 244 389 169 367 q 439 411 320 411 l 439 443 q 414 528 439 494 q 315 563 390 563 q 209 544 261 563 q 133 499 158 526 l 78 632 q 189 684 119 660 q 344 708 259 708 q 504 677 447 708 q 584 589 561 646 q 607 454 607 531 l 607 0 l 458 0 l 446 99 q 242 -19 374 -19 m 315 114 q 382 139 347 114 q 439 204 418 165 l 439 303 q 424 304 432 304 q 406 304 416 304 q 325 295 367 304 q 254 265 283 287 q 225 206 225 244 q 247 135 225 156 q 315 114 269 114 m 297 1096 l 151 1301 l 310 1301 l 421 1096 l 297 1096 m 343 818 q 188 875 247 818 q 129 1047 129 932 l 239 1047 q 263 961 241 989 q 343 933 285 933 q 423 963 403 933 q 446 1047 444 993 l 557 1047 q 498 874 557 930 q 343 818 439 818 z "},"ẳ":{"ha":690,"x_min":53,"x_max":607,"o":"m 242 -19 q 136 9 178 -19 q 73 85 94 38 q 53 189 53 132 q 69 259 53 221 q 127 332 85 297 q 244 389 169 367 q 439 411 320 411 l 439 443 q 414 528 439 494 q 315 563 390 563 q 209 544 261 563 q 133 499 158 526 l 78 632 q 189 684 119 660 q 344 708 259 708 q 504 677 447 708 q 584 589 561 646 q 607 454 607 531 l 607 0 l 458 0 l 446 99 q 242 -19 374 -19 m 315 114 q 382 139 347 114 q 439 204 418 165 l 439 303 q 424 304 432 304 q 406 304 416 304 q 325 295 367 304 q 254 265 283 287 q 225 206 225 244 q 247 135 225 156 q 315 114 269 114 m 357 1088 l 322 1088 q 305 1088 313 1088 q 286 1092 296 1089 l 265 1157 q 283 1155 274 1156 q 301 1154 292 1154 q 355 1165 330 1154 q 381 1210 381 1176 q 360 1245 381 1230 q 306 1261 340 1261 q 226 1236 272 1261 l 201 1311 q 256 1339 216 1323 q 339 1356 297 1356 q 410 1344 372 1356 q 475 1303 448 1332 q 503 1221 503 1274 q 486 1159 503 1190 q 436 1108 469 1128 q 357 1088 403 1088 m 343 818 q 188 875 247 818 q 129 1047 129 932 l 239 1047 q 263 961 241 989 q 343 933 285 933 q 423 963 403 933 q 446 1047 444 993 l 557 1047 q 498 874 557 930 q 343 818 439 818 z "},"ẵ":{"ha":690,"x_min":53,"x_max":607,"o":"m 242 -19 q 136 9 178 -19 q 73 85 94 38 q 53 189 53 132 q 69 259 53 221 q 127 332 85 297 q 244 389 169 367 q 439 411 320 411 l 439 443 q 414 528 439 494 q 315 563 390 563 q 209 544 261 563 q 133 499 158 526 l 78 632 q 189 684 119 660 q 344 708 259 708 q 504 677 447 708 q 584 589 561 646 q 607 454 607 531 l 607 0 l 458 0 l 446 99 q 242 -19 374 -19 m 315 114 q 382 139 347 114 q 439 204 418 165 l 439 303 q 424 304 432 304 q 406 304 416 304 q 325 295 367 304 q 254 265 283 287 q 225 206 225 244 q 247 135 225 156 q 315 114 269 114 m 442 1125 q 380 1138 408 1125 q 331 1167 353 1151 q 294 1190 307 1185 q 272 1194 282 1194 q 231 1184 251 1194 q 203 1138 210 1174 l 133 1185 q 166 1264 133 1231 q 254 1297 199 1297 q 316 1285 290 1297 q 361 1258 342 1273 q 395 1238 379 1246 q 428 1231 411 1231 q 467 1237 452 1231 q 483 1283 483 1244 l 553 1235 q 524 1158 553 1191 q 442 1125 495 1125 m 343 818 q 188 875 247 818 q 129 1047 129 932 l 239 1047 q 263 961 241 989 q 343 933 285 933 q 423 963 403 933 q 446 1047 444 993 l 557 1047 q 498 874 557 930 q 343 818 439 818 z "},"ǎ":{"ha":690,"x_min":53,"x_max":607,"o":"m 242 -19 q 136 9 178 -19 q 73 85 94 38 q 53 189 53 132 q 69 259 53 221 q 127 332 85 297 q 244 389 169 367 q 439 411 320 411 l 439 443 q 414 528 439 494 q 315 563 390 563 q 209 544 261 563 q 133 499 158 526 l 78 632 q 189 684 119 660 q 344 708 259 708 q 504 677 447 708 q 584 589 561 646 q 607 454 607 531 l 607 0 l 458 0 l 446 99 q 242 -19 374 -19 m 315 114 q 382 139 347 114 q 439 204 418 165 l 439 303 q 424 304 432 304 q 406 304 416 304 q 325 295 367 304 q 254 265 283 287 q 225 206 225 244 q 247 135 225 156 q 315 114 269 114 m 300 804 l 101 1085 l 240 1085 l 344 951 l 444 1085 l 585 1085 l 386 804 l 300 804 z "},"â":{"ha":690,"x_min":53,"x_max":607,"o":"m 242 -19 q 136 9 178 -19 q 73 85 94 38 q 53 189 53 132 q 69 259 53 221 q 127 332 85 297 q 244 389 169 367 q 439 411 320 411 l 439 443 q 414 528 439 494 q 315 563 390 563 q 209 544 261 563 q 133 499 158 526 l 78 632 q 189 684 119 660 q 344 708 259 708 q 504 677 447 708 q 584 589 561 646 q 607 454 607 531 l 607 0 l 458 0 l 446 99 q 242 -19 374 -19 m 315 114 q 382 139 347 114 q 439 204 418 165 l 439 303 q 424 304 432 304 q 406 304 416 304 q 325 295 367 304 q 254 265 283 287 q 225 206 225 244 q 247 135 225 156 q 315 114 269 114 m 101 804 l 300 1085 l 386 1085 l 585 804 l 444 804 l 344 938 l 240 804 l 101 804 z "},"ấ":{"ha":690,"x_min":53,"x_max":740,"o":"m 242 -19 q 136 9 178 -19 q 73 85 94 38 q 53 189 53 132 q 69 259 53 221 q 127 332 85 297 q 244 389 169 367 q 439 411 320 411 l 439 443 q 414 528 439 494 q 315 563 390 563 q 209 544 261 563 q 133 499 158 526 l 78 632 q 189 684 119 660 q 344 708 259 708 q 504 677 447 708 q 584 589 561 646 q 607 454 607 531 l 607 0 l 458 0 l 446 99 q 242 -19 374 -19 m 315 114 q 382 139 347 114 q 439 204 418 165 l 439 303 q 424 304 432 304 q 406 304 416 304 q 325 295 367 304 q 254 265 283 287 q 225 206 225 244 q 247 135 225 156 q 315 114 269 114 m 471 1065 l 582 1272 l 740 1272 l 594 1065 l 471 1065 m 115 804 l 303 1068 l 383 1068 l 571 804 l 439 804 l 343 904 l 246 804 l 115 804 z "},"ậ":{"ha":690,"x_min":53,"x_max":607,"o":"m 242 -19 q 136 9 178 -19 q 73 85 94 38 q 53 189 53 132 q 69 259 53 221 q 127 332 85 297 q 244 389 169 367 q 439 411 320 411 l 439 443 q 414 528 439 494 q 315 563 390 563 q 209 544 261 563 q 133 499 158 526 l 78 632 q 189 684 119 660 q 344 708 259 708 q 504 677 447 708 q 584 589 561 646 q 607 454 607 531 l 607 0 l 458 0 l 446 99 q 242 -19 374 -19 m 315 114 q 382 139 347 114 q 439 204 418 165 l 439 303 q 424 304 432 304 q 406 304 416 304 q 325 295 367 304 q 254 265 283 287 q 225 206 225 244 q 247 135 225 156 q 315 114 269 114 m 214 -314 l 214 -128 l 403 -128 l 403 -314 l 214 -314 m 101 804 l 300 1085 l 386 1085 l 585 804 l 444 804 l 344 938 l 240 804 l 101 804 z "},"ầ":{"ha":690,"x_min":53,"x_max":635,"o":"m 242 -19 q 136 9 178 -19 q 73 85 94 38 q 53 189 53 132 q 69 259 53 221 q 127 332 85 297 q 244 389 169 367 q 439 411 320 411 l 439 443 q 414 528 439 494 q 315 563 390 563 q 209 544 261 563 q 133 499 158 526 l 78 632 q 189 684 119 660 q 344 708 259 708 q 504 677 447 708 q 584 589 561 646 q 607 454 607 531 l 607 0 l 458 0 l 446 99 q 242 -19 374 -19 m 315 114 q 382 139 347 114 q 439 204 418 165 l 439 303 q 424 304 432 304 q 406 304 416 304 q 325 295 367 304 q 254 265 283 287 q 225 206 225 244 q 247 135 225 156 q 315 114 269 114 m 513 1065 l 365 1272 l 524 1272 l 635 1065 l 513 1065 m 115 804 l 303 1068 l 383 1068 l 571 804 l 439 804 l 343 904 l 246 804 l 115 804 z "},"ẩ":{"ha":690,"x_min":53,"x_max":607,"o":"m 242 -19 q 136 9 178 -19 q 73 85 94 38 q 53 189 53 132 q 69 259 53 221 q 127 332 85 297 q 244 389 169 367 q 439 411 320 411 l 439 443 q 414 528 439 494 q 315 563 390 563 q 209 544 261 563 q 133 499 158 526 l 78 632 q 189 684 119 660 q 344 708 259 708 q 504 677 447 708 q 584 589 561 646 q 607 454 607 531 l 607 0 l 458 0 l 446 99 q 242 -19 374 -19 m 315 114 q 382 139 347 114 q 439 204 418 165 l 439 303 q 424 304 432 304 q 406 304 416 304 q 325 295 367 304 q 254 265 283 287 q 225 206 225 244 q 247 135 225 156 q 315 114 269 114 m 358 1110 l 324 1110 q 306 1110 315 1110 q 288 1114 297 1111 l 267 1179 q 284 1177 275 1178 q 301 1176 292 1176 q 356 1188 331 1176 q 382 1232 382 1199 q 361 1268 382 1253 q 306 1283 341 1283 q 269 1277 288 1283 q 228 1260 251 1272 l 203 1333 q 258 1361 217 1345 q 340 1378 298 1378 q 411 1366 373 1378 q 477 1325 449 1354 q 504 1243 504 1296 q 487 1182 504 1213 q 438 1130 470 1151 q 358 1110 405 1110 m 115 804 l 303 1068 l 383 1068 l 571 804 l 439 804 l 343 904 l 246 804 l 115 804 z "},"ẫ":{"ha":690,"x_min":53,"x_max":607,"o":"m 242 -19 q 136 9 178 -19 q 73 85 94 38 q 53 189 53 132 q 69 259 53 221 q 127 332 85 297 q 244 389 169 367 q 439 411 320 411 l 439 443 q 414 528 439 494 q 315 563 390 563 q 209 544 261 563 q 133 499 158 526 l 78 632 q 189 684 119 660 q 344 708 259 708 q 504 677 447 708 q 584 589 561 646 q 607 454 607 531 l 607 0 l 458 0 l 446 99 q 242 -19 374 -19 m 315 114 q 382 139 347 114 q 439 204 418 165 l 439 303 q 424 304 432 304 q 406 304 416 304 q 325 295 367 304 q 254 265 283 287 q 225 206 225 244 q 247 135 225 156 q 315 114 269 114 m 442 1104 q 380 1117 408 1104 q 331 1146 353 1131 q 294 1169 307 1164 q 272 1174 282 1174 q 231 1164 251 1174 q 203 1117 210 1153 l 133 1164 q 166 1243 133 1210 q 254 1276 199 1276 q 316 1264 290 1276 q 361 1238 342 1252 q 395 1217 379 1225 q 428 1210 411 1210 q 467 1216 452 1210 q 483 1263 483 1223 l 553 1214 q 524 1137 553 1170 q 442 1104 495 1104 m 115 804 l 303 1068 l 383 1068 l 571 804 l 439 804 l 343 904 l 246 804 l 115 804 z "},"ȁ":{"ha":690,"x_min":-8,"x_max":607,"o":"m 242 -19 q 136 9 178 -19 q 73 85 94 38 q 53 189 53 132 q 69 259 53 221 q 127 332 85 297 q 244 389 169 367 q 439 411 320 411 l 439 443 q 414 528 439 494 q 315 563 390 563 q 209 544 261 563 q 133 499 158 526 l 78 632 q 189 684 119 660 q 344 708 259 708 q 504 677 447 708 q 584 589 561 646 q 607 454 607 531 l 607 0 l 458 0 l 446 99 q 242 -19 374 -19 m 315 114 q 382 139 347 114 q 439 204 418 165 l 439 303 q 424 304 432 304 q 406 304 416 304 q 325 295 367 304 q 254 265 283 287 q 225 206 225 244 q 247 135 225 156 q 315 114 269 114 m 440 804 l 282 1085 l 433 1085 l 561 804 l 440 804 m 150 804 l -8 1085 l 142 1085 l 271 804 l 150 804 z "},"ä":{"ha":690,"x_min":53,"x_max":607,"o":"m 242 -19 q 136 9 178 -19 q 73 85 94 38 q 53 189 53 132 q 69 259 53 221 q 127 332 85 297 q 244 389 169 367 q 439 411 320 411 l 439 443 q 414 528 439 494 q 315 563 390 563 q 209 544 261 563 q 133 499 158 526 l 78 632 q 189 684 119 660 q 344 708 259 708 q 504 677 447 708 q 584 589 561 646 q 607 454 607 531 l 607 0 l 458 0 l 446 99 q 242 -19 374 -19 m 315 114 q 382 139 347 114 q 439 204 418 165 l 439 303 q 424 304 432 304 q 406 304 416 304 q 325 295 367 304 q 254 265 283 287 q 225 206 225 244 q 247 135 225 156 q 315 114 269 114 m 390 836 l 390 1021 l 574 1021 l 574 836 l 390 836 m 113 836 l 113 1021 l 296 1021 l 296 836 l 113 836 z "},"ǟ":{"ha":690,"x_min":53,"x_max":607,"o":"m 242 -19 q 136 9 178 -19 q 73 85 94 38 q 53 189 53 132 q 69 259 53 221 q 127 332 85 297 q 244 389 169 367 q 439 411 320 411 l 439 443 q 414 528 439 494 q 315 563 390 563 q 209 544 261 563 q 133 499 158 526 l 78 632 q 189 684 119 660 q 344 708 259 708 q 504 677 447 708 q 584 589 561 646 q 607 454 607 531 l 607 0 l 458 0 l 446 99 q 242 -19 374 -19 m 315 114 q 382 139 347 114 q 439 204 418 165 l 439 303 q 424 304 432 304 q 406 304 416 304 q 325 295 367 304 q 254 265 283 287 q 225 206 225 244 q 247 135 225 156 q 315 114 269 114 m 390 836 l 390 1021 l 574 1021 l 574 836 l 390 836 m 113 836 l 113 1021 l 296 1021 l 296 836 l 113 836 m 121 1138 l 121 1264 l 565 1264 l 565 1138 l 121 1138 z "},"ạ":{"ha":690,"x_min":53,"x_max":607,"o":"m 242 -19 q 136 9 178 -19 q 73 85 94 38 q 53 189 53 132 q 69 259 53 221 q 127 332 85 297 q 244 389 169 367 q 439 411 320 411 l 439 443 q 414 528 439 494 q 315 563 390 563 q 209 544 261 563 q 133 499 158 526 l 78 632 q 189 684 119 660 q 344 708 259 708 q 504 677 447 708 q 584 589 561 646 q 607 454 607 531 l 607 0 l 458 0 l 446 99 q 242 -19 374 -19 m 315 114 q 382 139 347 114 q 439 204 418 165 l 439 303 q 424 304 432 304 q 406 304 416 304 q 325 295 367 304 q 254 265 283 287 q 225 206 225 244 q 247 135 225 156 q 315 114 269 114 m 214 -314 l 214 -128 l 403 -128 l 403 -314 l 214 -314 z "},"à":{"ha":690,"x_min":53,"x_max":607,"o":"m 242 -19 q 136 9 178 -19 q 73 85 94 38 q 53 189 53 132 q 69 259 53 221 q 127 332 85 297 q 244 389 169 367 q 439 411 320 411 l 439 443 q 414 528 439 494 q 315 563 390 563 q 209 544 261 563 q 133 499 158 526 l 78 632 q 189 684 119 660 q 344 708 259 708 q 504 677 447 708 q 584 589 561 646 q 607 454 607 531 l 607 0 l 458 0 l 446 99 q 242 -19 374 -19 m 315 114 q 382 139 347 114 q 439 204 418 165 l 439 303 q 424 304 432 304 q 406 304 416 304 q 325 295 367 304 q 254 265 283 287 q 225 206 225 244 q 247 135 225 156 q 315 114 269 114 m 264 804 l 90 1085 l 279 1085 l 415 804 l 264 804 z "},"ả":{"ha":690,"x_min":53,"x_max":607,"o":"m 242 -19 q 136 9 178 -19 q 73 85 94 38 q 53 189 53 132 q 69 259 53 221 q 127 332 85 297 q 244 389 169 367 q 439 411 320 411 l 439 443 q 414 528 439 494 q 315 563 390 563 q 209 544 261 563 q 133 499 158 526 l 78 632 q 189 684 119 660 q 344 708 259 708 q 504 677 447 708 q 584 589 561 646 q 607 454 607 531 l 607 0 l 458 0 l 446 99 q 242 -19 374 -19 m 315 114 q 382 139 347 114 q 439 204 418 165 l 439 303 q 424 304 432 304 q 406 304 416 304 q 325 295 367 304 q 254 265 283 287 q 225 206 225 244 q 247 135 225 156 q 315 114 269 114 m 358 799 q 314 802 331 799 q 274 811 296 805 l 251 881 q 293 876 270 876 q 356 890 326 876 q 386 943 386 903 q 363 985 386 966 q 299 1004 340 1004 q 255 997 277 1004 q 206 975 233 989 l 176 1061 q 240 1095 192 1076 q 338 1114 287 1114 q 420 1100 376 1114 q 497 1052 465 1087 q 529 956 529 1018 q 509 883 529 919 q 451 823 490 847 q 358 799 413 799 z "},"ȃ":{"ha":690,"x_min":53,"x_max":607,"o":"m 242 -19 q 136 9 178 -19 q 73 85 94 38 q 53 189 53 132 q 69 259 53 221 q 127 332 85 297 q 244 389 169 367 q 439 411 320 411 l 439 443 q 414 528 439 494 q 315 563 390 563 q 209 544 261 563 q 133 499 158 526 l 78 632 q 189 684 119 660 q 344 708 259 708 q 504 677 447 708 q 584 589 561 646 q 607 454 607 531 l 607 0 l 458 0 l 446 99 q 242 -19 374 -19 m 315 114 q 382 139 347 114 q 439 204 418 165 l 439 303 q 424 304 432 304 q 406 304 416 304 q 325 295 367 304 q 254 265 283 287 q 225 206 225 244 q 247 135 225 156 q 315 114 269 114 m 110 804 q 175 990 110 927 q 343 1053 240 1053 q 511 991 445 1053 q 576 804 576 929 l 449 804 q 427 899 447 862 q 343 936 407 936 q 260 901 282 936 q 236 804 238 866 l 110 804 z "},"ɑ":{"ha":775,"x_min":60,"x_max":672,"o":"m 331 -19 q 185 26 246 -19 q 92 153 124 71 q 60 344 60 235 q 89 533 60 451 q 178 662 119 615 q 328 708 238 708 q 448 673 400 708 q 511 572 497 638 l 511 692 l 672 692 l 672 0 l 511 0 l 511 142 q 445 22 490 64 q 331 -19 399 -19 m 371 118 q 460 170 421 118 q 500 342 500 223 q 469 509 500 450 q 375 568 439 568 q 312 548 342 568 q 261 479 281 528 q 242 344 242 430 q 278 174 242 230 q 371 118 314 118 z "},"ā":{"ha":690,"x_min":53,"x_max":607,"o":"m 242 -19 q 136 9 178 -19 q 73 85 94 38 q 53 189 53 132 q 69 259 53 221 q 127 332 85 297 q 244 389 169 367 q 439 411 320 411 l 439 443 q 414 528 439 494 q 315 563 390 563 q 209 544 261 563 q 133 499 158 526 l 78 632 q 189 684 119 660 q 344 708 259 708 q 504 677 447 708 q 584 589 561 646 q 607 454 607 531 l 607 0 l 458 0 l 446 99 q 242 -19 374 -19 m 315 114 q 382 139 347 114 q 439 204 418 165 l 439 303 q 424 304 432 304 q 406 304 416 304 q 325 295 367 304 q 254 265 283 287 q 225 206 225 244 q 247 135 225 156 q 315 114 269 114 m 121 819 l 121 946 l 565 946 l 565 819 l 121 819 z "},"ą":{"ha":690,"x_min":53,"x_max":607,"o":"m 242 -19 q 136 9 178 -19 q 73 85 94 38 q 53 189 53 132 q 69 259 53 221 q 127 332 85 297 q 244 389 169 367 q 439 411 320 411 l 439 443 q 414 528 439 494 q 315 563 390 563 q 209 544 261 563 q 133 499 158 526 l 78 632 q 189 684 119 660 q 344 708 259 708 q 504 677 447 708 q 584 589 561 646 q 607 454 607 531 l 607 0 q 498 -66 544 -28 q 453 -150 453 -105 q 476 -196 453 -185 q 531 -207 499 -207 q 567 -203 551 -207 q 607 -186 582 -199 l 607 -311 q 490 -333 563 -333 q 338 -292 392 -333 q 283 -178 283 -251 q 307 -109 283 -144 q 370 -45 331 -74 q 458 0 410 -16 l 446 99 q 242 -19 374 -19 m 315 114 q 382 139 347 114 q 439 204 418 165 l 439 303 q 424 304 432 304 q 406 304 416 304 q 325 295 367 304 q 254 265 283 287 q 225 206 225 244 q 247 135 225 156 q 315 114 269 114 z "},"å":{"ha":690,"x_min":53,"x_max":607,"o":"m 242 -19 q 136 9 178 -19 q 73 85 94 38 q 53 189 53 132 q 69 259 53 221 q 127 332 85 297 q 244 389 169 367 q 439 411 320 411 l 439 443 q 414 528 439 494 q 315 563 390 563 q 209 544 261 563 q 133 499 158 526 l 78 632 q 189 684 119 660 q 344 708 259 708 q 504 677 447 708 q 584 589 561 646 q 607 454 607 531 l 607 0 l 458 0 l 446 99 q 242 -19 374 -19 m 315 114 q 382 139 347 114 q 439 204 418 165 l 439 303 q 424 304 432 304 q 406 304 416 304 q 325 295 367 304 q 254 265 283 287 q 225 206 225 244 q 247 135 225 156 q 315 114 269 114 m 343 811 q 243 836 289 811 q 169 905 197 861 q 142 1004 142 948 q 169 1105 142 1062 q 243 1173 197 1149 q 343 1197 289 1197 q 443 1173 397 1197 q 518 1105 490 1148 q 546 1004 546 1061 q 518 905 546 948 q 443 836 490 861 q 343 811 397 811 m 343 906 q 409 930 381 906 q 438 1006 438 955 q 409 1082 438 1060 q 343 1104 381 1104 q 278 1082 306 1104 q 250 1006 250 1060 q 278 930 250 955 q 343 906 306 906 z "},"ǻ":{"ha":681,"x_min":53,"x_max":607,"o":"m 336 811 q 236 836 282 811 q 163 905 190 861 q 135 1004 135 948 q 185 1135 135 1083 q 308 1195 236 1186 l 379 1357 l 542 1357 l 430 1176 q 508 1108 478 1153 q 539 1004 539 1063 q 511 905 539 948 q 436 836 483 861 q 336 811 390 811 m 336 906 q 402 930 374 906 q 431 1006 431 955 q 402 1082 431 1060 q 336 1104 374 1104 q 271 1082 299 1104 q 243 1006 243 1060 q 271 930 243 955 q 336 906 299 906 m 242 -19 q 136 9 178 -19 q 73 85 94 38 q 53 189 53 132 q 69 259 53 221 q 127 332 85 297 q 244 389 169 367 q 439 411 320 411 l 439 443 q 414 528 439 494 q 315 563 390 563 q 209 544 261 563 q 133 499 158 526 l 78 632 q 189 684 119 660 q 344 708 259 708 q 504 677 447 708 q 584 589 561 646 q 607 454 607 531 l 607 0 l 458 0 l 446 99 q 242 -19 374 -19 m 315 114 q 382 139 347 114 q 439 204 418 165 l 439 303 q 424 304 432 304 q 406 304 416 304 q 325 295 367 304 q 254 265 283 287 q 225 206 225 244 q 247 135 225 156 q 315 114 269 114 z "},"ã":{"ha":690,"x_min":53,"x_max":607,"o":"m 242 -19 q 136 9 178 -19 q 73 85 94 38 q 53 189 53 132 q 69 259 53 221 q 127 332 85 297 q 244 389 169 367 q 439 411 320 411 l 439 443 q 414 528 439 494 q 315 563 390 563 q 209 544 261 563 q 133 499 158 526 l 78 632 q 189 684 119 660 q 344 708 259 708 q 504 677 447 708 q 584 589 561 646 q 607 454 607 531 l 607 0 l 458 0 l 446 99 q 242 -19 374 -19 m 315 114 q 382 139 347 114 q 439 204 418 165 l 439 303 q 424 304 432 304 q 406 304 416 304 q 325 295 367 304 q 254 265 283 287 q 225 206 225 244 q 247 135 225 156 q 315 114 269 114 m 436 790 q 364 805 390 790 q 319 836 338 819 q 289 860 305 850 q 247 871 272 871 q 203 855 224 871 q 167 801 181 839 l 89 861 q 153 956 113 917 q 250 994 193 994 q 324 981 299 994 q 365 950 349 967 q 395 926 380 935 q 439 917 411 917 q 485 935 464 917 q 513 992 506 953 l 597 929 q 569 863 592 895 q 512 811 547 831 q 436 790 477 790 z "},"æ":{"ha":1067,"x_min":53,"x_max":1006,"o":"m 1006 354 q 1006 322 1006 340 q 1004 289 1006 305 l 586 289 q 632 160 590 207 q 758 113 674 113 q 851 132 801 113 q 924 178 900 151 l 979 46 q 891 4 951 27 q 729 -19 831 -19 q 578 14 635 -19 q 489 101 520 47 q 413 28 456 54 q 324 -9 369 1 q 242 -19 278 -19 q 99 39 146 -19 q 53 183 53 98 q 67 257 53 217 q 122 331 82 296 q 234 389 161 366 q 425 411 308 411 l 424 443 q 402 528 424 494 q 311 563 380 563 q 209 544 260 563 q 133 499 158 526 l 78 632 q 189 684 119 660 q 340 708 258 708 q 460 688 415 708 q 531 631 506 667 q 614 688 565 667 q 726 708 662 708 q 891 666 830 708 q 979 543 952 623 q 1006 354 1006 464 m 585 397 l 831 399 q 817 510 831 472 q 782 563 804 549 q 731 576 759 576 q 624 524 660 576 q 585 397 589 472 m 425 204 l 426 303 q 411 304 419 304 q 394 304 403 304 q 316 295 356 304 q 248 265 276 287 q 221 206 221 244 q 245 135 221 156 q 311 114 269 114 q 373 139 342 114 q 425 204 404 165 z "},"ǽ":{"ha":1067,"x_min":53,"x_max":1006,"o":"m 1006 354 q 1006 322 1006 340 q 1004 289 1006 305 l 586 289 q 632 160 590 207 q 758 113 674 113 q 851 132 801 113 q 924 178 900 151 l 979 46 q 891 4 951 27 q 729 -19 831 -19 q 578 14 635 -19 q 489 101 520 47 q 413 28 456 54 q 324 -9 369 1 q 242 -19 278 -19 q 99 39 146 -19 q 53 183 53 98 q 67 257 53 217 q 122 331 82 296 q 234 389 161 366 q 425 411 308 411 l 424 443 q 402 528 424 494 q 311 563 380 563 q 209 544 260 563 q 133 499 158 526 l 78 632 q 189 684 119 660 q 340 708 258 708 q 460 688 415 708 q 531 631 506 667 q 614 688 565 667 q 726 708 662 708 q 891 666 830 708 q 979 543 952 623 q 1006 354 1006 464 m 585 397 l 831 399 q 817 510 831 472 q 782 563 804 549 q 731 576 759 576 q 624 524 660 576 q 585 397 589 472 m 425 204 l 426 303 q 411 304 419 304 q 394 304 403 304 q 316 295 356 304 q 248 265 276 287 q 221 206 221 244 q 245 135 221 156 q 311 114 269 114 q 373 139 342 114 q 425 204 404 165 m 513 804 l 649 1085 l 838 1085 l 664 804 l 513 804 z "},"ǣ":{"ha":1067,"x_min":53,"x_max":1006,"o":"m 1006 354 q 1006 322 1006 340 q 1004 289 1006 305 l 586 289 q 632 160 590 207 q 758 113 674 113 q 851 132 801 113 q 924 178 900 151 l 979 46 q 891 4 951 27 q 729 -19 831 -19 q 578 14 635 -19 q 489 101 520 47 q 413 28 456 54 q 324 -9 369 1 q 242 -19 278 -19 q 99 39 146 -19 q 53 183 53 98 q 67 257 53 217 q 122 331 82 296 q 234 389 161 366 q 425 411 308 411 l 424 443 q 402 528 424 494 q 311 563 380 563 q 209 544 260 563 q 133 499 158 526 l 78 632 q 189 684 119 660 q 340 708 258 708 q 460 688 415 708 q 531 631 506 667 q 614 688 565 667 q 726 708 662 708 q 891 666 830 708 q 979 543 952 623 q 1006 354 1006 464 m 585 397 l 831 399 q 817 510 831 472 q 782 563 804 549 q 731 576 759 576 q 624 524 660 576 q 585 397 589 472 m 425 204 l 426 303 q 411 304 419 304 q 394 304 403 304 q 316 295 356 304 q 248 265 276 287 q 221 206 221 244 q 245 135 221 156 q 311 114 269 114 q 373 139 342 114 q 425 204 404 165 m 363 819 l 363 946 l 807 946 l 807 819 l 363 819 z "},"b":{"ha":783,"x_min":108,"x_max":724,"o":"m 447 -19 q 325 28 372 -19 q 261 138 277 75 l 261 0 l 108 0 l 108 1056 l 275 1056 l 275 692 l 261 572 q 305 650 272 619 q 381 695 338 681 q 463 710 423 710 q 658 618 592 710 q 724 349 724 527 q 686 143 724 224 q 586 21 649 61 q 447 -19 524 -19 m 407 118 q 472 141 441 118 q 522 214 503 163 q 542 349 542 265 q 502 517 542 465 q 410 568 463 568 q 311 502 345 568 q 278 338 278 435 q 312 179 278 240 q 407 118 347 118 z "},"ḃ":{"ha":783,"x_min":108,"x_max":724,"o":"m 447 -19 q 325 28 372 -19 q 261 138 277 75 l 261 0 l 108 0 l 108 1056 l 275 1056 l 275 692 l 261 572 q 305 650 272 619 q 381 695 338 681 q 463 710 423 710 q 658 618 592 710 q 724 349 724 527 q 686 143 724 224 q 586 21 649 61 q 447 -19 524 -19 m 407 118 q 472 141 441 118 q 522 214 503 163 q 542 349 542 265 q 502 517 542 465 q 410 568 463 568 q 311 502 345 568 q 278 338 278 435 q 312 179 278 240 q 407 118 347 118 m 425 1058 l 425 1244 l 614 1244 l 614 1058 l 425 1058 z "},"ḅ":{"ha":783,"x_min":108,"x_max":724,"o":"m 447 -19 q 325 28 372 -19 q 261 138 277 75 l 261 0 l 108 0 l 108 1056 l 275 1056 l 275 692 l 261 572 q 305 650 272 619 q 381 695 338 681 q 463 710 423 710 q 658 618 592 710 q 724 349 724 527 q 686 143 724 224 q 586 21 649 61 q 447 -19 524 -19 m 407 118 q 472 141 441 118 q 522 214 503 163 q 542 349 542 265 q 502 517 542 465 q 410 568 463 568 q 311 502 345 568 q 278 338 278 435 q 312 179 278 240 q 407 118 347 118 m 353 -314 l 353 -128 l 542 -128 l 542 -314 l 353 -314 z "},"ɓ":{"ha":783,"x_min":108,"x_max":724,"o":"m 447 -19 q 325 28 372 -19 q 261 138 277 75 l 261 0 l 108 0 l 108 794 q 179 1000 108 922 q 383 1078 250 1078 q 510 1054 463 1078 q 577 1011 558 1030 l 543 864 q 486 908 516 885 q 399 931 457 931 q 309 895 342 931 q 275 792 275 860 l 275 692 l 261 572 q 305 650 272 619 q 381 695 338 681 q 463 710 423 710 q 658 618 592 710 q 724 349 724 527 q 686 143 724 224 q 586 21 649 61 q 447 -19 524 -19 m 407 118 q 472 141 441 118 q 522 214 503 163 q 542 349 542 265 q 502 517 542 465 q 410 568 463 568 q 311 502 345 568 q 278 338 278 435 q 312 179 278 240 q 407 118 347 118 z "},"ḇ":{"ha":783,"x_min":108,"x_max":724,"o":"m 447 -19 q 325 28 372 -19 q 261 138 277 75 l 261 0 l 108 0 l 108 1056 l 275 1056 l 275 692 l 261 572 q 305 650 272 619 q 381 695 338 681 q 463 710 423 710 q 658 618 592 710 q 724 349 724 527 q 686 143 724 224 q 586 21 649 61 q 447 -19 524 -19 m 407 118 q 472 141 441 118 q 522 214 503 163 q 542 349 542 265 q 502 517 542 465 q 410 568 463 568 q 311 502 345 568 q 278 338 278 435 q 312 179 278 240 q 407 118 347 118 m 225 -254 l 225 -128 l 669 -128 l 669 -254 l 225 -254 z "},"c":{"ha":626,"x_min":60,"x_max":593,"o":"m 375 -17 q 195 33 265 -17 q 93 165 126 83 q 60 343 60 247 q 97 522 60 439 q 206 657 133 606 q 385 708 278 708 q 493 696 444 708 q 588 646 542 683 l 531 499 q 470 547 510 530 q 394 564 430 564 q 243 344 243 564 q 281 177 243 229 q 394 125 319 125 q 483 144 444 125 q 540 185 521 163 l 593 61 q 517 12 574 40 q 375 -17 460 -17 z "},"ć":{"ha":626,"x_min":60,"x_max":629,"o":"m 375 -17 q 195 33 265 -17 q 93 165 126 83 q 60 343 60 247 q 97 522 60 439 q 206 657 133 606 q 385 708 278 708 q 493 696 444 708 q 588 646 542 683 l 531 499 q 470 547 510 530 q 394 564 430 564 q 243 344 243 564 q 281 177 243 229 q 394 125 319 125 q 483 144 444 125 q 540 185 521 163 l 593 61 q 517 12 574 40 q 375 -17 460 -17 m 304 804 l 440 1085 l 629 1085 l 456 804 l 304 804 z "},"č":{"ha":626,"x_min":60,"x_max":618,"o":"m 375 -17 q 195 33 265 -17 q 93 165 126 83 q 60 343 60 247 q 97 522 60 439 q 206 657 133 606 q 385 708 278 708 q 493 696 444 708 q 588 646 542 683 l 531 499 q 470 547 510 530 q 394 564 430 564 q 243 344 243 564 q 281 177 243 229 q 394 125 319 125 q 483 144 444 125 q 540 185 521 163 l 593 61 q 517 12 574 40 q 375 -17 460 -17 m 333 804 l 135 1085 l 274 1085 l 377 951 l 478 1085 l 618 1085 l 419 804 l 333 804 z "},"ç":{"ha":626,"x_min":60,"x_max":593,"o":"m 375 -17 q 195 33 265 -17 q 93 165 126 83 q 60 343 60 247 q 97 522 60 439 q 206 657 133 606 q 385 708 278 708 q 493 696 444 708 q 588 646 542 683 l 531 499 q 470 547 510 530 q 394 564 430 564 q 243 344 243 564 q 281 177 243 229 q 394 125 319 125 q 483 144 444 125 q 540 185 521 163 l 593 61 q 517 12 574 40 q 375 -17 460 -17 m 322 -376 q 242 -357 280 -376 q 188 -324 203 -338 l 217 -237 q 268 -259 245 -252 q 314 -267 291 -267 q 375 -247 353 -267 q 397 -204 397 -228 q 367 -152 397 -165 q 304 -139 338 -139 q 283 -140 293 -139 q 263 -143 272 -142 l 297 22 l 422 22 l 396 -79 q 499 -122 458 -79 q 540 -218 540 -164 q 509 -320 540 -286 q 427 -365 477 -354 q 322 -376 377 -376 z "},"ḉ":{"ha":626,"x_min":60,"x_max":629,"o":"m 375 -17 q 195 33 265 -17 q 93 165 126 83 q 60 343 60 247 q 97 522 60 439 q 206 657 133 606 q 385 708 278 708 q 493 696 444 708 q 588 646 542 683 l 531 499 q 470 547 510 530 q 394 564 430 564 q 243 344 243 564 q 281 177 243 229 q 394 125 319 125 q 483 144 444 125 q 540 185 521 163 l 593 61 q 517 12 574 40 q 375 -17 460 -17 m 322 -376 q 242 -357 280 -376 q 188 -324 203 -338 l 217 -237 q 268 -259 245 -252 q 314 -267 291 -267 q 375 -247 353 -267 q 397 -204 397 -228 q 367 -152 397 -165 q 304 -139 338 -139 q 283 -140 293 -139 q 263 -143 272 -142 l 297 22 l 422 22 l 396 -79 q 499 -122 458 -79 q 540 -218 540 -164 q 509 -320 540 -286 q 427 -365 477 -354 q 322 -376 377 -376 m 304 804 l 440 1085 l 629 1085 l 456 804 l 304 804 z "},"ĉ":{"ha":626,"x_min":60,"x_max":618,"o":"m 375 -17 q 195 33 265 -17 q 93 165 126 83 q 60 343 60 247 q 97 522 60 439 q 206 657 133 606 q 385 708 278 708 q 493 696 444 708 q 588 646 542 683 l 531 499 q 470 547 510 530 q 394 564 430 564 q 243 344 243 564 q 281 177 243 229 q 394 125 319 125 q 483 144 444 125 q 540 185 521 163 l 593 61 q 517 12 574 40 q 375 -17 460 -17 m 135 804 l 333 1085 l 419 1085 l 618 804 l 478 804 l 377 938 l 274 804 l 135 804 z "},"ċ":{"ha":626,"x_min":60,"x_max":593,"o":"m 375 -17 q 195 33 265 -17 q 93 165 126 83 q 60 343 60 247 q 97 522 60 439 q 206 657 133 606 q 385 708 278 708 q 493 696 444 708 q 588 646 542 683 l 531 499 q 470 547 510 530 q 394 564 430 564 q 243 344 243 564 q 281 177 243 229 q 394 125 319 125 q 483 144 444 125 q 540 185 521 163 l 593 61 q 517 12 574 40 q 375 -17 460 -17 m 279 804 l 279 989 l 474 989 l 474 804 l 279 804 z "},"ƈ":{"ha":801,"x_min":60,"x_max":807,"o":"m 375 -17 q 195 33 265 -17 q 93 165 126 83 q 60 343 60 247 q 97 522 60 439 q 206 657 133 606 q 385 708 278 708 q 444 706 417 708 q 475 988 418 899 q 658 1078 532 1078 q 747 1063 706 1078 q 807 1029 788 1048 l 773 882 q 672 931 749 931 q 611 898 635 931 q 584 802 587 866 q 608 646 581 739 l 531 499 q 470 547 510 530 q 394 564 430 564 q 243 344 243 564 q 281 177 243 229 q 394 125 319 125 q 483 144 444 125 q 540 185 521 163 l 593 61 q 517 12 574 40 q 375 -17 460 -17 z "},"d":{"ha":781,"x_min":60,"x_max":672,"o":"m 335 -19 q 189 26 251 -19 q 93 153 127 71 q 60 344 60 235 q 130 612 60 515 q 338 708 199 708 q 457 673 408 708 q 521 572 506 638 l 508 674 l 508 1056 l 672 1056 l 672 0 l 521 0 l 521 142 q 455 25 502 70 q 335 -19 408 -19 m 375 118 q 465 170 425 118 q 504 342 504 223 q 474 509 504 450 q 379 568 443 568 q 314 548 347 568 q 260 479 282 528 q 239 344 239 430 q 278 174 239 230 q 375 118 318 118 z "},"ð":{"ha":750,"x_min":64,"x_max":685,"o":"m 364 -14 q 210 29 278 -14 q 103 148 142 72 q 64 319 64 223 q 99 496 64 419 q 197 616 133 573 q 349 660 261 660 q 433 641 399 660 q 487 595 467 622 q 513 542 506 567 q 460 701 505 626 q 360 826 415 777 l 296 742 l 194 807 l 259 890 q 197 917 227 906 q 147 928 166 927 l 190 1046 q 260 1031 219 1044 q 341 999 301 1017 l 418 1096 l 519 1028 l 451 937 q 584 790 533 876 q 660 600 636 703 q 685 390 685 498 q 638 154 685 243 q 518 26 592 65 q 364 -14 445 -14 m 375 114 q 479 176 446 114 q 513 331 513 239 q 507 428 513 395 q 485 482 501 460 q 441 521 469 504 q 375 538 413 538 q 300 509 331 538 q 253 433 269 481 q 236 328 236 385 q 273 173 236 231 q 375 114 310 114 z "},"ď":{"ha":917,"x_min":60,"x_max":900,"o":"m 335 -19 q 189 26 251 -19 q 93 153 127 71 q 60 344 60 235 q 130 612 60 515 q 338 708 199 708 q 457 673 408 708 q 521 572 506 638 l 508 674 l 508 1056 l 672 1056 l 672 0 l 521 0 l 521 142 q 455 25 502 70 q 335 -19 408 -19 m 375 118 q 465 170 425 118 q 504 342 504 223 q 474 509 504 450 q 379 568 443 568 q 314 548 347 568 q 260 479 282 528 q 239 344 239 430 q 278 174 239 230 q 375 118 318 118 m 739 754 q 756 845 749 783 q 763 967 763 908 q 761 1008 763 987 q 757 1056 760 1028 l 896 1056 q 900 1016 899 1035 q 900 978 900 998 q 891 876 900 923 q 870 798 881 830 q 854 754 859 766 l 739 754 z "},"ḑ":{"ha":781,"x_min":60,"x_max":672,"o":"m 335 -19 q 189 26 251 -19 q 93 153 127 71 q 60 344 60 235 q 130 612 60 515 q 338 708 199 708 q 457 673 408 708 q 521 572 506 638 l 508 674 l 508 1056 l 672 1056 l 672 0 l 521 0 l 521 142 q 455 25 502 70 q 335 -19 408 -19 m 375 118 q 465 170 425 118 q 504 342 504 223 q 474 509 504 450 q 379 568 443 568 q 314 548 347 568 q 260 479 282 528 q 239 344 239 430 q 278 174 239 230 q 375 118 318 118 m 274 -382 q 291 -325 277 -370 q 304 -196 304 -279 q 304 -162 304 -179 q 303 -128 304 -145 l 476 -128 q 477 -158 478 -136 q 476 -186 476 -181 q 459 -287 476 -247 q 423 -350 441 -327 q 401 -382 404 -373 l 274 -382 z "},"ḓ":{"ha":781,"x_min":60,"x_max":672,"o":"m 335 -19 q 189 26 251 -19 q 93 153 127 71 q 60 344 60 235 q 130 612 60 515 q 338 708 199 708 q 457 673 408 708 q 521 572 506 638 l 508 674 l 508 1056 l 672 1056 l 672 0 l 521 0 l 521 142 q 455 25 502 70 q 335 -19 408 -19 m 375 118 q 465 170 425 118 q 504 342 504 223 q 474 509 504 450 q 379 568 443 568 q 314 548 347 568 q 260 479 282 528 q 239 344 239 430 q 278 174 239 230 q 375 118 318 118 m 142 -367 l 340 -128 l 426 -128 l 625 -367 l 485 -367 l 384 -253 l 281 -367 l 142 -367 z "},"đ":{"ha":781,"x_min":60,"x_max":772,"o":"m 335 -19 q 189 26 251 -19 q 93 153 127 71 q 60 344 60 235 q 130 612 60 515 q 338 708 199 708 q 457 673 408 708 q 521 572 506 638 l 508 674 l 508 817 l 389 817 l 389 943 l 508 943 l 508 1056 l 672 1056 l 672 943 l 772 943 l 772 817 l 672 817 l 672 0 l 521 0 l 521 142 q 455 25 502 70 q 335 -19 408 -19 m 375 118 q 465 170 425 118 q 504 342 504 223 q 474 509 504 450 q 379 568 443 568 q 314 548 347 568 q 260 479 282 528 q 239 344 239 430 q 278 174 239 230 q 375 118 318 118 z "},"ḋ":{"ha":781,"x_min":60,"x_max":672,"o":"m 335 -19 q 189 26 251 -19 q 93 153 127 71 q 60 344 60 235 q 130 612 60 515 q 338 708 199 708 q 457 673 408 708 q 521 572 506 638 l 508 674 l 508 1056 l 672 1056 l 672 0 l 521 0 l 521 142 q 455 25 502 70 q 335 -19 408 -19 m 375 118 q 465 170 425 118 q 504 342 504 223 q 474 509 504 450 q 379 568 443 568 q 314 548 347 568 q 260 479 282 528 q 239 344 239 430 q 278 174 239 230 q 375 118 318 118 m 181 1058 l 181 1244 l 369 1244 l 369 1058 l 181 1058 z "},"ḍ":{"ha":781,"x_min":60,"x_max":672,"o":"m 335 -19 q 189 26 251 -19 q 93 153 127 71 q 60 344 60 235 q 130 612 60 515 q 338 708 199 708 q 457 673 408 708 q 521 572 506 638 l 508 674 l 508 1056 l 672 1056 l 672 0 l 521 0 l 521 142 q 455 25 502 70 q 335 -19 408 -19 m 375 118 q 465 170 425 118 q 504 342 504 223 q 474 509 504 450 q 379 568 443 568 q 314 548 347 568 q 260 479 282 528 q 239 344 239 430 q 278 174 239 230 q 375 118 318 118 m 289 -314 l 289 -128 l 478 -128 l 478 -314 l 289 -314 z "},"ɗ":{"ha":781,"x_min":60,"x_max":898,"o":"m 335 -19 q 189 26 251 -19 q 93 153 127 71 q 60 344 60 235 q 130 612 60 515 q 338 708 199 708 q 457 673 408 708 q 521 572 506 638 l 508 674 l 508 856 q 529 991 508 932 q 604 1085 551 1051 q 753 1119 658 1119 q 845 1103 806 1119 q 898 1069 885 1088 l 862 936 q 820 962 841 951 q 756 974 800 974 q 695 949 719 974 q 672 856 672 924 l 672 0 l 521 0 l 521 142 q 455 25 502 70 q 335 -19 408 -19 m 375 118 q 465 170 425 118 q 504 342 504 223 q 474 509 504 450 q 379 568 443 568 q 314 548 347 568 q 260 479 282 528 q 239 344 239 430 q 278 174 239 230 q 375 118 318 118 z "},"ḏ":{"ha":781,"x_min":60,"x_max":672,"o":"m 335 -19 q 189 26 251 -19 q 93 153 127 71 q 60 344 60 235 q 130 612 60 515 q 338 708 199 708 q 457 673 408 708 q 521 572 506 638 l 508 674 l 508 1056 l 672 1056 l 672 0 l 521 0 l 521 142 q 455 25 502 70 q 335 -19 408 -19 m 375 118 q 465 170 425 118 q 504 342 504 223 q 474 509 504 450 q 379 568 443 568 q 314 548 347 568 q 260 479 282 528 q 239 344 239 430 q 278 174 239 230 q 375 118 318 118 m 161 -254 l 161 -128 l 606 -128 l 606 -254 l 161 -254 z "},"ɖ":{"ha":903,"x_min":60,"x_max":890,"o":"m 335 -19 q 189 26 251 -19 q 93 153 127 71 q 60 344 60 235 q 130 612 60 515 q 338 708 199 708 q 457 673 408 708 q 521 572 506 638 l 508 674 l 508 1056 l 672 1056 l 672 0 q 689 -75 672 -55 q 747 -96 705 -96 q 812 -84 792 -96 q 853 -58 833 -73 l 890 -191 q 837 -225 877 -210 q 744 -241 797 -241 q 568 -176 617 -241 q 521 14 520 -110 l 521 142 q 455 25 502 70 q 335 -19 408 -19 m 375 118 q 465 170 425 118 q 504 342 504 223 q 474 509 504 450 q 379 568 443 568 q 314 548 347 568 q 260 479 282 528 q 239 344 239 430 q 278 174 239 230 q 375 118 318 118 z "},"ǳ":{"ha":1397,"x_min":60,"x_max":1379,"o":"m 335 -19 q 189 26 251 -19 q 93 153 127 71 q 60 344 60 235 q 130 612 60 515 q 338 708 199 708 q 457 673 408 708 q 521 572 506 638 l 508 674 l 508 1056 l 672 1056 l 672 0 l 521 0 l 521 142 q 455 25 502 70 q 335 -19 408 -19 m 375 118 q 465 170 425 118 q 504 342 504 223 q 474 509 504 450 q 379 568 443 568 q 314 548 347 568 q 260 479 282 528 q 239 344 239 430 q 278 174 239 230 q 375 118 318 118 m 799 0 l 1112 560 l 857 560 l 857 692 l 1379 692 l 1067 126 l 1351 126 l 1351 0 l 799 0 z "},"ǆ":{"ha":1397,"x_min":60,"x_max":1379,"o":"m 335 -19 q 189 26 251 -19 q 93 153 127 71 q 60 344 60 235 q 130 612 60 515 q 338 708 199 708 q 457 673 408 708 q 521 572 506 638 l 508 674 l 508 1056 l 672 1056 l 672 0 l 521 0 l 521 142 q 455 25 502 70 q 335 -19 408 -19 m 375 118 q 465 170 425 118 q 504 342 504 223 q 474 509 504 450 q 379 568 443 568 q 314 548 347 568 q 260 479 282 528 q 239 344 239 430 q 278 174 239 230 q 375 118 318 118 m 799 0 l 1112 560 l 857 560 l 857 692 l 1379 692 l 1067 126 l 1351 126 l 1351 0 l 799 0 m 1075 804 l 876 1085 l 1015 1085 l 1119 951 l 1219 1085 l 1360 1085 l 1161 804 l 1075 804 z "},"e":{"ha":721,"x_min":58,"x_max":660,"o":"m 383 -18 q 195 31 267 -18 q 91 161 124 80 q 58 338 58 242 q 95 523 58 438 q 205 658 133 607 q 381 708 276 708 q 598 618 536 708 q 660 364 660 528 q 659 327 660 349 q 657 289 658 305 l 240 289 q 286 160 244 207 q 413 114 328 114 q 505 133 456 114 q 578 179 554 152 l 633 47 q 545 5 606 28 q 383 -18 485 -18 m 239 397 l 483 397 q 470 509 483 470 q 435 562 458 547 q 385 576 413 576 q 278 524 314 576 q 239 397 243 472 z "},"é":{"ha":721,"x_min":58,"x_max":660,"o":"m 383 -18 q 195 31 267 -18 q 91 161 124 80 q 58 338 58 242 q 95 523 58 438 q 205 658 133 607 q 381 708 276 708 q 598 618 536 708 q 660 364 660 528 q 659 327 660 349 q 657 289 658 305 l 240 289 q 286 160 244 207 q 413 114 328 114 q 505 133 456 114 q 578 179 554 152 l 633 47 q 545 5 606 28 q 383 -18 485 -18 m 239 397 l 483 397 q 470 509 483 470 q 435 562 458 547 q 385 576 413 576 q 278 524 314 576 q 239 397 243 472 m 313 804 l 449 1085 l 638 1085 l 464 804 l 313 804 z "},"ĕ":{"ha":721,"x_min":58,"x_max":660,"o":"m 383 -18 q 195 31 267 -18 q 91 161 124 80 q 58 338 58 242 q 95 523 58 438 q 205 658 133 607 q 381 708 276 708 q 598 618 536 708 q 660 364 660 528 q 659 327 660 349 q 657 289 658 305 l 240 289 q 286 160 244 207 q 413 114 328 114 q 505 133 456 114 q 578 179 554 152 l 633 47 q 545 5 606 28 q 383 -18 485 -18 m 239 397 l 483 397 q 470 509 483 470 q 435 562 458 547 q 385 576 413 576 q 278 524 314 576 q 239 397 243 472 m 385 810 q 217 873 282 810 q 151 1058 151 935 l 278 1058 q 302 965 280 997 q 385 933 324 933 q 468 967 449 933 q 490 1058 488 1001 l 618 1058 q 552 872 618 933 q 385 810 487 810 z "},"ě":{"ha":721,"x_min":58,"x_max":660,"o":"m 383 -18 q 195 31 267 -18 q 91 161 124 80 q 58 338 58 242 q 95 523 58 438 q 205 658 133 607 q 381 708 276 708 q 598 618 536 708 q 660 364 660 528 q 659 327 660 349 q 657 289 658 305 l 240 289 q 286 160 244 207 q 413 114 328 114 q 505 133 456 114 q 578 179 554 152 l 633 47 q 545 5 606 28 q 383 -18 485 -18 m 239 397 l 483 397 q 470 509 483 470 q 435 562 458 547 q 385 576 413 576 q 278 524 314 576 q 239 397 243 472 m 342 804 l 143 1085 l 282 1085 l 385 951 l 486 1085 l 626 1085 l 428 804 l 342 804 z "},"ȩ":{"ha":721,"x_min":58,"x_max":660,"o":"m 383 -18 q 195 31 267 -18 q 91 161 124 80 q 58 338 58 242 q 95 523 58 438 q 205 658 133 607 q 381 708 276 708 q 598 618 536 708 q 660 364 660 528 q 659 327 660 349 q 657 289 658 305 l 240 289 q 286 160 244 207 q 413 114 328 114 q 505 133 456 114 q 578 179 554 152 l 633 47 q 545 5 606 28 q 383 -18 485 -18 m 239 397 l 483 397 q 470 509 483 470 q 435 562 458 547 q 385 576 413 576 q 278 524 314 576 q 239 397 243 472 m 363 -376 q 282 -357 320 -376 q 228 -324 244 -338 l 257 -237 q 308 -259 285 -252 q 354 -267 331 -267 q 415 -247 393 -267 q 438 -204 438 -228 q 408 -152 438 -165 q 344 -139 378 -139 q 323 -140 333 -139 q 303 -143 313 -142 l 338 22 l 463 22 l 436 -79 q 539 -122 498 -79 q 581 -218 581 -164 q 549 -320 581 -286 q 467 -365 517 -354 q 363 -376 417 -376 z "},"ḝ":{"ha":721,"x_min":58,"x_max":660,"o":"m 383 -18 q 195 31 267 -18 q 91 161 124 80 q 58 338 58 242 q 95 523 58 438 q 205 658 133 607 q 381 708 276 708 q 598 618 536 708 q 660 364 660 528 q 659 327 660 349 q 657 289 658 305 l 240 289 q 286 160 244 207 q 413 114 328 114 q 505 133 456 114 q 578 179 554 152 l 633 47 q 545 5 606 28 q 383 -18 485 -18 m 239 397 l 483 397 q 470 509 483 470 q 435 562 458 547 q 385 576 413 576 q 278 524 314 576 q 239 397 243 472 m 363 -376 q 282 -357 320 -376 q 228 -324 244 -338 l 257 -237 q 308 -259 285 -252 q 354 -267 331 -267 q 415 -247 393 -267 q 438 -204 438 -228 q 408 -152 438 -165 q 344 -139 378 -139 q 323 -140 333 -139 q 303 -143 313 -142 l 338 22 l 463 22 l 436 -79 q 539 -122 498 -79 q 581 -218 581 -164 q 549 -320 581 -286 q 467 -365 517 -354 q 363 -376 417 -376 m 385 810 q 217 873 282 810 q 151 1058 151 935 l 278 1058 q 302 965 280 997 q 385 933 324 933 q 468 967 449 933 q 490 1058 488 1001 l 618 1058 q 552 872 618 933 q 385 810 487 810 z "},"ê":{"ha":721,"x_min":58,"x_max":660,"o":"m 383 -18 q 195 31 267 -18 q 91 161 124 80 q 58 338 58 242 q 95 523 58 438 q 205 658 133 607 q 381 708 276 708 q 598 618 536 708 q 660 364 660 528 q 659 327 660 349 q 657 289 658 305 l 240 289 q 286 160 244 207 q 413 114 328 114 q 505 133 456 114 q 578 179 554 152 l 633 47 q 545 5 606 28 q 383 -18 485 -18 m 239 397 l 483 397 q 470 509 483 470 q 435 562 458 547 q 385 576 413 576 q 278 524 314 576 q 239 397 243 472 m 143 804 l 342 1085 l 428 1085 l 626 804 l 486 804 l 385 938 l 282 804 l 143 804 z "},"ế":{"ha":721,"x_min":58,"x_max":782,"o":"m 383 -18 q 195 31 267 -18 q 91 161 124 80 q 58 338 58 242 q 95 523 58 438 q 205 658 133 607 q 381 708 276 708 q 598 618 536 708 q 660 364 660 528 q 659 327 660 349 q 657 289 658 305 l 240 289 q 286 160 244 207 q 413 114 328 114 q 505 133 456 114 q 578 179 554 152 l 633 47 q 545 5 606 28 q 383 -18 485 -18 m 239 397 l 483 397 q 470 509 483 470 q 435 562 458 547 q 385 576 413 576 q 278 524 314 576 q 239 397 243 472 m 513 1065 l 624 1272 l 782 1272 l 636 1065 l 513 1065 m 157 804 l 344 1068 l 425 1068 l 613 804 l 481 804 l 385 904 l 288 804 l 157 804 z "},"ḙ":{"ha":721,"x_min":58,"x_max":660,"o":"m 383 -18 q 195 31 267 -18 q 91 161 124 80 q 58 338 58 242 q 95 523 58 438 q 205 658 133 607 q 381 708 276 708 q 598 618 536 708 q 660 364 660 528 q 659 327 660 349 q 657 289 658 305 l 240 289 q 286 160 244 207 q 413 114 328 114 q 505 133 456 114 q 578 179 554 152 l 633 47 q 545 5 606 28 q 383 -18 485 -18 m 239 397 l 483 397 q 470 509 483 470 q 435 562 458 547 q 385 576 413 576 q 278 524 314 576 q 239 397 243 472 m 153 -367 l 351 -128 l 438 -128 l 636 -367 l 496 -367 l 395 -253 l 292 -367 l 153 -367 z "},"ệ":{"ha":721,"x_min":58,"x_max":660,"o":"m 383 -18 q 195 31 267 -18 q 91 161 124 80 q 58 338 58 242 q 95 523 58 438 q 205 658 133 607 q 381 708 276 708 q 598 618 536 708 q 660 364 660 528 q 659 327 660 349 q 657 289 658 305 l 240 289 q 286 160 244 207 q 413 114 328 114 q 505 133 456 114 q 578 179 554 152 l 633 47 q 545 5 606 28 q 383 -18 485 -18 m 239 397 l 483 397 q 470 509 483 470 q 435 562 458 547 q 385 576 413 576 q 278 524 314 576 q 239 397 243 472 m 300 -314 l 300 -128 l 489 -128 l 489 -314 l 300 -314 m 143 804 l 342 1085 l 428 1085 l 626 804 l 486 804 l 385 938 l 282 804 l 143 804 z "},"ề":{"ha":721,"x_min":58,"x_max":676,"o":"m 383 -18 q 195 31 267 -18 q 91 161 124 80 q 58 338 58 242 q 95 523 58 438 q 205 658 133 607 q 381 708 276 708 q 598 618 536 708 q 660 364 660 528 q 659 327 660 349 q 657 289 658 305 l 240 289 q 286 160 244 207 q 413 114 328 114 q 505 133 456 114 q 578 179 554 152 l 633 47 q 545 5 606 28 q 383 -18 485 -18 m 239 397 l 483 397 q 470 509 483 470 q 435 562 458 547 q 385 576 413 576 q 278 524 314 576 q 239 397 243 472 m 554 1065 l 407 1272 l 565 1272 l 676 1065 l 554 1065 m 157 804 l 344 1068 l 425 1068 l 613 804 l 481 804 l 385 904 l 288 804 l 157 804 z "},"ể":{"ha":721,"x_min":58,"x_max":660,"o":"m 383 -18 q 195 31 267 -18 q 91 161 124 80 q 58 338 58 242 q 95 523 58 438 q 205 658 133 607 q 381 708 276 708 q 598 618 536 708 q 660 364 660 528 q 659 327 660 349 q 657 289 658 305 l 240 289 q 286 160 244 207 q 413 114 328 114 q 505 133 456 114 q 578 179 554 152 l 633 47 q 545 5 606 28 q 383 -18 485 -18 m 239 397 l 483 397 q 470 509 483 470 q 435 562 458 547 q 385 576 413 576 q 278 524 314 576 q 239 397 243 472 m 400 1110 l 365 1110 q 348 1110 356 1110 q 329 1114 339 1111 l 308 1179 q 325 1177 317 1178 q 343 1176 334 1176 q 398 1188 372 1176 q 424 1232 424 1199 q 403 1268 424 1253 q 347 1283 383 1283 q 311 1277 330 1283 q 269 1260 292 1272 l 244 1333 q 299 1361 259 1345 q 382 1378 340 1378 q 453 1366 415 1378 q 518 1325 491 1354 q 546 1243 546 1296 q 529 1182 546 1213 q 479 1130 512 1151 q 400 1110 447 1110 m 157 804 l 344 1068 l 425 1068 l 613 804 l 481 804 l 385 904 l 288 804 l 157 804 z "},"ễ":{"ha":721,"x_min":58,"x_max":660,"o":"m 383 -18 q 195 31 267 -18 q 91 161 124 80 q 58 338 58 242 q 95 523 58 438 q 205 658 133 607 q 381 708 276 708 q 598 618 536 708 q 660 364 660 528 q 659 327 660 349 q 657 289 658 305 l 240 289 q 286 160 244 207 q 413 114 328 114 q 505 133 456 114 q 578 179 554 152 l 633 47 q 545 5 606 28 q 383 -18 485 -18 m 239 397 l 483 397 q 470 509 483 470 q 435 562 458 547 q 385 576 413 576 q 278 524 314 576 q 239 397 243 472 m 483 1104 q 422 1117 449 1104 q 372 1146 394 1131 q 336 1169 349 1164 q 314 1174 324 1174 q 273 1164 293 1174 q 244 1117 252 1153 l 175 1164 q 208 1243 175 1210 q 296 1276 241 1276 q 357 1264 331 1276 q 403 1238 383 1252 q 437 1217 421 1225 q 469 1210 453 1210 q 509 1216 494 1210 q 525 1263 524 1223 l 594 1214 q 566 1137 594 1170 q 483 1104 537 1104 m 157 804 l 344 1068 l 425 1068 l 613 804 l 481 804 l 385 904 l 288 804 l 157 804 z "},"ȅ":{"ha":721,"x_min":33,"x_max":660,"o":"m 383 -18 q 195 31 267 -18 q 91 161 124 80 q 58 338 58 242 q 95 523 58 438 q 205 658 133 607 q 381 708 276 708 q 598 618 536 708 q 660 364 660 528 q 659 327 660 349 q 657 289 658 305 l 240 289 q 286 160 244 207 q 413 114 328 114 q 505 133 456 114 q 578 179 554 152 l 633 47 q 545 5 606 28 q 383 -18 485 -18 m 239 397 l 483 397 q 470 509 483 470 q 435 562 458 547 q 385 576 413 576 q 278 524 314 576 q 239 397 243 472 m 482 804 l 324 1085 l 475 1085 l 603 804 l 482 804 m 192 804 l 33 1085 l 183 1085 l 313 804 l 192 804 z "},"ë":{"ha":721,"x_min":58,"x_max":660,"o":"m 383 -18 q 195 31 267 -18 q 91 161 124 80 q 58 338 58 242 q 95 523 58 438 q 205 658 133 607 q 381 708 276 708 q 598 618 536 708 q 660 364 660 528 q 659 327 660 349 q 657 289 658 305 l 240 289 q 286 160 244 207 q 413 114 328 114 q 505 133 456 114 q 578 179 554 152 l 633 47 q 545 5 606 28 q 383 -18 485 -18 m 239 397 l 483 397 q 470 509 483 470 q 435 562 458 547 q 385 576 413 576 q 278 524 314 576 q 239 397 243 472 m 432 836 l 432 1021 l 615 1021 l 615 836 l 432 836 m 154 836 l 154 1021 l 338 1021 l 338 836 l 154 836 z "},"ė":{"ha":721,"x_min":58,"x_max":660,"o":"m 383 -18 q 195 31 267 -18 q 91 161 124 80 q 58 338 58 242 q 95 523 58 438 q 205 658 133 607 q 381 708 276 708 q 598 618 536 708 q 660 364 660 528 q 659 327 660 349 q 657 289 658 305 l 240 289 q 286 160 244 207 q 413 114 328 114 q 505 133 456 114 q 578 179 554 152 l 633 47 q 545 5 606 28 q 383 -18 485 -18 m 239 397 l 483 397 q 470 509 483 470 q 435 562 458 547 q 385 576 413 576 q 278 524 314 576 q 239 397 243 472 m 288 804 l 288 989 l 482 989 l 482 804 l 288 804 z "},"ẹ":{"ha":721,"x_min":58,"x_max":660,"o":"m 383 -18 q 195 31 267 -18 q 91 161 124 80 q 58 338 58 242 q 95 523 58 438 q 205 658 133 607 q 381 708 276 708 q 598 618 536 708 q 660 364 660 528 q 659 327 660 349 q 657 289 658 305 l 240 289 q 286 160 244 207 q 413 114 328 114 q 505 133 456 114 q 578 179 554 152 l 633 47 q 545 5 606 28 q 383 -18 485 -18 m 239 397 l 483 397 q 470 509 483 470 q 435 562 458 547 q 385 576 413 576 q 278 524 314 576 q 239 397 243 472 m 300 -314 l 300 -128 l 489 -128 l 489 -314 l 300 -314 z "},"è":{"ha":721,"x_min":58,"x_max":660,"o":"m 383 -18 q 195 31 267 -18 q 91 161 124 80 q 58 338 58 242 q 95 523 58 438 q 205 658 133 607 q 381 708 276 708 q 598 618 536 708 q 660 364 660 528 q 659 327 660 349 q 657 289 658 305 l 240 289 q 286 160 244 207 q 413 114 328 114 q 505 133 456 114 q 578 179 554 152 l 633 47 q 545 5 606 28 q 383 -18 485 -18 m 239 397 l 483 397 q 470 509 483 470 q 435 562 458 547 q 385 576 413 576 q 278 524 314 576 q 239 397 243 472 m 306 804 l 132 1085 l 321 1085 l 457 804 l 306 804 z "},"ẻ":{"ha":721,"x_min":58,"x_max":660,"o":"m 383 -18 q 195 31 267 -18 q 91 161 124 80 q 58 338 58 242 q 95 523 58 438 q 205 658 133 607 q 381 708 276 708 q 598 618 536 708 q 660 364 660 528 q 659 327 660 349 q 657 289 658 305 l 240 289 q 286 160 244 207 q 413 114 328 114 q 505 133 456 114 q 578 179 554 152 l 633 47 q 545 5 606 28 q 383 -18 485 -18 m 239 397 l 483 397 q 470 509 483 470 q 435 562 458 547 q 385 576 413 576 q 278 524 314 576 q 239 397 243 472 m 400 799 q 355 802 373 799 q 315 811 338 805 l 293 881 q 335 876 312 876 q 398 890 367 876 q 428 943 428 903 q 405 985 428 966 q 340 1004 381 1004 q 297 997 319 1004 q 247 975 274 989 l 218 1061 q 281 1095 234 1076 q 379 1114 328 1114 q 462 1100 417 1114 q 539 1052 507 1087 q 571 956 571 1018 q 551 883 571 919 q 493 823 531 847 q 400 799 455 799 z "},"ȇ":{"ha":721,"x_min":58,"x_max":660,"o":"m 383 -18 q 195 31 267 -18 q 91 161 124 80 q 58 338 58 242 q 95 523 58 438 q 205 658 133 607 q 381 708 276 708 q 598 618 536 708 q 660 364 660 528 q 659 327 660 349 q 657 289 658 305 l 240 289 q 286 160 244 207 q 413 114 328 114 q 505 133 456 114 q 578 179 554 152 l 633 47 q 545 5 606 28 q 383 -18 485 -18 m 239 397 l 483 397 q 470 509 483 470 q 435 562 458 547 q 385 576 413 576 q 278 524 314 576 q 239 397 243 472 m 151 804 q 217 990 151 927 q 385 1053 282 1053 q 552 991 487 1053 q 618 804 618 929 l 490 804 q 468 899 488 862 q 385 936 449 936 q 302 901 324 936 q 278 804 280 866 l 151 804 z "},"ē":{"ha":721,"x_min":58,"x_max":660,"o":"m 383 -18 q 195 31 267 -18 q 91 161 124 80 q 58 338 58 242 q 95 523 58 438 q 205 658 133 607 q 381 708 276 708 q 598 618 536 708 q 660 364 660 528 q 659 327 660 349 q 657 289 658 305 l 240 289 q 286 160 244 207 q 413 114 328 114 q 505 133 456 114 q 578 179 554 152 l 633 47 q 545 5 606 28 q 383 -18 485 -18 m 239 397 l 483 397 q 470 509 483 470 q 435 562 458 547 q 385 576 413 576 q 278 524 314 576 q 239 397 243 472 m 163 819 l 163 946 l 607 946 l 607 819 l 163 819 z "},"ḗ":{"ha":721,"x_min":58,"x_max":660,"o":"m 383 -18 q 195 31 267 -18 q 91 161 124 80 q 58 338 58 242 q 95 523 58 438 q 205 658 133 607 q 381 708 276 708 q 598 618 536 708 q 660 364 660 528 q 659 327 660 349 q 657 289 658 305 l 240 289 q 286 160 244 207 q 413 114 328 114 q 505 133 456 114 q 578 179 554 152 l 633 47 q 545 5 606 28 q 383 -18 485 -18 m 239 397 l 483 397 q 470 509 483 470 q 435 562 458 547 q 385 576 413 576 q 278 524 314 576 q 239 397 243 472 m 163 819 l 163 946 l 607 946 l 607 819 l 163 819 m 313 1067 l 449 1347 l 638 1347 l 464 1067 l 313 1067 z "},"ḕ":{"ha":721,"x_min":58,"x_max":660,"o":"m 383 -18 q 195 31 267 -18 q 91 161 124 80 q 58 338 58 242 q 95 523 58 438 q 205 658 133 607 q 381 708 276 708 q 598 618 536 708 q 660 364 660 528 q 659 327 660 349 q 657 289 658 305 l 240 289 q 286 160 244 207 q 413 114 328 114 q 505 133 456 114 q 578 179 554 152 l 633 47 q 545 5 606 28 q 383 -18 485 -18 m 239 397 l 483 397 q 470 509 483 470 q 435 562 458 547 q 385 576 413 576 q 278 524 314 576 q 239 397 243 472 m 163 819 l 163 946 l 607 946 l 607 819 l 163 819 m 306 1067 l 132 1347 l 321 1347 l 457 1067 l 306 1067 z "},"ę":{"ha":721,"x_min":58,"x_max":660,"o":"m 660 364 q 659 327 660 349 q 657 289 658 305 l 240 289 q 286 160 244 207 q 413 114 328 114 q 505 133 456 114 q 578 179 554 152 l 633 47 q 584 20 615 35 q 506 -6 553 5 q 406 -70 447 -33 q 364 -150 364 -107 q 387 -196 364 -185 q 442 -207 410 -207 q 478 -203 463 -207 q 518 -186 493 -199 l 518 -311 q 401 -333 474 -333 q 249 -292 303 -333 q 194 -178 194 -251 q 230 -87 194 -133 q 322 -14 265 -42 q 170 50 228 -1 q 85 175 112 100 q 58 338 58 251 q 95 523 58 438 q 205 658 133 607 q 381 708 276 708 q 598 618 536 708 q 660 364 660 528 m 239 397 l 483 397 q 470 509 483 470 q 435 562 458 547 q 385 576 413 576 q 278 524 314 576 q 239 397 243 472 z "},"ɛ":{"ha":563,"x_min":42,"x_max":549,"o":"m 328 -14 q 182 11 247 -14 q 80 82 117 35 q 42 193 42 128 q 64 269 42 233 q 123 328 85 306 q 210 351 161 351 q 135 390 168 360 q 83 457 102 419 q 64 532 64 495 q 135 661 64 615 q 328 708 206 708 q 450 692 394 708 q 549 650 506 676 l 499 521 q 426 561 467 547 q 342 575 385 575 q 261 558 299 575 q 224 503 224 542 q 258 440 224 469 q 361 410 292 410 l 422 410 l 422 287 l 368 287 q 285 281 324 287 q 222 258 246 275 q 197 206 197 240 q 232 145 197 172 q 342 118 266 118 q 427 134 388 118 q 499 175 467 149 l 549 43 q 328 -14 455 -14 z "},"ʃ":{"ha":643,"x_min":14,"x_max":629,"o":"m 403 0 q 383 -130 404 -76 q 308 -212 361 -184 q 159 -241 255 -241 q 66 -225 106 -241 q 14 -191 26 -210 l 50 -58 q 91 -84 71 -73 q 156 -96 112 -96 q 222 -75 203 -96 q 240 0 240 -55 l 240 878 q 260 1008 239 954 q 335 1090 282 1062 q 484 1119 389 1119 q 577 1103 537 1119 q 629 1069 617 1088 l 593 936 q 552 962 572 951 q 487 974 531 974 q 443 969 463 974 q 414 944 424 964 q 403 878 403 924 l 403 0 z "},"ɇ":{"ha":721,"x_min":58,"x_max":660,"o":"m 218 -178 l 253 3 q 104 132 150 40 q 58 338 58 224 q 95 523 58 438 q 205 658 133 607 q 381 708 276 708 q 392 708 386 708 l 476 1139 l 565 1139 l 478 697 q 619 585 578 670 q 660 364 660 499 q 659 327 660 349 q 657 289 658 305 l 398 289 l 365 119 q 413 114 387 114 q 505 133 456 114 q 578 179 554 152 l 633 47 q 545 5 606 28 q 383 -18 485 -18 q 338 -16 360 -18 l 306 -178 l 218 -178 m 239 397 l 331 397 l 366 575 q 274 517 305 567 q 239 397 243 466 m 483 397 q 474 494 483 458 q 449 549 465 531 l 419 397 l 483 397 m 240 289 q 285 162 244 206 l 310 289 l 240 289 z "},"ẽ":{"ha":721,"x_min":58,"x_max":660,"o":"m 383 -18 q 195 31 267 -18 q 91 161 124 80 q 58 338 58 242 q 95 523 58 438 q 205 658 133 607 q 381 708 276 708 q 598 618 536 708 q 660 364 660 528 q 659 327 660 349 q 657 289 658 305 l 240 289 q 286 160 244 207 q 413 114 328 114 q 505 133 456 114 q 578 179 554 152 l 633 47 q 545 5 606 28 q 383 -18 485 -18 m 239 397 l 483 397 q 470 509 483 470 q 435 562 458 547 q 385 576 413 576 q 278 524 314 576 q 239 397 243 472 m 478 790 q 406 805 431 790 q 361 836 380 819 q 330 860 347 850 q 289 871 314 871 q 244 855 266 871 q 208 801 223 839 l 131 861 q 195 956 155 917 q 292 994 235 994 q 366 981 341 994 q 407 950 390 967 q 437 926 422 935 q 481 917 453 917 q 526 935 506 917 q 554 992 547 953 l 639 929 q 611 863 634 895 q 553 811 588 831 q 478 790 519 790 z "},"ǝ":{"ha":729,"x_min":61,"x_max":663,"o":"m 340 -17 q 176 26 237 -17 q 88 148 115 69 q 61 338 61 228 q 61 370 61 352 q 63 403 62 388 l 481 403 q 435 535 476 485 q 308 585 393 585 q 217 566 266 585 q 143 519 167 547 l 88 651 q 176 693 116 670 q 338 717 235 717 q 526 666 454 717 q 630 533 597 615 q 663 354 663 450 q 625 169 663 253 q 516 34 588 85 q 340 -17 444 -17 m 336 115 q 442 168 407 115 q 482 294 478 221 l 236 294 q 249 183 236 222 q 285 130 263 144 q 336 115 308 115 z "},"ə":{"ha":729,"x_min":61,"x_max":663,"o":"m 340 -17 q 176 26 237 -17 q 88 148 115 69 q 61 338 61 228 q 61 370 61 352 q 63 403 62 388 l 481 403 q 435 535 476 485 q 308 585 393 585 q 217 566 266 585 q 143 519 167 547 l 88 651 q 176 693 116 670 q 338 717 235 717 q 526 666 454 717 q 630 533 597 615 q 663 354 663 450 q 625 169 663 253 q 516 34 588 85 q 340 -17 444 -17 m 336 115 q 442 168 407 115 q 482 294 478 221 l 236 294 q 249 183 236 222 q 285 130 263 144 q 336 115 308 115 z "},"ʒ":{"ha":649,"x_min":14,"x_max":649,"o":"m 165 297 l 365 543 l 43 543 l 43 692 l 649 692 l 349 303 q 485 267 432 295 q 567 198 538 240 q 607 107 596 157 q 618 7 618 58 q 579 -155 618 -83 q 466 -269 540 -227 q 288 -311 392 -311 q 111 -290 177 -311 q 14 -250 45 -269 l 92 -126 q 157 -154 117 -142 q 271 -167 197 -167 q 420 -119 377 -167 q 463 17 463 -72 q 436 111 463 76 q 367 164 410 147 q 271 186 324 182 q 165 184 218 190 l 165 297 z "},"ǯ":{"ha":649,"x_min":14,"x_max":649,"o":"m 165 297 l 365 543 l 43 543 l 43 692 l 649 692 l 349 303 q 485 267 432 295 q 567 198 538 240 q 607 107 596 157 q 618 7 618 58 q 579 -155 618 -83 q 466 -269 540 -227 q 288 -311 392 -311 q 111 -290 177 -311 q 14 -250 45 -269 l 92 -126 q 157 -154 117 -142 q 271 -167 197 -167 q 420 -119 377 -167 q 463 17 463 -72 q 436 111 463 76 q 367 164 410 147 q 271 186 324 182 q 165 184 218 190 l 165 297 m 281 805 l 83 1085 l 222 1085 l 325 952 l 426 1085 l 566 1085 l 367 805 l 281 805 z "},"f":{"ha":485,"x_min":19,"x_max":490,"o":"m 113 0 l 113 546 l 19 546 l 19 692 l 113 692 l 113 819 q 136 951 113 900 q 195 1029 159 1001 q 272 1067 231 1056 q 347 1078 313 1078 q 450 1066 415 1078 q 490 1047 484 1053 l 490 896 q 444 925 475 916 q 390 935 413 935 q 339 926 365 935 q 297 894 314 918 q 281 824 281 870 l 281 692 l 449 692 l 449 546 l 281 546 l 281 0 l 113 0 z "},"ḟ":{"ha":485,"x_min":19,"x_max":490,"o":"m 113 0 l 113 546 l 19 546 l 19 692 l 113 692 l 113 819 q 136 951 113 900 q 195 1029 159 1001 q 272 1067 231 1056 q 347 1078 313 1078 q 450 1066 415 1078 q 490 1047 484 1053 l 490 896 q 444 925 475 916 q 390 935 413 935 q 339 926 365 935 q 297 894 314 918 q 281 824 281 870 l 281 692 l 449 692 l 449 546 l 281 546 l 281 0 l 113 0 m 60 1082 l 60 1267 l 254 1267 l 254 1082 l 60 1082 z "},"g":{"ha":775,"x_min":60,"x_max":676,"o":"m 199 -119 q 259 -147 224 -135 q 343 -160 295 -160 q 476 -114 432 -160 q 521 33 521 -67 l 521 142 q 490 72 511 106 q 433 14 469 37 q 340 -8 397 -8 q 198 27 262 -8 q 97 141 135 63 q 60 344 60 219 q 97 552 60 472 q 197 670 134 633 q 336 708 260 708 q 467 665 422 708 q 521 572 512 622 l 540 692 l 676 692 l 676 33 q 596 -218 676 -126 q 360 -311 516 -311 q 214 -290 276 -311 q 121 -250 152 -269 l 199 -119 m 375 128 q 470 185 435 128 q 504 347 504 242 q 474 507 504 447 q 381 568 444 568 q 313 547 345 568 q 260 477 281 526 q 239 346 239 428 q 277 181 239 233 q 375 128 316 128 z "},"ǵ":{"ha":775,"x_min":60,"x_max":676,"o":"m 199 -119 q 259 -147 224 -135 q 343 -160 295 -160 q 476 -114 432 -160 q 521 33 521 -67 l 521 142 q 490 72 511 106 q 433 14 469 37 q 340 -8 397 -8 q 198 27 262 -8 q 97 141 135 63 q 60 344 60 219 q 97 552 60 472 q 197 670 134 633 q 336 708 260 708 q 467 665 422 708 q 521 572 512 622 l 540 692 l 676 692 l 676 33 q 596 -218 676 -126 q 360 -311 516 -311 q 214 -290 276 -311 q 121 -250 152 -269 l 199 -119 m 375 128 q 470 185 435 128 q 504 347 504 242 q 474 507 504 447 q 381 568 444 568 q 313 547 345 568 q 260 477 281 526 q 239 346 239 428 q 277 181 239 233 q 375 128 316 128 m 324 804 l 460 1085 l 649 1085 l 475 804 l 324 804 z "},"ɣ":{"ha":763,"x_min":47,"x_max":715,"o":"m 618 -37 q 585 -145 618 -102 q 499 -211 553 -189 q 382 -233 446 -233 q 265 -211 319 -233 q 178 -145 210 -189 q 145 -37 145 -102 q 169 76 145 28 q 227 165 193 125 q 290 244 260 206 l 47 692 l 217 692 l 338 440 l 381 355 l 425 440 l 547 692 l 715 692 l 466 247 q 532 168 497 208 q 593 79 567 128 q 618 -37 618 29 m 295 -37 q 301 -69 295 -49 q 326 -107 308 -90 q 382 -124 345 -124 q 438 -107 419 -124 q 462 -69 456 -90 q 468 -37 468 -49 q 440 63 468 8 q 381 156 412 118 q 323 63 351 118 q 295 -37 295 8 z "},"ğ":{"ha":775,"x_min":60,"x_max":676,"o":"m 199 -119 q 259 -147 224 -135 q 343 -160 295 -160 q 476 -114 432 -160 q 521 33 521 -67 l 521 142 q 490 72 511 106 q 433 14 469 37 q 340 -8 397 -8 q 198 27 262 -8 q 97 141 135 63 q 60 344 60 219 q 97 552 60 472 q 197 670 134 633 q 336 708 260 708 q 467 665 422 708 q 521 572 512 622 l 540 692 l 676 692 l 676 33 q 596 -218 676 -126 q 360 -311 516 -311 q 214 -290 276 -311 q 121 -250 152 -269 l 199 -119 m 375 128 q 470 185 435 128 q 504 347 504 242 q 474 507 504 447 q 381 568 444 568 q 313 547 345 568 q 260 477 281 526 q 239 346 239 428 q 277 181 239 233 q 375 128 316 128 m 396 810 q 228 873 293 810 q 163 1058 163 935 l 289 1058 q 313 965 291 997 q 396 933 335 933 q 480 967 460 933 q 501 1058 499 1001 l 629 1058 q 564 872 629 933 q 396 810 498 810 z "},"ǧ":{"ha":775,"x_min":60,"x_max":676,"o":"m 199 -119 q 259 -147 224 -135 q 343 -160 295 -160 q 476 -114 432 -160 q 521 33 521 -67 l 521 142 q 490 72 511 106 q 433 14 469 37 q 340 -8 397 -8 q 198 27 262 -8 q 97 141 135 63 q 60 344 60 219 q 97 552 60 472 q 197 670 134 633 q 336 708 260 708 q 467 665 422 708 q 521 572 512 622 l 540 692 l 676 692 l 676 33 q 596 -218 676 -126 q 360 -311 516 -311 q 214 -290 276 -311 q 121 -250 152 -269 l 199 -119 m 375 128 q 470 185 435 128 q 504 347 504 242 q 474 507 504 447 q 381 568 444 568 q 313 547 345 568 q 260 477 281 526 q 239 346 239 428 q 277 181 239 233 q 375 128 316 128 m 353 804 l 154 1085 l 293 1085 l 397 951 l 497 1085 l 638 1085 l 439 804 l 353 804 z "},"ĝ":{"ha":775,"x_min":60,"x_max":676,"o":"m 199 -119 q 259 -147 224 -135 q 343 -160 295 -160 q 476 -114 432 -160 q 521 33 521 -67 l 521 142 q 490 72 511 106 q 433 14 469 37 q 340 -8 397 -8 q 198 27 262 -8 q 97 141 135 63 q 60 344 60 219 q 97 552 60 472 q 197 670 134 633 q 336 708 260 708 q 467 665 422 708 q 521 572 512 622 l 540 692 l 676 692 l 676 33 q 596 -218 676 -126 q 360 -311 516 -311 q 214 -290 276 -311 q 121 -250 152 -269 l 199 -119 m 375 128 q 470 185 435 128 q 504 347 504 242 q 474 507 504 447 q 381 568 444 568 q 313 547 345 568 q 260 477 281 526 q 239 346 239 428 q 277 181 239 233 q 375 128 316 128 m 154 804 l 353 1085 l 439 1085 l 638 804 l 497 804 l 397 938 l 293 804 l 154 804 z "}}}
